<svg width="103" height="32" viewBox="0 0 103 26" fill="none" xmlns="http://www.w3.org/2000/svg">
<path d="M0.213867 18.4375L0.229492 17.9844C0.344076 14.8698 1.13053 11.9271 2.58887 9.15625C3.93262 6.625 5.62533 4.57812 7.66699 3.01562C9.68783 1.47396 11.6566 0.703125 13.5732 0.703125C15.0316 0.703125 16.1826 1.20833 17.0264 2.21875C17.7451 3.09375 18.1045 4.16667 18.1045 5.4375C18.1045 6.95833 17.5472 8.45833 16.4326 9.9375C15.7868 10.7917 15.0993 11.4062 14.3701 11.7812C14.0264 11.9688 13.7035 12.0625 13.4014 12.0625C13.1097 12.0625 12.8389 12 12.5889 11.875C12.3389 11.75 12.1201 11.5938 11.9326 11.4062C11.5472 11 11.3545 10.6354 11.3545 10.3125C11.3545 9.98958 11.4378 9.76562 11.6045 9.64062C13.3128 8.41146 14.4743 7.14583 15.0889 5.84375C15.3285 5.34375 15.4482 4.85417 15.4482 4.375C15.4482 3.36458 14.9691 2.85938 14.0107 2.85938C12.5107 2.85938 10.9639 3.67708 9.37012 5.3125C7.88053 6.82292 6.63053 8.71875 5.62012 11C4.56803 13.3438 4.01074 15.4948 3.94824 17.4531L3.93262 18.0469C3.93262 20.3906 4.42741 21.9271 5.41699 22.6562C5.77116 22.9167 6.19303 23.0469 6.68262 23.0469C7.18262 23.0469 7.65137 22.9844 8.08887 22.8594C8.52637 22.7344 8.96387 22.5625 9.40137 22.3438C10.1097 21.9792 11.016 21.349 12.1201 20.4531C12.4535 20.1927 12.7295 20.2292 12.9482 20.5625C13.1357 20.8333 13.2295 21.1458 13.2295 21.5C13.2295 22.0938 13.1462 22.5 12.9795 22.7188C12.8232 22.9271 12.5472 23.1771 12.1514 23.4688C11.766 23.7604 11.292 24.0312 10.7295 24.2812C9.41699 24.8646 8.13053 25.1562 6.87012 25.1562C5.6097 25.1562 4.59408 25.0052 3.82324 24.7031C3.05241 24.3906 2.40137 23.9479 1.87012 23.375C0.765951 22.1667 0.213867 20.5208 0.213867 18.4375ZM28.9639 20.8438C28.9639 21.8021 29.3024 22.2812 29.9795 22.2812C30.4482 22.2812 30.8337 22.2083 31.1357 22.0625C31.4482 21.9167 31.6566 21.8438 31.7607 21.8438C31.9795 21.8438 32.0889 21.9583 32.0889 22.1875C32.0889 23.0833 31.6201 23.8542 30.6826 24.5C29.693 25.1771 28.6826 25.3438 27.6514 25C26.9743 24.7604 26.4743 24.2448 26.1514 23.4531C25.9951 23.0469 25.917 22.6771 25.917 22.3438C25.917 21.8021 25.9691 21.2292 26.0732 20.625C25.1045 22.6042 23.9014 23.9688 22.4639 24.7188C21.891 25.0104 21.2816 25.1562 20.6357 25.1562C19.9899 25.1562 19.4274 25.026 18.9482 24.7656C18.4795 24.4948 18.0785 24.125 17.7451 23.6562C17.068 22.6771 16.7607 21.4479 16.8232 19.9688C16.8857 18.1146 17.4326 16.2969 18.4639 14.5156C19.4118 12.849 20.6097 11.4896 22.0576 10.4375C23.5055 9.36458 24.8597 8.82812 26.1201 8.82812C27.3805 8.82812 28.3962 9.40625 29.167 10.5625C29.8857 9.40625 30.5212 8.82812 31.0732 8.82812C31.667 8.82812 32.1149 8.9375 32.417 9.15625C32.9899 9.57292 33.193 9.9375 33.0264 10.25C30.4118 15.6042 29.068 18.9375 28.9951 20.25C28.9743 20.4375 28.9639 20.6354 28.9639 20.8438ZM20.292 20.9062C20.292 22.1562 20.693 22.7812 21.4951 22.7812C22.1097 22.7812 22.8649 22.2604 23.7607 21.2188C25.0732 19.6875 26.2347 17.625 27.2451 15.0312C27.568 14.2188 27.8389 13.4062 28.0576 12.5938C28.016 11.8854 27.7191 11.3646 27.167 11.0312C26.9795 10.9167 26.6982 10.8594 26.3232 10.8594C25.9587 10.8594 25.5264 10.9948 25.0264 11.2656C24.5368 11.5365 24.0576 11.9062 23.5889 12.375C23.1305 12.8438 22.6982 13.401 22.292 14.0469C21.8962 14.6823 21.5472 15.375 21.2451 16.125C20.6097 17.7292 20.292 19.3229 20.292 20.9062ZM34.3076 24.625C34.0993 24.4688 33.9326 24.2969 33.8076 24.1094C33.6826 23.9115 33.6149 23.7448 33.6045 23.6094C33.5941 23.4635 33.6201 23.2917 33.6826 23.0938C33.7555 22.8854 33.8493 22.6354 33.9639 22.3438C36.0889 17.1146 37.1514 13.6042 37.1514 11.8125C37.1201 11.3125 36.9482 10.9583 36.6357 10.75L36.3232 10.5312C36.2295 10.4583 36.1774 10.3333 36.167 10.1562C36.167 9.96875 36.2347 9.79167 36.3701 9.625C36.5055 9.45833 36.6826 9.3125 36.9014 9.1875C37.3493 8.94792 37.8076 8.82812 38.2764 8.82812C38.7555 8.82812 39.1253 8.88021 39.3857 8.98438C39.6566 9.08854 39.8857 9.22917 40.0732 9.40625C40.4691 9.78125 40.667 10.1771 40.667 10.5938C40.6774 11.0104 40.6305 11.4323 40.5264 11.8594C40.4326 12.2865 40.318 12.7083 40.1826 13.125C40.0472 13.5312 39.9118 13.9219 39.7764 14.2969C39.641 14.6615 39.5524 14.9323 39.5107 15.1094C39.4274 15.474 39.3962 15.7031 39.417 15.7969C39.667 15.5781 39.818 15.3646 39.8701 15.1562L40.4795 14C41.8337 11.5625 43.1566 9.94792 44.4482 9.15625C44.8232 8.9375 45.2712 8.82812 45.792 8.82812C46.3232 8.82812 46.7503 9.01562 47.0732 9.39062C47.3962 9.75521 47.5628 10.1615 47.5732 10.6094C47.5941 11.0573 47.5628 11.4323 47.4795 11.7344C47.4066 12.026 47.292 12.3021 47.1357 12.5625C46.792 13.1458 46.3753 13.4375 45.8857 13.4375C45.7503 13.4375 45.6253 13.3906 45.5107 13.2969L45.167 13C44.8232 12.6979 44.4899 12.5469 44.167 12.5469C43.8545 12.5469 43.4691 12.7552 43.0107 13.1719C42.5628 13.5885 42.0941 14.125 41.6045 14.7812C39.9587 16.9583 38.6149 19.3958 37.5732 22.0938L36.8857 23.9062C36.7087 24.3542 36.5524 24.6771 36.417 24.875C36.2816 25.0625 36.0785 25.1562 35.8076 25.1562C35.5472 25.1562 35.2816 25.1042 35.0107 25C34.7503 24.9062 34.516 24.7812 34.3076 24.625ZM47.4639 19.5312C47.5055 18.625 47.6566 17.7604 47.917 16.9375C48.1774 16.1042 48.5264 15.3021 48.9639 14.5312C49.4014 13.75 49.9118 13.0156 50.4951 12.3281C51.0889 11.6302 51.7295 11.0208 52.417 10.5C53.9066 9.38542 55.4118 8.82812 56.9326 8.82812C58.7139 8.82812 59.9014 9.5625 60.4951 11.0312C60.7035 11.5312 60.8024 12.125 60.792 12.8125C60.7816 13.4896 60.6514 14.1198 60.4014 14.7031C60.1514 15.276 59.8024 15.8021 59.3545 16.2812C58.917 16.75 58.391 17.1719 57.7764 17.5469C57.1722 17.9219 56.5107 18.2396 55.792 18.5C54.3128 19.0208 52.7295 19.2917 51.042 19.3125C51.0003 19.4583 50.9743 19.6771 50.9639 19.9688C50.9535 20.2604 50.9847 20.5885 51.0576 20.9531C51.1305 21.3073 51.2555 21.625 51.4326 21.9062C51.8076 22.5312 52.3493 22.8438 53.0576 22.8438C54.266 22.8438 55.443 22.4896 56.5889 21.7812C56.9951 21.5417 57.3232 21.2969 57.5732 21.0469C57.8337 20.7865 58.0576 20.6562 58.2451 20.6562C58.4326 20.6562 58.5941 20.7708 58.7295 21C58.8753 21.2188 58.9482 21.4688 58.9482 21.75C58.9482 22.3021 58.792 22.7812 58.4795 23.1875C57.167 24.5 55.2139 25.1562 52.6201 25.1562C51.0889 25.1562 49.8597 24.6979 48.9326 23.7812C47.891 22.7396 47.4014 21.3229 47.4639 19.5312ZM56.5889 10.9062C55.4951 10.9062 54.443 11.6562 53.4326 13.1562C52.5785 14.4479 51.891 15.9792 51.3701 17.75C53.1097 17.5729 54.6201 16.8854 55.9014 15.6875C57.0785 14.5625 57.667 13.4844 57.667 12.4531C57.667 11.4219 57.3076 10.9062 56.5889 10.9062ZM62.5576 19.5312C62.5993 18.625 62.7503 17.7604 63.0107 16.9375C63.2712 16.1042 63.6201 15.3021 64.0576 14.5312C64.4951 13.75 65.0055 13.0156 65.5889 12.3281C66.1826 11.6302 66.8232 11.0208 67.5107 10.5C69.0003 9.38542 70.5055 8.82812 72.0264 8.82812C73.8076 8.82812 74.9951 9.5625 75.5889 11.0312C75.7972 11.5312 75.8962 12.125 75.8857 12.8125C75.8753 13.4896 75.7451 14.1198 75.4951 14.7031C75.2451 15.276 74.8962 15.8021 74.4482 16.2812C74.0107 16.75 73.4847 17.1719 72.8701 17.5469C72.266 17.9219 71.6045 18.2396 70.8857 18.5C69.4066 19.0208 67.8232 19.2917 66.1357 19.3125C66.0941 19.4583 66.068 19.6771 66.0576 19.9688C66.0472 20.2604 66.0785 20.5885 66.1514 20.9531C66.2243 21.3073 66.3493 21.625 66.5264 21.9062C66.9014 22.5312 67.443 22.8438 68.1514 22.8438C69.3597 22.8438 70.5368 22.4896 71.6826 21.7812C72.0889 21.5417 72.417 21.2969 72.667 21.0469C72.9274 20.7865 73.1514 20.6562 73.3389 20.6562C73.5264 20.6562 73.6878 20.7708 73.8232 21C73.9691 21.2188 74.042 21.4688 74.042 21.75C74.042 22.3021 73.8857 22.7812 73.5732 23.1875C72.2607 24.5 70.3076 25.1562 67.7139 25.1562C66.1826 25.1562 64.9535 24.6979 64.0264 23.7812C62.9847 22.7396 62.4951 21.3229 62.5576 19.5312ZM71.6826 10.9062C70.5889 10.9062 69.5368 11.6562 68.5264 13.1562C67.6722 14.4479 66.9847 15.9792 66.4639 17.75C68.2035 17.5729 69.7139 16.8854 70.9951 15.6875C72.1722 14.5625 72.7607 13.4844 72.7607 12.4531C72.7607 11.4219 72.4014 10.9062 71.6826 10.9062ZM77.5576 24.625C77.3493 24.4688 77.1826 24.2969 77.0576 24.1094C76.9326 23.9115 76.8649 23.7448 76.8545 23.6094C76.8441 23.4635 76.8701 23.2917 76.9326 23.0938C77.0055 22.8854 77.0993 22.6354 77.2139 22.3438C79.3389 17.1146 80.4014 13.6042 80.4014 11.8125C80.3701 11.3125 80.1982 10.9583 79.8857 10.75L79.5732 10.5312C79.4795 10.4583 79.4274 10.3333 79.417 10.1562C79.417 9.96875 79.4847 9.79167 79.6201 9.625C79.7555 9.45833 79.9326 9.3125 80.1514 9.1875C80.5993 8.94792 81.0576 8.82812 81.5264 8.82812C82.0055 8.82812 82.3753 8.88021 82.6357 8.98438C82.9066 9.08854 83.1357 9.22917 83.3232 9.40625C83.7191 9.78125 83.917 10.1771 83.917 10.5938C83.9274 11.0104 83.8805 11.4323 83.7764 11.8594C83.6826 12.2865 83.568 12.7083 83.4326 13.125C83.2972 13.5312 83.1618 13.9219 83.0264 14.2969C82.891 14.6615 82.8024 14.9323 82.7607 15.1094C82.6774 15.474 82.6462 15.7031 82.667 15.7969C82.917 15.5781 83.068 15.3646 83.1201 15.1562L83.7295 14C85.0837 11.5625 86.4066 9.94792 87.6982 9.15625C88.0732 8.9375 88.5212 8.82812 89.042 8.82812C89.5732 8.82812 90.0003 9.01562 90.3232 9.39062C90.6462 9.75521 90.8128 10.1615 90.8232 10.6094C90.8441 11.0573 90.8128 11.4323 90.7295 11.7344C90.6566 12.026 90.542 12.3021 90.3857 12.5625C90.042 13.1458 89.6253 13.4375 89.1357 13.4375C89.0003 13.4375 88.8753 13.3906 88.7607 13.2969L88.417 13C88.0732 12.6979 87.7399 12.5469 87.417 12.5469C87.1045 12.5469 86.7191 12.7552 86.2607 13.1719C85.8128 13.5885 85.3441 14.125 84.8545 14.7812C83.2087 16.9583 81.8649 19.3958 80.8232 22.0938L80.1357 23.9062C79.9587 24.3542 79.8024 24.6771 79.667 24.875C79.5316 25.0625 79.3285 25.1562 79.0576 25.1562C78.7972 25.1562 78.5316 25.1042 78.2607 25C78.0003 24.9062 77.766 24.7812 77.5576 24.625ZM89.8076 22.25C89.8076 21.9271 89.8753 21.6302 90.0107 21.3594C90.1566 21.0781 90.3337 20.8438 90.542 20.6562C90.9795 20.25 91.4378 20.0469 91.917 20.0469C92.3337 20.0469 92.542 20.2604 92.542 20.6875C92.542 21.7708 92.9014 22.526 93.6201 22.9531C93.8805 23.1094 94.1514 23.1875 94.4326 23.1875C94.7139 23.1875 94.9535 23.1562 95.1514 23.0938C95.3493 23.0312 95.5316 22.9323 95.6982 22.7969C96.0732 22.4948 96.2607 22.1354 96.2607 21.7188C96.2607 21.3021 96.167 20.9219 95.9795 20.5781C95.792 20.224 95.5576 19.8542 95.2764 19.4688L94.3857 18.2188C93.1357 16.5521 92.5107 15.0156 92.5107 13.6094C92.5107 12.4427 93.0055 11.3854 93.9951 10.4375C95.1201 9.36458 96.5628 8.82812 98.3232 8.82812C99.8649 8.82812 101.068 9.20833 101.933 9.96875C102.641 10.5833 102.995 11.2865 102.995 12.0781C102.995 12.901 102.683 13.5573 102.058 14.0469C101.495 14.4844 100.933 14.6458 100.37 14.5312C100.12 14.4792 99.9274 14.3542 99.792 14.1562C99.6566 13.9479 99.6305 13.7135 99.7139 13.4531C99.7972 13.1927 99.8389 12.9219 99.8389 12.6406C99.8389 12.3594 99.7868 12.099 99.6826 11.8594C99.5785 11.6198 99.4378 11.4167 99.2607 11.25C98.8962 10.9062 98.5107 10.7344 98.1045 10.7344C97.7087 10.7344 97.3805 10.7812 97.1201 10.875C96.8597 10.9583 96.6305 11.0833 96.4326 11.25C96.0264 11.625 95.8232 12.0885 95.8232 12.6406C95.8232 13.1823 95.917 13.651 96.1045 14.0469C96.292 14.4427 96.5212 14.8385 96.792 15.2344C97.0732 15.6302 97.3753 16.0312 97.6982 16.4375C98.0212 16.8438 98.318 17.2708 98.5889 17.7188C99.2451 18.7708 99.5732 19.6979 99.5732 20.5C99.5732 21.2917 99.4066 21.9583 99.0732 22.5C98.7399 23.0312 98.3076 23.4896 97.7764 23.875C96.641 24.7188 95.3701 25.1406 93.9639 25.1406C92.6201 25.1406 91.5576 24.8177 90.7764 24.1719C90.1305 23.6302 89.8076 22.9896 89.8076 22.25Z" fill="#62D2A2"/>
</svg>
