<svg width="358" height="366" viewBox="0 0 358 366" fill="none" xmlns="http://www.w3.org/2000/svg">
<g clip-path="url(#clip0_502_141)">
<path d="M140.098 357.146C138.125 355.971 135.817 355.486 133.538 355.765C134.574 358.527 132.847 358.527 131.121 358.182C129.395 357.837 127.668 356.11 125.942 358.182C124.216 360.254 132.847 359.563 136.3 360.944C136.844 361.364 137.512 361.592 138.199 361.592C138.886 361.592 139.554 361.364 140.098 360.944C140.287 359.685 140.287 358.405 140.098 357.146ZM40.66 300.522C38.243 299.831 36.862 298.45 34.7903 297.76C32.7187 297.069 33.064 295.343 32.0282 293.962H30.6471C30.7589 295.129 31.1662 296.249 31.8307 297.216C32.4952 298.182 33.3949 298.963 34.4451 299.486C35.6191 301.962 37.4008 304.1 39.6241 305.701C39.6241 303.974 45.839 301.558 40.66 300.522ZM52.7445 316.059C51.0919 315.25 49.7557 313.913 48.9465 312.261C48.9465 312.078 48.8737 311.902 48.7442 311.773C48.6147 311.643 48.4391 311.57 48.2559 311.57C48.0728 311.57 47.8971 311.643 47.7676 311.773C47.6381 311.902 47.5654 312.078 47.5654 312.261L46.1843 313.642L53.7803 320.202V317.785L52.7445 316.059ZM26.8491 286.366H24.0869L27.8849 291.545C28.3085 291.3 28.6595 290.948 28.9022 290.523C29.1448 290.098 29.2704 289.617 29.266 289.128C29.4891 288.985 29.6493 288.763 29.7135 288.506C29.7777 288.249 29.7411 287.977 29.6113 287.747C29.2896 287.318 28.8726 286.97 28.3932 286.73C27.9138 286.49 27.3851 286.366 26.8491 286.366ZM35.1356 71.9519C35.1356 70.5708 35.4809 69.1897 33.064 69.535H32.0282L30.6471 74.7141C33.064 75.4046 34.4451 74.0235 35.1356 71.9519ZM96.594 345.752V348.169H99.0108C99.7014 348.169 101.082 347.824 100.737 347.133C100.392 346.443 97.975 345.752 96.594 345.752Z" fill="#255A73"/>
<path d="M356.583 197.631V189.69C356.583 185.546 358.31 181.058 355.202 176.914V175.533C356.949 170.857 356.949 165.708 355.202 161.032L354.512 156.198L353.476 150.674V147.912C352.785 144.459 353.821 140.661 349.678 138.589C349.738 138.484 349.77 138.365 349.77 138.244C349.77 138.123 349.738 138.004 349.678 137.899V134.101C349.397 131.697 348.439 129.422 346.916 127.541C346.225 125.124 346.225 122.707 344.499 120.635V118.564L343.118 114.42C342.427 112.694 342.427 110.622 340.701 109.241L330.343 88.8702H329.307V86.4533L325.854 83.3459C322.056 77.4763 318.949 70.9161 314.115 65.737L312.734 62.9749L309.972 61.939L307.555 59.1769L296.506 46.4018H295.125C294.78 45.366 293.744 45.366 292.708 45.366C291.711 43.6721 290.363 42.2106 288.755 41.0792C287.148 39.9479 285.317 39.1729 283.386 38.8058C282.35 33.972 278.207 32.9362 274.409 31.2099L273.373 30.174C272.75 29.3781 271.967 28.7211 271.075 28.2455C270.183 27.7698 269.202 27.4858 268.194 27.4119L266.813 24.995H264.396L252.311 17.7443C248.168 17.399 244.715 14.2916 240.572 12.9105H238.155C237.916 12.1199 237.401 11.4414 236.704 10.9979C236.007 10.5545 235.175 10.3755 234.357 10.4936L228.142 8.76721L222.963 6.69558L220.201 5.31449H217.784L212.605 4.27868C211.938 4.08783 211.231 4.08348 210.561 4.26609C209.892 4.44871 209.285 4.8113 208.807 5.31449C208.462 2.89759 206.39 2.89759 204.664 2.55232H202.247L198.794 3.58813C197.068 -0.555127 193.27 1.86177 190.508 1.17123L184.293 0.135416H182.912C179.114 0.480688 174.97 -0.900398 171.172 1.17123H155.635L154.254 2.55232H146.658L140.098 3.58813C137.336 4.27868 134.574 3.9334 132.157 6.00503C129.305 7.20317 126.115 7.32585 123.18 6.35031L119.382 8.42194H118.001L116.965 9.11248C116.038 9.16963 115.132 9.41313 114.302 9.82841C113.471 10.2437 112.733 10.8222 112.131 11.5294H111.786L108.678 12.9105H108.333C107.297 12.5652 106.261 13.601 105.226 13.2557L104.19 14.6368L101.428 16.7085C100.737 15.6726 100.046 16.0179 99.0106 16.0179V18.4348C97.8995 18.0138 96.6911 17.9202 95.5284 18.165C94.3657 18.4098 93.2975 18.9827 92.4505 19.8159H90.0336L85.8903 23.2686H86.5809L83.8187 26.0308H82.4376C81.0306 26.234 79.6957 26.7816 78.5512 27.6248C77.4068 28.4681 76.4883 29.581 75.8774 30.8646C73.8058 32.5909 70.6984 32.9362 69.3173 35.6984H68.2815V37.0795C67.1139 37.1913 65.994 37.5986 65.0275 38.2631C64.061 38.9276 63.2796 39.8273 62.7571 40.8775C61.0284 41.7494 59.6777 43.2228 58.9591 45.0207C57.8202 45.0821 56.7238 45.474 55.8041 46.1485C54.8843 46.823 54.181 47.7509 53.7801 48.8187C50.9763 50.2863 48.6875 52.5751 47.2199 55.3789L46.1841 56.76C46.8746 58.141 49.2915 58.141 51.0179 58.4863C28.1313 81.5419 12.083 110.49 4.65532 142.116C-2.77238 173.741 -1.28878 206.807 8.94134 237.64C19.1715 268.474 37.7477 295.868 62.6071 316.782C87.4666 337.695 117.636 351.308 149.766 356.11C150.051 356.47 150.421 356.754 150.843 356.934C151.265 357.115 151.725 357.188 152.182 357.146H154.599C161.472 358.011 168.389 358.472 175.316 358.527H178.078C178.343 359.184 178.461 359.891 178.423 360.599C173.244 363.706 167.72 355.765 162.541 360.944C163.576 361.98 165.303 361.98 165.303 364.052L181.876 365.433H186.019C185.993 365.088 185.993 364.742 186.019 364.397C188.211 364.413 190.364 363.815 192.234 362.671C194.306 362.325 196.377 366.123 198.104 362.325C201.211 362.325 204.664 363.706 207.081 359.908H207.426C210.533 359.908 213.986 361.98 216.403 358.527L225.38 357.492L226.761 358.182L234.702 353.694H238.155C240.227 354.384 241.608 353.003 242.644 351.277C243.679 349.55 249.894 347.824 254.038 347.824C255.817 347.996 257.611 347.706 259.244 346.98C260.878 346.254 262.296 345.117 263.36 343.681L272.337 337.811C274.754 338.156 275.444 335.394 277.171 335.049C278.897 334.704 280.278 332.287 282.35 331.251L283.386 330.215H283.731C285.112 330.56 285.803 329.525 286.148 328.489L287.529 327.108L295.47 318.131L299.268 314.333L301.685 312.952C303.757 313.297 304.102 310.88 305.483 310.189L308.591 306.391L310.662 305.01C311.729 304.703 312.7 304.13 313.485 303.345C314.27 302.56 314.843 301.589 315.151 300.522V299.831C315.913 299.177 316.505 298.348 316.877 297.414H317.568C318.272 296.985 318.864 296.393 319.294 295.688C318.949 292.58 323.092 291.89 323.092 288.783L326.199 283.949C327.386 283.479 328.41 282.674 329.146 281.632C329.882 280.589 330.298 279.354 330.343 278.079C331.033 276.353 333.105 275.662 332.414 273.245L335.176 270.483V267.376C336.212 267.376 336.903 266.34 337.593 265.649L338.974 263.232L341.391 257.708L342.772 254.255L345.535 248.04L346.57 246.659L347.261 242.861L348.987 238.028C349.52 237.496 349.898 236.83 350.08 236.1C350.263 235.37 350.243 234.604 350.023 233.884C351.749 233.194 351.059 231.467 351.749 230.086C351.654 229.868 351.605 229.633 351.605 229.396C351.605 229.158 351.654 228.923 351.749 228.705V224.562C353.476 222.836 353.131 220.764 353.131 218.692V216.966C355.202 213.859 353.821 209.715 355.202 206.608C356.583 203.5 354.166 204.536 355.547 203.846H356.583V200.393H356.238L356.583 197.631Z" fill="#255A73"/>
<path d="M167.638 130.908C170.522 137.226 175.49 141.359 181.719 144.024C183.565 144.813 185.485 145.635 187.572 145.7C187.812 145.573 188.052 145.446 188.291 145.318C188.491 145.431 188.691 145.541 188.896 145.646C184.374 143.315 181.14 139.53 177.734 136.007C175.373 133.565 172.95 131.4 169.697 130.413C169.012 130.601 168.325 130.764 167.636 130.904C167.636 130.904 167.638 130.906 167.638 130.908Z" fill="#62D2A2"/>
<path d="M174.13 128.916C174.887 129.645 175.352 130.64 176.146 131.326C182.703 136.993 190.356 139.747 198.992 139.695C199.918 139.69 201.062 140.031 201.95 139.229C201.838 139.062 201.788 138.896 201.704 138.877C196.307 137.614 191.703 134.689 187.043 131.887C183.606 129.819 180.115 127.912 175.933 128.113C175.989 128.085 176.039 128.049 176.095 128.021C175.255 128.419 174.398 128.785 173.532 129.125C173.73 129.051 173.934 128.994 174.13 128.916Z" fill="#62D2A2"/>
<path d="M177.974 126.895C178.448 126.569 178.913 126.232 179.343 125.851C179.415 125.881 179.485 125.91 179.547 125.939C183.218 127.641 187.061 128.638 191.121 128.731C193.029 128.966 194.918 128.839 196.797 128.474C200.708 128.109 204.333 126.789 208.252 125.145C207.601 124.917 207.285 124.683 207.015 124.73C201.814 125.614 196.729 124.555 191.608 123.92C188.274 123.506 184.892 122.994 181.663 124.54C181.181 124.931 180.702 125.266 180.247 124.957C180.476 124.707 180.698 124.444 180.906 124.171C182.211 123.242 183.444 122.211 184.593 121.092C185.087 120.811 185.587 120.709 186.275 120.809C194.333 121.968 201.742 120.151 208.514 115.687C209.475 115.054 210.596 114.59 211.309 113.426C210.946 113.456 210.672 113.417 210.444 113.503C205.913 115.237 201.13 115.605 196.376 116.216C193.705 116.559 190.881 116.592 188.583 118.383C187.84 119.289 186.751 119.535 185.736 119.919C186.725 118.852 187.646 117.722 188.483 116.536C188.613 116.352 188.737 116.166 188.861 115.98C185.466 119.824 181.669 123.327 177.974 126.895Z" fill="#62D2A2"/>
<path d="M207.432 104.758C203.755 106.075 199.88 106.892 196.425 108.815C195.044 109.805 193.663 110.796 192.282 111.785C191.872 112.08 191.462 112.368 191.021 112.109C191.08 112.143 191.138 112.167 191.197 112.183C190.91 112.872 190.613 113.554 190.302 114.23C190.3 114.232 190.299 114.235 190.296 114.237C190.631 113.972 191.048 113.784 191.631 113.757C201.205 113.301 208.765 108.755 215.169 101.933C215.51 101.569 215.461 101.25 215.195 100.768C212.695 102.262 210.225 103.758 207.432 104.758Z" fill="#62D2A2"/>
<path d="M150.723 129.983C150.718 129.966 150.707 129.952 150.7 129.935C150.753 130.086 150.793 130.243 150.8 130.42C150.892 132.858 152.143 134.89 153.182 136.977C154.308 139.245 158.08 142.352 160.378 142.861C157.237 139.16 155.851 134.766 153.593 130.84C154.057 130.982 154.546 131.062 155.005 131.129C156.238 131.313 157.502 131.371 158.744 131.46C158.757 131.499 158.772 131.535 158.784 131.575C160.214 136.44 163.056 140.341 166.997 143.45C169.789 145.65 172.844 147.382 176.28 148.276C176.555 147.831 176.404 147.589 176.191 147.454C173.765 145.91 172.251 143.505 170.388 141.419C167.455 138.136 165.605 133.869 161.636 131.523C162.011 131.513 162.386 131.488 162.759 131.464C161.597 131.489 160.422 131.436 159.232 131.297C156.528 130.981 153.645 130.288 150.723 129.983Z" fill="#62D2A2"/>
<path d="M193.127 107.103C193.613 107.099 194.131 106.931 194.582 106.742C195.224 106.704 196.061 106.279 196.484 106.08C196.655 106 196.822 105.909 196.985 105.814C206.948 101.745 214.572 92.5613 216.694 86.2076C215.458 86.7323 214.882 87.8274 214.072 88.5947C209.947 92.4945 204.997 95.2167 200.383 98.4142C197.823 100.19 195.657 102.283 194.182 105.028C193.868 105.311 193.538 105.579 193.188 105.817C193.371 105.694 193.547 105.561 193.719 105.422C193.522 105.986 193.325 106.546 193.127 107.103Z" fill="#62D2A2"/>
<path d="M194.597 98.9902C194.734 98.7741 194.93 98.5772 195.22 98.4096C198.883 96.2945 201.539 93.1172 203.752 89.6249C206.035 86.0209 207.487 82.0433 207.928 77.6967C204.681 84.7747 197.684 89.1066 194.557 96.6882C194.562 96.5381 194.569 96.3879 194.573 96.2377C194.581 95.8953 194.586 95.5391 194.584 95.1774C194.666 94.0255 194.689 92.6942 194.244 91.6164C194.477 91.165 194.817 90.7237 195.294 90.2887C196.414 89.2669 197.171 87.811 197.976 86.4824C201.068 81.3767 202.64 75.8114 202.852 69.8551C202.864 69.498 203.111 69.0127 202.557 68.8863C202.122 68.7865 202.128 69.1629 202.058 69.5007C201.102 74.0946 198.395 77.8899 196.337 81.981C195.573 83.4992 194.753 85.01 193.763 86.888C194.195 90.9004 194.507 94.9293 194.601 98.9911L194.597 98.9902Z" fill="#62D2A2"/>
<path opacity="0.8" d="M193.76 86.8853C193.689 87.0217 193.618 87.1554 193.544 87.2945C193.619 87.1508 193.687 87.0253 193.76 86.8853Z" fill="#62D2A2"/>
<path opacity="0.8" d="M173.129 129.287C173.264 129.236 173.397 129.177 173.531 129.125C173.124 129.275 172.714 129.42 172.301 129.552C172.576 129.462 172.855 129.383 173.129 129.287Z" fill="#62D2A2"/>
<path opacity="0.8" d="M167.634 130.902C167.635 130.902 167.635 130.902 167.634 130.902C167.617 130.863 167.599 130.826 167.582 130.791C167.6 130.826 167.617 130.864 167.634 130.902Z" fill="#62D2A2"/>
<path opacity="0.8" d="M188.863 115.98C188.875 115.963 188.887 115.945 188.898 115.928C188.886 115.946 188.874 115.964 188.863 115.98Z" fill="#62D2A2"/>
<path opacity="0.8" d="M176.175 127.984C176.347 127.896 176.502 127.785 176.671 127.69C176.477 127.798 176.293 127.919 176.095 128.02C176.122 128.008 176.149 127.997 176.175 127.984Z" fill="#62D2A2"/>
<path opacity="0.8" d="M193.124 107.111C193.125 107.108 193.126 107.106 193.127 107.103C193.034 107.104 192.94 107.108 192.851 107.095C192.939 107.109 193.032 107.113 193.124 107.111Z" fill="#62D2A2"/>
<path opacity="0.8" d="M162.767 131.464C162.771 131.464 162.776 131.463 162.78 131.463C162.772 131.464 162.764 131.464 162.757 131.464C162.761 131.464 162.764 131.464 162.767 131.464Z" fill="#62D2A2"/>
<path opacity="0.8" d="M169.705 130.41C169.64 130.39 169.575 130.367 169.509 130.347C169.574 130.366 169.632 130.392 169.696 130.412C169.699 130.412 169.702 130.411 169.705 130.41Z" fill="#62D2A2"/>
<path opacity="0.8" d="M177.912 126.954C177.932 126.934 177.953 126.915 177.974 126.895C177.928 126.927 177.887 126.965 177.84 126.996C177.863 126.982 177.888 126.97 177.912 126.954Z" fill="#62D2A2"/>
<path d="M191.198 112.183C191.139 112.167 191.081 112.143 191.022 112.109C191.766 110.492 192.364 108.815 192.851 107.096C192.94 107.109 193.034 107.104 193.127 107.103C193.325 106.545 193.522 105.986 193.721 105.424C193.548 105.562 193.372 105.695 193.189 105.819C193.396 104.991 193.583 104.154 193.747 103.307C193.98 102.109 194.176 100.901 194.318 99.6888C194.349 99.5661 194.383 99.4452 194.428 99.328C194.432 99.3189 194.437 99.3106 194.441 99.3015C194.484 99.1944 194.533 99.09 194.596 98.9893L194.597 98.9874C194.503 94.9256 194.191 90.8967 193.759 86.8844C193.686 87.0235 193.618 87.1499 193.543 87.2936C191.34 79.7038 187.566 73.2567 186.458 65.8674C185.843 66.0963 185.85 66.4315 185.818 66.7574C185.381 71.2322 185.613 75.6686 186.849 79.9959C188.073 84.2802 189.797 88.3476 192.42 92.0111C193.287 93.2216 193.522 94.7077 193.173 96.5967C190.166 91.4718 186.281 87.2955 183.934 82.0928C184.054 89.385 187.109 95.3221 192.244 100.309C192.27 100.291 192.297 100.279 192.323 100.267C192.384 100.446 192.44 100.625 192.502 100.802C192.508 100.83 192.514 100.858 192.521 100.886C192.525 100.908 192.529 100.93 192.533 100.952C192.51 101.063 192.489 101.174 192.464 101.285C191.796 104.406 191.115 107.508 189.741 110.407C189.719 110.454 189.695 110.5 189.673 110.548C189.295 107.831 188.344 105.337 186.853 102.939C185.066 100.063 183.593 96.9812 182.126 93.9211C181.375 92.3554 181.242 90.5268 180.313 88.7578C179.075 96.2707 180.923 105.158 187.468 112.341C187.51 112.438 187.558 112.534 187.616 112.627C187.704 112.773 187.91 113.115 188.129 113.263C188.134 113.271 188.138 113.279 188.143 113.287C187.133 114.888 185.985 116.407 184.808 117.877C183.939 118.961 183.041 120.023 182.149 121.087C182.114 121.129 182.077 121.168 182.041 121.21C182.121 118.759 182.289 116.319 181.357 113.894C179.935 110.193 178.784 106.389 177.498 102.634C176.778 100.531 176.842 98.2659 176.113 96.1407C174.811 100.573 174.713 105.052 175.36 109.562C176.051 114.383 178.031 118.657 180.817 122.575C180.391 123.049 179.978 123.532 179.615 124.052C177.523 125.36 175.286 126.44 172.959 127.308C173.859 124.336 174.341 121.329 173.692 118.215C173.059 115.168 172.541 112.095 171.818 109.071C171.139 106.234 171.486 103.345 171.257 100.444C171.022 100.545 170.837 100.565 170.805 100.646C167.328 109.42 167.098 118.122 171.467 126.692C171.641 127.035 171.866 127.359 171.956 127.667C170.909 128.028 169.845 128.346 168.77 128.629C168.146 128.751 167.526 128.898 166.921 128.996C165.794 129.178 164.661 129.292 163.523 129.362C163.562 129.178 163.644 128.966 163.747 128.732C164.75 126.467 165.261 124.147 165.259 121.598C165.252 116.452 164.577 111.254 165.947 106.161C165.976 106.053 165.746 105.875 165.599 105.681C161.625 112.1 160.218 118.967 161.354 126.353C161.513 127.391 162.496 128.516 162.215 129.427C160.805 129.479 159.393 129.447 157.984 129.427C157.282 129.417 156.584 129.364 155.888 129.277C155.603 129.241 155.318 129.179 155.033 129.114C154.85 128.98 154.636 128.88 154.403 128.806C154.497 128.571 154.689 128.277 154.971 127.916C155.924 126.694 156.335 125.164 156.698 123.631C157.28 121.174 157.692 118.667 158.64 116.298C158.894 115.663 159.7 115.115 159.061 114.086C156.127 117.499 153.981 121.156 153.428 125.624C153.197 127.486 153.095 128.252 152.437 128.543C152.133 128.524 151.842 128.502 151.583 128.46C150.162 128.232 148.764 127.808 147.391 127.387C146.152 127.008 144.92 126.607 143.689 126.205C142.623 125.856 141.398 125.5 140.467 124.858C140.423 124.828 140.386 124.887 140.361 124.971C140.356 124.969 140.352 124.967 140.347 124.965C140.352 124.968 140.355 124.971 140.36 124.974C140.323 125.097 140.313 125.278 140.345 125.327C140.887 126.131 142.052 126.427 142.907 126.777C144.16 127.29 145.46 127.727 146.746 128.155C146.76 128.159 146.773 128.165 146.786 128.168C146.821 128.179 146.855 128.191 146.89 128.203C147.991 128.568 149.106 128.902 150.234 129.176C150.332 129.284 150.417 129.399 150.495 129.518C150.512 129.544 150.527 129.571 150.543 129.598C150.606 129.703 150.658 129.815 150.7 129.932C150.706 129.949 150.717 129.963 150.722 129.98C153.644 130.285 156.529 130.978 159.23 131.294C160.419 131.433 161.595 131.486 162.757 131.461C162.764 131.461 162.772 131.46 162.779 131.46C163.546 131.409 164.31 131.327 165.074 131.222C165.16 131.21 165.247 131.196 165.334 131.184C166.083 131.075 166.832 130.946 167.582 130.788C167.6 130.823 167.617 130.86 167.635 130.9C168.324 130.76 169.011 130.597 169.696 130.409C169.632 130.39 169.573 130.363 169.508 130.345C170.186 130.178 170.87 129.989 171.552 129.787C171.803 129.713 172.051 129.629 172.3 129.548C172.714 129.415 173.123 129.272 173.53 129.121C174.398 128.782 175.253 128.416 176.093 128.017C176.291 127.916 176.475 127.796 176.669 127.688C177.066 127.466 177.463 127.244 177.839 126.993C177.885 126.962 177.926 126.924 177.972 126.892C181.668 123.324 185.465 119.821 188.861 115.978C188.873 115.961 188.885 115.943 188.897 115.926C189.012 115.799 189.118 115.662 189.221 115.523C189.306 115.408 189.39 115.291 189.475 115.173C189.509 115.126 189.544 115.078 189.578 115.031C189.67 114.904 189.766 114.781 189.866 114.663C189.883 114.643 189.899 114.621 189.916 114.601C190.032 114.468 190.157 114.345 190.296 114.234C190.299 114.232 190.3 114.229 190.302 114.227C190.614 113.554 190.911 112.871 191.198 112.183Z" fill="#62D2A2"/>
<path opacity="0.8" d="M191.198 112.183C191.139 112.167 191.081 112.143 191.022 112.109C191.766 110.492 192.364 108.815 192.851 107.096C192.94 107.109 193.034 107.104 193.127 107.103C193.325 106.545 193.522 105.986 193.721 105.424C193.548 105.562 193.372 105.695 193.189 105.819C193.396 104.991 193.583 104.154 193.747 103.307C193.98 102.109 194.176 100.901 194.318 99.6888C194.349 99.5661 194.383 99.4452 194.428 99.328C194.432 99.3189 194.437 99.3106 194.441 99.3015C194.484 99.1944 194.533 99.09 194.596 98.9893L194.597 98.9874C194.503 94.9256 194.191 90.8967 193.759 86.8844C193.686 87.0235 193.618 87.1499 193.543 87.2936C191.34 79.7038 187.566 73.2567 186.458 65.8674C185.843 66.0963 185.85 66.4315 185.818 66.7574C185.381 71.2322 185.613 75.6686 186.849 79.9959C188.073 84.2802 189.797 88.3476 192.42 92.0111C193.287 93.2216 193.522 94.7077 193.173 96.5967C190.166 91.4718 186.281 87.2955 183.934 82.0928C184.054 89.385 187.109 95.3221 192.244 100.309C192.27 100.291 192.297 100.279 192.323 100.267C192.384 100.446 192.44 100.625 192.502 100.802C192.508 100.83 192.514 100.858 192.521 100.886C192.525 100.908 192.529 100.93 192.533 100.952C192.51 101.063 192.489 101.174 192.464 101.285C191.796 104.406 191.115 107.508 189.741 110.407C189.719 110.454 189.695 110.5 189.673 110.548C189.295 107.831 188.344 105.337 186.853 102.939C185.066 100.063 183.593 96.9812 182.126 93.9211C181.375 92.3554 181.242 90.5268 180.313 88.7578C179.075 96.2707 180.923 105.158 187.468 112.341C187.51 112.438 187.558 112.534 187.616 112.627C187.704 112.773 187.91 113.115 188.129 113.263C188.134 113.271 188.138 113.279 188.143 113.287C187.133 114.888 185.985 116.407 184.808 117.877C183.939 118.961 183.041 120.023 182.149 121.087C182.114 121.129 182.077 121.168 182.041 121.21C182.121 118.759 182.289 116.319 181.357 113.894C179.935 110.193 178.784 106.389 177.498 102.634C176.778 100.531 176.842 98.2659 176.113 96.1407C174.811 100.573 174.713 105.052 175.36 109.562C176.051 114.383 178.031 118.657 180.817 122.575C180.391 123.049 179.978 123.532 179.615 124.052C177.523 125.36 175.286 126.44 172.959 127.308C173.859 124.336 174.341 121.329 173.692 118.215C173.059 115.168 172.541 112.095 171.818 109.071C171.139 106.234 171.486 103.345 171.257 100.444C171.022 100.545 170.837 100.565 170.805 100.646C167.328 109.42 167.098 118.122 171.467 126.692C171.641 127.035 171.866 127.359 171.956 127.667C170.909 128.028 169.845 128.346 168.77 128.629C168.146 128.751 167.526 128.898 166.921 128.996C165.794 129.178 164.661 129.292 163.523 129.362C163.562 129.178 163.644 128.966 163.747 128.732C164.75 126.467 165.261 124.147 165.259 121.598C165.252 116.452 164.577 111.254 165.947 106.161C165.976 106.053 165.746 105.875 165.599 105.681C161.625 112.1 160.218 118.967 161.354 126.353C161.513 127.391 162.496 128.516 162.215 129.427C160.805 129.479 159.393 129.447 157.984 129.427C157.282 129.417 156.584 129.364 155.888 129.277C155.603 129.241 155.318 129.179 155.033 129.114C154.85 128.98 154.636 128.88 154.403 128.806C154.497 128.571 154.689 128.277 154.971 127.916C155.924 126.694 156.335 125.164 156.698 123.631C157.28 121.174 157.692 118.667 158.64 116.298C158.894 115.663 159.7 115.115 159.061 114.086C156.127 117.499 153.981 121.156 153.428 125.624C153.197 127.486 153.095 128.252 152.437 128.543C152.133 128.524 151.842 128.502 151.583 128.46C150.162 128.232 148.764 127.808 147.391 127.387C146.152 127.008 144.92 126.607 143.689 126.205C142.623 125.856 141.398 125.5 140.467 124.858C140.423 124.828 140.386 124.887 140.361 124.971C140.356 124.969 140.352 124.967 140.347 124.965C140.352 124.968 140.355 124.971 140.36 124.974C140.323 125.097 140.313 125.278 140.345 125.327C140.887 126.131 142.052 126.427 142.907 126.777C144.16 127.29 145.46 127.727 146.746 128.155C146.76 128.159 146.773 128.165 146.786 128.168C146.821 128.179 146.855 128.191 146.89 128.203C147.991 128.568 149.106 128.902 150.234 129.176C150.332 129.284 150.417 129.399 150.495 129.518C150.512 129.544 150.527 129.571 150.543 129.598C150.606 129.703 150.658 129.815 150.7 129.932C150.706 129.949 150.717 129.963 150.722 129.98C153.644 130.285 156.529 130.978 159.23 131.294C160.419 131.433 161.595 131.486 162.757 131.461C162.764 131.461 162.772 131.46 162.779 131.46C163.546 131.409 164.31 131.327 165.074 131.222C165.16 131.21 165.247 131.196 165.334 131.184C166.083 131.075 166.832 130.946 167.582 130.788C167.6 130.823 167.617 130.86 167.635 130.9C168.324 130.76 169.011 130.597 169.696 130.409C169.632 130.39 169.573 130.363 169.508 130.345C170.186 130.178 170.87 129.989 171.552 129.787C171.803 129.713 172.051 129.629 172.3 129.548C172.714 129.415 173.123 129.272 173.53 129.121C174.398 128.782 175.253 128.416 176.093 128.017C176.291 127.916 176.475 127.796 176.669 127.688C177.066 127.466 177.463 127.244 177.839 126.993C177.885 126.962 177.926 126.924 177.972 126.892C181.668 123.324 185.465 119.821 188.861 115.978C188.873 115.961 188.885 115.943 188.897 115.926C189.012 115.799 189.118 115.662 189.221 115.523C189.306 115.408 189.39 115.291 189.475 115.173C189.509 115.126 189.544 115.078 189.578 115.031C189.67 114.904 189.766 114.781 189.866 114.663C189.883 114.643 189.899 114.621 189.916 114.601C190.032 114.468 190.157 114.345 190.296 114.234C190.299 114.232 190.3 114.229 190.302 114.227C190.614 113.554 190.911 112.871 191.198 112.183Z" fill="#62D2A2"/>
<path opacity="0.4" d="M187.554 145.709C187.626 145.712 187.699 145.707 187.772 145.708C187.705 145.708 187.639 145.702 187.572 145.699C187.566 145.703 187.559 145.707 187.554 145.709Z" fill="#62D2A2"/>
<path d="M187.572 145.7C187.639 145.702 187.705 145.708 187.772 145.709C187.862 145.71 187.952 145.71 188.043 145.708C188.325 145.701 188.608 145.686 188.896 145.646C188.691 145.541 188.491 145.431 188.291 145.318C188.052 145.446 187.812 145.573 187.572 145.7Z" fill="#62D2A2"/>
<path opacity="0.4" d="M187.572 145.7C187.639 145.702 187.705 145.708 187.772 145.709C187.862 145.71 187.952 145.71 188.043 145.708C188.325 145.701 188.608 145.686 188.896 145.646C188.691 145.541 188.491 145.431 188.291 145.318C188.052 145.446 187.812 145.573 187.572 145.7Z" fill="#62D2A2"/>
<path d="M122.53 237.871L122.884 238.225C121.113 240.881 118.281 243.536 118.281 246.723C118.281 250.264 113.324 257.522 110.845 260.355L111.022 260.886C108.367 264.958 102.347 276.112 96.1508 276.112C92.787 276.112 91.9018 273.633 89.7773 272.925C85.5284 271.509 85.5284 257.345 85.5284 253.628C85.5284 251.149 85.7054 248.67 86.5906 246.192C86.5906 245.307 87.6528 242.651 87.6528 242.297C87.6528 242.12 87.4758 241.766 87.2988 241.766C87.2988 239.464 88.0069 237.34 88.361 234.684V234.507L89.0692 232.56C89.6003 231.143 89.7773 229.727 89.7773 228.311C89.7773 225.655 91.1936 222.646 91.9018 219.99C93.1411 215.564 93.8492 210.607 96.3278 206.358C96.3278 205.296 91.9018 205.296 91.1936 205.296C90.4855 205.296 88.8921 205.473 87.4758 205.473C85.1743 205.473 83.0498 204.942 83.0498 202.817C83.0498 202.109 84.9972 202.109 85.3513 202.109H88.8921C93.1411 202.109 98.9834 201.755 99.3375 198.745C99.6916 195.558 102.701 192.195 103.055 188.123C103.586 184.228 106.419 180.51 107.304 176.615C107.658 174.845 109.96 172.012 109.96 170.95C109.96 169.533 110.491 167.055 112.084 167.055C115.802 167.055 120.051 172.012 120.051 175.199C120.051 176.615 118.281 177.323 118.281 179.448C115.271 185.467 113.855 192.372 110.668 197.86L111.376 198.568C113.147 198.568 114.563 198.568 116.333 198.922C116.333 199.984 111.376 201.047 110.668 201.401C108.721 202.286 105.711 210.607 105.711 212.731C105.711 212.731 106.065 212.908 106.065 213.085C104.295 214.679 98.9834 233.268 98.4523 236.278C98.0982 238.402 98.2753 245.661 96.6819 247.254C96.6819 253.273 95.6196 259.47 95.6196 265.489V266.02C95.6196 266.551 95.6196 266.728 96.5049 267.26H96.3278C96.3278 267.437 102.878 263.011 109.783 252.565C109.96 252.388 111.73 249.202 113.678 249.202H114.209C114.563 249.202 114.74 249.024 114.74 248.139C114.386 248.139 113.855 248.139 113.678 248.67L113.324 248.493C113.324 245.838 119.166 244.598 119.166 241.058C119.166 240.35 119.166 240.35 119.52 240.35H119.697C119.874 240.35 120.051 240.35 120.405 239.641H120.051C120.936 239.11 121.113 237.871 122.53 237.871ZM93.1411 252.211L93.3181 251.503L92.964 250.972L91.9018 251.68C91.1936 251.68 91.1936 249.733 91.1936 249.379C91.1936 248.139 91.5477 247.785 91.9018 246.723C91.7248 246.369 91.5477 246.015 91.5477 245.838C91.5477 244.776 92.61 244.776 92.61 243.536C92.61 243.005 92.4329 242.474 91.9018 241.943C91.3707 241.943 89.6003 249.733 89.6003 252.211C89.7773 252.388 90.1314 253.096 90.4855 253.45C90.1314 253.805 89.4232 255.221 89.4232 255.221C89.4232 256.991 89.6003 258.585 89.6003 260.178C89.0692 260.886 89.0692 262.125 89.0692 262.834V263.188C89.4232 263.719 89.6003 266.728 90.4855 266.728C90.4855 266.551 90.6625 265.843 90.8396 265.843C91.1936 266.551 91.3707 267.26 91.9018 267.968C92.61 267.968 92.787 267.968 92.787 267.26C92.4329 267.083 91.9018 266.729 91.9018 266.374C92.4329 266.197 92.964 265.666 92.964 265.135C92.964 263.896 92.0788 262.834 92.0788 261.594C92.0788 260.178 92.787 258.585 92.787 256.991C92.787 256.106 92.61 255.044 92.61 254.159C92.61 253.45 92.787 252.742 93.1411 252.211ZM95.2656 229.55C95.6196 229.196 96.5049 226.717 96.5049 226.186C96.5049 224.062 98.0982 223.354 98.0982 223C97.5671 222.468 97.39 221.937 97.39 221.229C97.7441 221.052 97.7441 220.698 97.7441 220.521C97.7441 220.167 97.7441 219.813 97.5671 219.813C96.1508 219.813 96.3278 224.239 95.4426 225.478C95.4426 225.832 95.6196 226.186 95.6196 226.717C95.6196 227.603 93.3181 230.612 93.3181 231.143C93.3181 231.498 93.4952 231.675 93.4952 231.852C92.0788 232.56 91.9018 237.517 91.9018 238.402C91.9018 238.756 92.0788 239.11 92.0788 239.464L91.3707 240.35C91.5477 240.881 91.9018 241.235 92.4329 241.235C92.4329 241.235 95.0885 235.215 95.0885 232.914L94.9115 232.56L95.6196 230.612C95.4426 230.435 95.2656 229.904 95.2656 229.55ZM91.5477 260.001C91.3707 260.178 91.3707 260.532 91.3707 260.886C91.3707 261.417 91.5477 261.948 91.5477 262.48C91.5477 263.011 91.3707 263.365 91.0166 263.365C91.0166 263.365 90.4855 263.365 90.4855 263.188C90.4855 261.417 91.0166 259.647 91.0166 257.876L91.5477 258.585V260.001ZM100.931 210.607C100.223 210.607 99.6916 211.669 99.5145 212.023L100.046 213.085L102.17 211.315C102.17 210.784 101.285 210.607 100.931 210.607ZM125.008 233.976C125.894 233.268 126.602 232.029 127.664 231.32L127.841 231.852C127.487 232.56 126.425 234.684 125.539 234.684C125.185 234.684 125.185 234.684 125.185 234.507C125.185 234.33 125.185 234.153 125.008 233.976ZM92.0788 230.258C91.9018 230.435 91.5477 230.966 91.1936 231.32V232.029C91.1936 232.383 91.1936 233.091 91.7248 233.091C92.0788 232.56 92.4329 231.143 92.4329 230.435L92.0788 230.258ZM105.357 262.834C105.18 262.302 105.18 261.948 104.826 261.594C104.472 261.594 104.295 261.948 104.295 262.302L104.472 263.011L105.357 262.834ZM101.462 207.243L101.108 207.774C101.108 208.128 101.285 208.305 101.462 208.482L102.17 208.128L101.816 207.066L101.462 207.243ZM91.5477 253.45C91.1936 253.096 91.1936 252.919 90.8396 252.565L91.1936 252.388L91.9018 252.742V253.096C91.9018 253.273 91.9018 253.45 91.7248 253.45H91.5477ZM95.4426 218.574C95.0885 218.574 95.0885 219.282 95.0885 219.636V219.813L95.7967 219.105C95.7967 219.105 95.7967 218.574 95.4426 218.574ZM93.8492 242.474C94.2033 242.474 94.3804 242.651 94.3804 242.651L94.7344 242.297L94.5574 241.943C94.2033 241.943 93.8492 241.943 93.8492 242.474ZM92.787 250.441L93.1411 250.264L92.787 249.556L92.4329 250.264L92.787 250.441ZM98.9834 214.679L99.3375 213.794L98.8064 214.502L98.9834 214.679ZM95.6196 236.809L95.4426 236.455L95.0885 236.809V237.163C95.2656 236.986 95.4426 236.809 95.6196 236.809ZM98.9834 215.564L98.6293 216.095L98.8064 216.449L98.9834 216.272V215.564ZM90.4855 268.676L91.0166 268.322L90.4855 268.145L90.1314 268.499L90.4855 268.676ZM129.434 229.55L129.788 229.727C129.788 229.904 129.611 230.081 129.434 230.081L129.08 229.727L129.434 229.55ZM99.1604 207.597V207.774H99.6916C99.6916 207.42 99.6916 207.243 99.3375 207.243L99.1604 207.597ZM89.0692 239.641L89.4232 239.464L88.8921 239.11V239.287L89.0692 239.641ZM93.1411 248.139C93.1411 248.139 93.1411 248.316 93.3181 248.316H93.4952C93.4952 248.139 93.4952 247.962 93.3181 247.785L93.1411 248.139ZM97.036 230.612L97.213 230.435C97.213 230.258 97.036 230.258 96.8589 230.081C96.8589 230.435 96.8589 230.435 97.036 230.612ZM112.793 254.513L112.97 254.336H112.438L112.793 254.513ZM128.195 231.143C128.018 231.143 127.841 231.32 127.664 231.32C127.841 231.143 128.018 231.143 128.195 231.143ZM94.2033 244.244L94.3804 244.067C94.3804 243.89 94.3804 243.89 94.2033 243.89V244.244ZM101.108 209.722C100.931 209.722 100.931 209.899 100.754 209.899H100.931C100.931 209.899 101.108 209.899 101.108 209.722ZM175.783 234.507L176.492 235.746C171.889 241.589 165.869 246.723 159.85 250.972C158.079 252.211 152.414 254.513 152.06 256.283L152.945 256.637L151.529 257.699L151.706 257.876C154.007 257.345 155.247 255.752 157.194 254.867L159.319 255.752C158.611 256.46 157.548 257.345 156.309 258.054L157.017 258.585C155.424 259.47 154.007 260.532 152.414 261.594C151.352 262.302 141.261 265.843 140.198 265.843C130.107 265.843 121.963 260.886 121.963 253.45C121.963 248.139 122.317 241.058 125.15 236.278C124.619 236.809 127.628 233.268 127.628 230.789C127.628 225.478 140.021 211.315 143.562 207.42C146.218 204.41 149.758 203.525 154.007 203.525C160.735 203.525 166.046 208.482 166.046 214.502C166.046 223.354 162.682 221.937 161.62 225.478C159.496 232.029 146.749 238.048 139.667 238.048C138.605 238.048 137.72 237.871 136.658 237.871C134.179 237.871 133.471 245.661 132.232 246.546V247.254C132.232 249.202 131.7 253.628 131.7 255.221C131.7 256.991 131.7 262.125 134.533 262.125C151.883 262.125 158.965 243.89 171.357 238.048C172.774 237.34 175.606 235.924 175.783 234.507ZM137.72 232.56V233.268C137.72 233.622 137.72 234.684 138.428 234.684C139.313 234.684 142.677 232.914 143.562 232.383C145.51 232.383 157.371 223.354 157.548 221.937C157.902 219.813 159.142 217.688 159.142 215.564C159.142 214.148 158.788 207.774 156.309 207.774C150.998 207.774 144.447 223.531 141.261 225.832C140.552 227.957 139.313 230.966 137.72 232.56ZM162.151 214.148C161.62 214.148 159.496 217.865 159.496 218.397C159.496 218.928 159.673 219.636 160.204 219.636C161.266 218.22 162.151 216.272 162.505 214.679L162.682 214.325L162.151 214.148ZM125.15 244.067C125.327 243.182 125.858 242.12 126.389 241.412C126.389 241.235 126.389 240.527 126.035 240.527C125.681 240.527 125.15 242.828 124.796 243.182C124.796 243.536 124.796 243.89 125.15 244.067ZM153.122 259.47L152.945 259.647C153.122 259.647 153.299 259.824 153.299 259.824C154.007 259.824 155.247 258.939 155.601 258.762L155.424 258.408C154.185 258.408 154.007 259.47 153.122 259.47ZM171.18 236.986V236.809C171.889 236.101 172.951 235.569 173.659 234.861C173.482 235.924 172.066 236.809 171.18 236.986ZM125.327 249.379C125.327 249.202 125.858 248.67 125.858 248.493C125.858 248.316 125.858 247.962 125.681 247.785C124.973 247.785 124.796 248.493 124.796 248.847C124.796 249.202 125.15 249.379 125.327 249.379ZM127.097 238.402L127.628 237.694L127.451 237.34L126.743 237.694V238.579L127.097 238.402ZM124.796 245.661C124.796 245.484 124.442 244.953 124.442 244.776L124.265 245.484C124.265 245.838 124.265 246.015 124.442 246.369C124.619 246.192 124.796 246.015 124.796 245.661ZM131.7 227.78C131.7 227.603 131.523 227.603 131.523 227.426L130.815 227.78L130.992 228.311L131.7 227.78ZM131.169 226.894C131.523 226.717 131.523 226.363 131.7 226.186L131.523 225.832C131.169 226.186 130.992 226.363 130.815 226.894H131.169ZM127.806 247.254L128.337 246.723L127.806 246.546V247.254ZM174.898 234.33V234.507C174.544 234.684 174.013 234.684 173.659 234.861C174.367 234.507 174.013 234.33 174.898 234.33ZM124.265 248.139H124.442C124.442 247.962 124.265 247.608 124.088 247.431L123.911 248.139H124.265ZM132.054 238.579V237.694C131.877 238.048 131.7 238.225 131.7 238.756L132.054 238.579ZM132.763 228.311H132.409L132.586 228.665C132.763 228.488 132.94 228.488 132.94 228.311H132.763ZM126.566 239.641H126.743L126.566 239.464H126.743L126.566 239.287V239.641ZM197.347 237.694L197.17 237.517C198.409 236.809 199.648 235.392 200.18 233.976L200.002 233.799C200.18 232.206 202.304 230.258 203.543 229.196L203.366 228.842L203.543 228.488L203.897 228.842L204.783 227.603L204.428 227.249L204.96 226.717C204.96 224.239 210.625 218.397 212.749 216.98C213.458 216.803 214.166 216.449 214.874 216.449L215.051 216.626C215.759 216.626 216.113 215.741 216.998 215.741V215.918C217.352 215.564 218.061 215.21 218.946 215.21V215.564L219.654 215.21L220.539 215.387L221.07 215.21C221.247 216.272 221.955 216.095 221.955 217.157C221.955 218.042 221.424 219.282 221.247 220.167V220.344C219.654 223.885 217.529 228.842 216.998 232.56C216.644 236.101 216.29 240.172 215.051 243.359C215.051 243.536 215.051 243.89 214.697 243.89C214.166 243.89 214.166 245.838 214.166 246.192C214.166 248.493 213.458 250.441 213.458 252.742C213.458 253.805 213.812 259.47 215.759 259.47L216.998 258.585C217.529 258.585 217.175 259.47 217.884 259.47C217.884 260.001 217.352 259.647 217.175 260.355C217.352 260.532 217.706 260.709 217.706 261.063L217.352 261.948V262.302C216.998 262.302 216.644 262.834 216.644 263.011L216.821 263.188C216.821 263.719 216.113 263.719 215.759 263.896L215.582 263.542L214.697 264.073H214.166C213.635 264.073 213.103 264.427 212.572 264.427C211.864 264.073 211.51 263.719 210.979 263.719L210.802 263.896C209.74 263.719 207.969 262.302 207.261 261.771C205.137 260.709 204.96 258.762 204.96 256.637C204.96 255.575 204.074 254.513 204.074 253.45C204.074 251.68 204.96 249.556 204.96 247.431L204.783 247.254L204.96 246.723C204.96 244.067 205.668 242.474 205.668 240.172C205.668 239.995 205.314 239.464 205.314 239.287C205.137 241.058 201.773 243.182 201.242 244.776C199.825 246.723 198.409 248.493 197.17 250.264C192.213 253.805 193.275 254.336 189.734 257.522C188.495 258.762 186.902 259.647 185.485 260.709V260.532C182.476 260.532 180.174 262.125 177.164 262.125C176.987 262.125 176.102 261.594 175.748 261.594L175.04 261.771C172.561 258.939 171.322 256.106 171.322 252.565C171.322 248.139 172.738 243.713 174.332 239.464C175.748 235.569 177.695 231.852 179.997 228.311C180.705 227.072 181.59 225.832 182.298 224.77L183.184 223.354C183.184 223.354 183.892 223.177 183.892 223L186.193 218.22C186.193 218.042 187.61 216.803 187.61 216.626C187.61 215.918 196.639 209.368 198.055 208.482C199.825 208.482 201.596 207.774 203.012 207.066C203.012 207.066 204.96 206.181 205.314 206.181C205.491 206.181 205.314 206.181 205.314 206.358C205.845 206.181 207.438 205.827 208.854 205.827C209.209 205.827 209.563 205.827 209.74 206.004L209.563 205.65C212.749 205.65 215.936 208.659 217.884 210.784C218.061 211.138 218.238 211.315 218.769 211.315L218.592 211.492L218.946 212.023V212.2L218.061 212.023L217.706 212.377C217.706 213.262 218.946 213.439 218.946 213.971L218.061 213.439L216.998 213.794C216.998 214.502 218.061 214.679 218.946 214.856C215.051 213.971 214.697 214.325 211.333 212.2C210.094 211.492 208.854 209.545 207.438 209.545C207.261 209.545 204.074 210.43 203.72 210.607C204.251 210.076 204.96 209.899 205.668 209.545C204.783 209.545 200.357 211.669 200.357 212.554H201.242C201.065 213.439 199.117 215.741 198.055 215.918L198.409 216.272L198.055 216.449L198.586 216.98C197.347 217.865 195.576 219.813 195.576 221.229C194.691 221.937 191.505 227.603 191.328 228.665C189.734 229.55 187.964 233.445 187.433 235.215V235.038C184.6 238.225 179.997 250.618 179.643 255.221C179.997 255.575 179.466 255.929 180.174 255.929C181.59 254.336 184.6 251.503 186.902 250.972H187.61L187.964 250.264H187.787C187.964 249.733 189.203 248.67 189.38 248.139V248.316C189.38 246.9 190.442 245.307 192.036 244.776H191.859C192.036 243.89 194.16 243.713 194.16 242.12L193.983 241.943L194.868 241.412H194.691C194.868 240.172 195.931 238.933 197.17 238.225L197.347 237.694ZM197.17 215.564C197.878 214.679 199.471 211.492 201.065 211.315C200.18 212.908 198.055 214.148 197.17 215.741V215.564ZM201.419 212.377L201.242 212.2C201.419 212.023 201.773 211.492 201.95 211.315L202.304 211.669C202.304 212.023 201.773 212.2 201.419 212.377ZM203.72 210.607C203.366 210.784 203.012 211.138 202.481 211.315C202.835 210.961 203.366 210.607 203.72 210.607ZM180.882 227.957C181.059 227.78 181.236 227.603 181.236 227.426C180.882 227.426 180.882 227.78 180.882 227.957ZM219.123 214.679H218.769C218.061 214.679 217.529 214.502 217.352 214.325C217.884 214.325 218.592 214.679 219.123 214.679ZM188.495 249.556H188.849V249.379L188.495 249.556ZM203.543 230.789H203.897L204.074 230.612C203.897 230.612 203.72 230.612 203.543 230.789ZM188.495 249.556L188.318 249.91V250.087C188.495 249.91 188.495 249.733 188.495 249.556ZM206.199 246.015V246.369L206.376 246.192L206.199 246.015ZM203.897 228.134H203.72L203.897 227.957C204.074 227.957 204.074 227.957 204.074 227.78C204.074 227.957 204.074 227.957 203.897 228.134ZM203.543 228.311C203.543 228.134 203.543 228.134 203.72 228.134C203.72 228.311 203.72 228.311 203.543 228.311ZM186.902 250.795L187.433 250.618C187.256 250.795 187.256 250.795 186.902 250.795ZM257.682 226.186L258.036 225.832H257.682L258.213 225.478L259.098 225.655L259.453 225.124C259.807 226.009 259.807 226.363 260.869 226.363C261.577 226.363 262.285 226.186 263.17 226.009C263.17 225.655 268.127 224.593 270.783 222.823C271.137 222.823 271.668 223.354 272.022 223.708C271.668 223.708 271.314 223.885 270.96 224.062C271.668 225.301 273.262 226.717 273.97 227.603H273.262C273.262 228.311 272.908 229.019 272.022 229.373L272.199 229.727C272.199 230.081 271.668 230.258 271.314 230.435L270.96 230.081C270.075 230.435 267.065 231.143 265.472 231.143C264.941 231.143 264.587 231.143 264.233 230.966C263.879 230.966 263.17 231.143 262.816 231.143H261.223C260.869 231.32 260.338 231.32 259.984 231.32L259.63 231.143C258.921 231.143 256.974 231.143 256.443 231.498C256.089 231.498 255.558 231.143 255.381 231.143C253.964 231.143 248.476 231.32 248.476 232.914C248.476 233.445 248.653 233.976 248.653 234.153C248.653 234.684 248.476 234.861 247.768 235.569L248.122 236.101C247.945 236.455 247.945 236.809 247.768 237.34L247.945 237.694C247.591 238.933 247.591 241.058 247.414 242.474C246.706 252.211 247.414 247.962 243.519 249.91C241.749 249.91 239.978 248.139 239.978 246.9C239.978 242.297 240.509 240.881 242.28 236.809L242.103 236.101L242.457 235.569C242.457 235.392 242.28 235.215 242.28 234.861C242.28 234.684 242.457 234.153 242.634 233.976L242.457 233.799C241.749 233.799 241.394 236.101 241.217 236.809C241.571 235.569 241.571 234.33 241.571 233.268L241.394 232.914C237.5 232.914 234.136 234.153 230.241 234.153C228.116 234.153 228.116 231.852 228.116 230.435C228.116 226.009 233.605 225.478 237.5 225.478C237.677 225.478 237.854 225.655 237.854 226.009V226.186C238.208 226.186 238.562 225.832 238.739 225.478L239.978 226.363C240.509 226.363 240.509 226.009 241.217 225.832L240.509 225.655L241.571 225.478C241.926 225.478 242.28 225.478 242.28 225.832L243.165 225.655L242.811 225.478C243.696 224.77 243.696 223.354 244.05 222.823L243.873 222.114C245.997 219.105 245.997 207.066 248.122 207.066C248.653 207.066 249.361 207.774 250.069 207.774H251.486C253.256 207.774 253.079 207.774 254.495 209.19C254.495 211.315 253.079 213.794 253.079 216.272C252.902 219.105 250.601 221.583 250.601 224.593C250.601 225.832 251.486 226.894 253.079 226.894C253.61 226.54 254.141 226.186 254.849 226.009L255.204 226.717C256.089 226.717 256.974 226.363 257.682 226.009V226.186ZM244.404 239.641V239.464V238.756C244.404 237.517 245.289 235.924 245.289 234.684C244.758 235.038 244.227 238.048 243.873 239.641H244.404ZM246.352 224.416L245.997 224.062V224.416C245.997 224.77 245.997 224.947 246.352 225.124C246.706 224.062 246.706 223 247.591 222.114L247.414 221.937C246.529 222.646 246.706 223.531 246.352 224.416ZM242.811 242.474V243.359L243.165 243.182C243.165 242.651 242.811 242.12 242.811 241.766V242.474ZM252.548 225.478C252.371 225.124 252.194 224.77 252.194 224.416L252.902 225.124L252.548 225.478ZM244.758 224.593V225.478L245.289 224.416L244.758 224.593ZM242.811 239.464V239.995H243.342C243.165 239.641 242.811 239.641 242.811 239.464ZM247.414 220.875L246.883 221.229L247.237 221.76L247.591 221.406C247.414 221.229 247.414 221.052 247.414 220.875ZM257.682 224.416H257.151C257.151 224.416 256.974 224.416 256.974 224.239L257.682 224.416ZM245.643 221.76L245.466 221.937H245.643L245.82 221.76L245.643 221.406V221.76ZM259.275 225.478V225.124V225.301V225.478ZM267.065 225.655C267.065 225.478 267.065 225.478 266.888 225.301L266.711 225.478L267.065 225.655ZM260.869 224.062H260.161C260.338 224.062 260.692 224.062 260.692 223.885L260.869 224.062ZM245.466 237.34C245.643 237.163 245.643 236.986 245.643 236.809L245.289 237.34H245.466ZM267.773 225.124H267.95C268.127 225.124 268.305 224.947 268.305 224.947C267.95 224.947 267.95 224.947 267.773 225.124ZM265.118 225.124C264.941 225.124 264.941 225.124 264.941 225.301L265.118 225.124ZM244.935 232.383H244.758V232.56L244.935 232.383Z" fill="#62D2A2"/>
<path d="M107.835 285.72H111.114V299.736H109.268V288.645L107.521 299.775H106.795L106.618 299.736L106.461 299.775H105.735L104.007 288.645V299.736H102.143V285.72H105.441L106.638 293.65L107.835 285.72ZM115.492 299.795C114.02 299.795 112.842 298.597 112.842 297.145V288.331C112.842 286.878 114.02 285.7 115.492 285.7C116.945 285.7 118.122 286.878 118.122 288.331V297.145C118.122 298.597 116.945 299.795 115.492 299.795ZM115.492 287.565C115.06 287.565 114.726 287.918 114.726 288.331V297.145C114.726 297.577 115.06 297.91 115.492 297.91C115.904 297.91 116.257 297.577 116.257 297.145V288.331C116.257 287.918 115.904 287.565 115.492 287.565ZM125.229 299.814H123.227L122.147 296.85H121.715V299.814H119.85V285.759H122.775C124.071 285.759 125.111 286.799 125.111 288.095V294.514C125.111 295.358 124.679 296.085 124.012 296.497L125.229 299.814ZM121.715 287.624V294.985H122.775C123.03 294.985 123.246 294.769 123.246 294.514V288.095C123.246 287.84 123.03 287.624 122.775 287.624H121.715ZM131.531 292.375H128.822V297.91H131.551V299.775H126.957V285.759H131.551V287.624H128.822V290.51H131.531V292.375ZM144.743 285.72V287.604H142.407V299.795H140.523V287.604H137.951V285.72H144.743ZM149.671 285.759H151.536V299.756H149.671V292.355H148.002V299.756H146.138V285.759H148.002V290.51H149.671V285.759ZM158.152 299.775L157.445 294.926H155.463L154.815 299.775H152.93L155.05 285.739H157.583L160.037 299.775H158.152ZM155.718 293.062H157.17L156.424 287.958L155.718 293.062ZM166.319 296.556L166.397 285.68H168.282L168.164 299.854H165.239L163.649 288.88V299.854H161.764V285.68H164.807L166.319 296.556ZM177.47 299.775C175.939 299.775 174.682 298.539 174.682 296.988V295.555H176.547V296.988C176.547 297.498 176.96 297.91 177.47 297.91C177.98 297.91 178.373 297.498 178.373 296.988V285.7H180.257V296.988C180.257 298.539 179.001 299.775 177.47 299.775ZM184.871 299.814C183.281 299.814 181.985 298.519 181.985 296.929V285.779H183.85V296.929C183.85 297.498 184.302 297.969 184.871 297.969C185.44 297.969 185.892 297.498 185.892 296.929V285.779H187.757V296.929C187.757 298.519 186.461 299.814 184.871 299.814ZM192.174 299.893C190.682 299.893 189.485 298.676 189.485 297.204V295.064H191.389V297.204C191.389 297.635 191.742 297.989 192.174 297.989C192.606 297.989 192.94 297.635 192.94 297.204V295.339L189.485 290.568V288.134C189.485 286.642 190.682 285.425 192.174 285.425C193.646 285.425 194.844 286.642 194.844 288.134V290.254H192.94V288.134C192.94 287.683 192.606 287.349 192.174 287.349C191.742 287.349 191.389 287.683 191.389 288.134V289.921L194.844 294.691V297.204C194.844 298.676 193.646 299.893 192.174 299.893ZM202.756 285.72V287.604H200.419V299.795H198.535V287.604H195.963V285.72H202.756ZM214.378 299.775L213.671 294.926H211.688L211.041 299.775H209.156L211.276 285.739H213.809L216.262 299.775H214.378ZM211.944 293.062H213.396L212.65 287.958L211.944 293.062ZM225.117 299.795H222.663V285.798H225.117C226.785 285.798 228.12 287.153 228.12 288.821V296.772C228.12 297.577 227.806 298.342 227.237 298.911C226.668 299.481 225.922 299.795 225.117 299.795ZM224.528 287.683V297.91H225.117C225.411 297.91 225.706 297.793 225.922 297.577C226.137 297.361 226.255 297.086 226.255 296.772V288.821C226.255 288.193 225.745 287.683 225.117 287.683H224.528ZM235.227 299.814H233.225L232.145 296.85H231.713V299.814H229.848V285.759H232.773C234.069 285.759 235.109 286.799 235.109 288.095V294.514C235.109 295.358 234.677 296.085 234.01 296.497L235.227 299.814ZM231.713 287.624V294.985H232.773C233.028 294.985 233.244 294.769 233.244 294.514V288.095C233.244 287.84 233.028 287.624 232.773 287.624H231.713ZM238.82 285.72V299.697H236.955V285.72H238.82ZM245.102 296.556L245.181 285.68H247.065L246.947 299.854H244.022L242.432 288.88V299.854H240.548V285.68H243.591L245.102 296.556ZM252.974 299.697L250.913 291.962L250.619 292.453V299.756H248.793V285.759H250.619V288.802L251.836 285.759H254.093L252.228 289.803L254.879 299.697H252.974Z" fill="#62D2A2"/>
</g>
<defs>
<clipPath id="clip0_502_141">
<rect width="357.061" height="365.433" fill="white"/>
</clipPath>
</defs>
</svg>
