<svg width="271" height="34" viewBox="0 0 271 34" fill="none" xmlns="http://www.w3.org/2000/svg">
<path d="M31.7764 21.8438C32.0368 21.8438 32.167 22.0312 32.167 22.4062C32.167 22.7708 32.0993 23.0729 31.9639 23.3125C31.8285 23.5521 31.6722 23.7708 31.4951 23.9688C31.318 24.1667 31.0941 24.3542 30.8232 24.5312C30.1878 24.9479 29.516 25.1562 28.8076 25.1562C28.1097 25.1562 27.5524 25.0729 27.1357 24.9062C26.7295 24.7292 26.3753 24.4688 26.0732 24.125C25.4274 23.4062 25.1045 22.4115 25.1045 21.1406C25.1045 19.7865 25.3649 18.1354 25.8857 16.1875C26.4066 14.2292 26.9066 12.5573 27.3857 11.1719C27.8753 9.77604 28.3753 8.44792 28.8857 7.1875L30.292 3.60938C28.7503 4.99479 26.7972 7.90625 24.4326 12.3438L20.6514 19.5C18.6305 23.2708 17.1878 25.1562 16.3232 25.1562C15.4795 25.1562 14.9014 24.7917 14.5889 24.0625C14.3076 23.3646 14.167 22.1823 14.167 20.5156C14.167 18.8385 14.2972 17.2344 14.5576 15.7031C14.8285 14.1615 15.167 12.6562 15.5732 11.1875C16.2816 8.59375 17.1982 6.02083 18.3232 3.46875C17.2295 4.08333 16.016 5.45312 14.6826 7.57812C13.6618 9.27604 12.943 10.5156 12.5264 11.2969L8.49512 18.7188C6.81803 21.7708 5.46908 23.6562 4.44824 24.375C3.70866 24.8958 2.91178 25.1562 2.05762 25.1562C1.32845 25.1562 0.802409 24.9271 0.479492 24.4688C0.354492 24.2812 0.291992 24.1094 0.291992 23.9531C0.291992 23.7969 0.338867 23.7031 0.432617 23.6719C1.07845 23.4948 1.53678 23.3125 1.80762 23.125C2.06803 22.9271 2.32845 22.7292 2.58887 22.5312C2.84928 22.3229 3.22949 21.8906 3.72949 21.2344C4.22949 20.5677 4.77116 19.7708 5.35449 18.8438C5.93783 17.9062 6.5472 16.8594 7.18262 15.7031L9.16699 12.0469C11.0003 8.50521 12.917 5.66667 14.917 3.53125C15.6253 2.77083 16.3232 2.18229 17.0107 1.76562C17.6982 1.27604 18.4951 0.947917 19.4014 0.78125C19.6514 0.729167 19.8805 0.703125 20.0889 0.703125C20.3076 0.703125 20.5472 0.734375 20.8076 0.796875C21.0785 0.859375 21.3128 0.958333 21.5107 1.09375C21.9691 1.40625 22.1045 1.82292 21.917 2.34375C21.8337 2.65625 21.6722 3.125 21.4326 3.75L20.5889 5.98438C18.6201 11.4219 17.542 16.3698 17.3545 20.8281C17.9066 19.8802 18.4639 18.8438 19.0264 17.7188L20.792 14.2344L22.6514 10.6875C25.516 5.375 28.1774 2.33333 30.6357 1.5625C31.1462 1.39583 31.5732 1.3125 31.917 1.3125C32.2607 1.3125 32.5316 1.35938 32.7295 1.45312C32.9274 1.53646 33.1045 1.64583 33.2607 1.78125C33.6253 2.11458 33.7503 2.45833 33.6357 2.8125C33.5212 3.15625 33.3701 3.59896 33.1826 4.14062L30.917 10.75L30.1045 13.3438C29.2087 16.3438 28.6774 18.6458 28.5107 20.25C28.4482 20.9271 28.5212 21.4583 28.7295 21.8438C28.9482 22.2188 29.2451 22.4062 29.6201 22.4062C29.9951 22.4062 30.2868 22.3802 30.4951 22.3281C30.7139 22.2656 30.9014 22.1979 31.0576 22.125L31.4639 21.9375C31.5785 21.875 31.6826 21.8438 31.7764 21.8438ZM46.6826 20.8438C46.6826 21.8021 47.0212 22.2812 47.6982 22.2812C48.167 22.2812 48.5524 22.2083 48.8545 22.0625C49.167 21.9167 49.3753 21.8438 49.4795 21.8438C49.6982 21.8438 49.8076 21.9583 49.8076 22.1875C49.8076 23.0833 49.3389 23.8542 48.4014 24.5C47.4118 25.1771 46.4014 25.3438 45.3701 25C44.693 24.7604 44.193 24.2448 43.8701 23.4531C43.7139 23.0469 43.6357 22.6771 43.6357 22.3438C43.6357 21.8021 43.6878 21.2292 43.792 20.625C42.8232 22.6042 41.6201 23.9688 40.1826 24.7188C39.6097 25.0104 39.0003 25.1562 38.3545 25.1562C37.7087 25.1562 37.1462 25.026 36.667 24.7656C36.1982 24.4948 35.7972 24.125 35.4639 23.6562C34.7868 22.6771 34.4795 21.4479 34.542 19.9688C34.6045 18.1146 35.1514 16.2969 36.1826 14.5156C37.1305 12.849 38.3285 11.4896 39.7764 10.4375C41.2243 9.36458 42.5785 8.82812 43.8389 8.82812C45.0993 8.82812 46.1149 9.40625 46.8857 10.5625C47.6045 9.40625 48.2399 8.82812 48.792 8.82812C49.3857 8.82812 49.8337 8.9375 50.1357 9.15625C50.7087 9.57292 50.9118 9.9375 50.7451 10.25C48.1305 15.6042 46.7868 18.9375 46.7139 20.25C46.693 20.4375 46.6826 20.6354 46.6826 20.8438ZM38.0107 20.9062C38.0107 22.1562 38.4118 22.7812 39.2139 22.7812C39.8285 22.7812 40.5837 22.2604 41.4795 21.2188C42.792 19.6875 43.9535 17.625 44.9639 15.0312C45.2868 14.2188 45.5576 13.4062 45.7764 12.5938C45.7347 11.8854 45.4378 11.3646 44.8857 11.0312C44.6982 10.9167 44.417 10.8594 44.042 10.8594C43.6774 10.8594 43.2451 10.9948 42.7451 11.2656C42.2555 11.5365 41.7764 11.9062 41.3076 12.375C40.8493 12.8438 40.417 13.401 40.0107 14.0469C39.6149 14.6823 39.266 15.375 38.9639 16.125C38.3285 17.7292 38.0107 19.3229 38.0107 20.9062ZM63.2295 11.7812C62.9066 11.7812 62.4482 12.0938 61.8545 12.7188C61.2607 13.3333 60.7451 13.8958 60.3076 14.4062L58.9795 16L56.417 19.2656C55.8128 20.4115 55.3389 21.3646 54.9951 22.125L54.1514 23.9375C53.9326 24.3854 53.7399 24.7031 53.5732 24.8906C53.417 25.0677 53.1982 25.1562 52.917 25.1562C52.6462 25.1562 52.3805 25.1042 52.1201 25C51.8701 24.9062 51.6514 24.7812 51.4639 24.625C51.068 24.2917 50.8701 23.9271 50.8701 23.5312C50.8701 23.375 50.9847 23.0677 51.2139 22.6094L51.8076 21.3438C51.9951 20.9688 52.2139 20.4896 52.4639 19.9062L53.3389 17.7656C54.568 14.6927 55.1826 12.7083 55.1826 11.8125C55.1826 11.3333 55.0264 10.9792 54.7139 10.75L54.4014 10.5312C54.2972 10.4583 54.2451 10.3333 54.2451 10.1562C54.2451 9.96875 54.3128 9.79167 54.4482 9.625C54.5941 9.45833 54.7816 9.3125 55.0107 9.1875C55.4795 8.94792 55.9482 8.82812 56.417 8.82812C56.8962 8.82812 57.266 8.88021 57.5264 8.98438C57.7868 9.08854 58.0055 9.22917 58.1826 9.40625C58.568 9.77083 58.7607 10.151 58.7607 10.5469C58.7607 10.9427 58.7087 11.3438 58.6045 11.75C58.5107 12.1458 58.3857 12.5521 58.2295 12.9688C58.0837 13.375 57.9274 13.776 57.7607 14.1719C57.5941 14.5677 57.443 14.9115 57.3076 15.2031L56.9951 15.875C56.9118 16.0417 56.891 16.0938 56.9326 16.0312C58.0889 14.4271 58.8493 13.3958 59.2139 12.9375L60.3076 11.625C61.1097 10.6875 61.7399 10.0677 62.1982 9.76562C63.1253 9.14062 63.8545 8.82812 64.3857 8.82812C64.917 8.82812 65.3649 8.89583 65.7295 9.03125C66.0941 9.16667 66.4118 9.35938 66.6826 9.60938C67.2555 10.1406 67.542 10.8177 67.542 11.6406C67.542 12.4635 67.3545 13.3229 66.9795 14.2188C66.6045 15.1146 66.2764 15.8438 65.9951 16.4062C65.7243 16.9583 65.4639 17.5208 65.2139 18.0938C64.4326 19.8333 64.042 21.099 64.042 21.8906C64.042 22.2448 64.3232 22.4219 64.8857 22.4219C65.3232 22.4219 65.7191 22.3281 66.0732 22.1406C66.4378 21.9531 66.6722 21.8594 66.7764 21.8594C66.9951 21.8594 67.1045 21.9688 67.1045 22.1875C67.1045 23.1146 66.6305 23.8906 65.6826 24.5156C65.0472 24.9427 64.4639 25.1562 63.9326 25.1562C63.4014 25.1562 62.9587 25.099 62.6045 24.9844C62.2607 24.8698 61.9535 24.6875 61.6826 24.4375C61.068 23.8854 60.7607 23.1146 60.7607 22.125C60.7607 20.9167 61.141 19.4062 61.9014 17.5938C62.4535 16.3542 62.8441 15.5052 63.0732 15.0469L63.6045 13.9375C63.9274 13.2708 64.0889 12.7448 64.0889 12.3594C64.0889 11.974 63.8024 11.7812 63.2295 11.7812ZM81.9951 20.8438C81.9951 21.8021 82.3337 22.2812 83.0107 22.2812C83.4795 22.2812 83.8649 22.2083 84.167 22.0625C84.4795 21.9167 84.6878 21.8438 84.792 21.8438C85.0107 21.8438 85.1201 21.9583 85.1201 22.1875C85.1201 23.0833 84.6514 23.8542 83.7139 24.5C82.7243 25.1771 81.7139 25.3438 80.6826 25C80.0055 24.7604 79.5055 24.2448 79.1826 23.4531C79.0264 23.0469 78.9482 22.6771 78.9482 22.3438C78.9482 21.8021 79.0003 21.2292 79.1045 20.625C78.1357 22.6042 76.9326 23.9688 75.4951 24.7188C74.9222 25.0104 74.3128 25.1562 73.667 25.1562C73.0212 25.1562 72.4587 25.026 71.9795 24.7656C71.5107 24.4948 71.1097 24.125 70.7764 23.6562C70.0993 22.6771 69.792 21.4479 69.8545 19.9688C69.917 18.1146 70.4639 16.2969 71.4951 14.5156C72.443 12.849 73.641 11.4896 75.0889 10.4375C76.5368 9.36458 77.891 8.82812 79.1514 8.82812C80.4118 8.82812 81.4274 9.40625 82.1982 10.5625C82.917 9.40625 83.5524 8.82812 84.1045 8.82812C84.6982 8.82812 85.1462 8.9375 85.4482 9.15625C86.0212 9.57292 86.2243 9.9375 86.0576 10.25C83.443 15.6042 82.0993 18.9375 82.0264 20.25C82.0055 20.4375 81.9951 20.6354 81.9951 20.8438ZM73.3232 20.9062C73.3232 22.1562 73.7243 22.7812 74.5264 22.7812C75.141 22.7812 75.8962 22.2604 76.792 21.2188C78.1045 19.6875 79.266 17.625 80.2764 15.0312C80.5993 14.2188 80.8701 13.4062 81.0889 12.5938C81.0472 11.8854 80.7503 11.3646 80.1982 11.0312C80.0107 10.9167 79.7295 10.8594 79.3545 10.8594C78.9899 10.8594 78.5576 10.9948 78.0576 11.2656C77.568 11.5365 77.0889 11.9062 76.6201 12.375C76.1618 12.8438 75.7295 13.401 75.3232 14.0469C74.9274 14.6823 74.5785 15.375 74.2764 16.125C73.641 17.7292 73.3232 19.3229 73.3232 20.9062ZM96.4326 21.5938C94.8493 23.9688 93.0941 25.1562 91.167 25.1562C89.4274 25.1562 88.2555 24.2292 87.6514 22.375C87.443 21.7396 87.3389 20.9583 87.3389 20.0312C87.3389 19.1042 87.4691 18.1771 87.7295 17.25C88.0003 16.3125 88.3649 15.4271 88.8232 14.5938C89.2816 13.7604 89.818 12.9948 90.4326 12.2969C91.0576 11.5885 91.7243 10.9792 92.4326 10.4688C93.9118 9.375 95.3805 8.82812 96.8389 8.82812C98.2972 8.82812 99.3389 9.51042 99.9639 10.875C100.089 10.7396 100.203 10.6042 100.308 10.4688C100.412 10.3229 100.526 10.1875 100.651 10.0625C100.922 9.79167 101.157 9.65625 101.354 9.65625C101.563 9.65625 101.776 9.69271 101.995 9.76562C102.224 9.83854 102.443 9.9375 102.651 10.0625C103.162 10.3646 103.354 10.6458 103.229 10.9062C102.657 12.1458 102.177 13.3646 101.792 14.5625L99.4795 21.9375C97.6566 27.5312 95.3441 31.1458 92.542 32.7812C91.8024 33.2188 91.1618 33.4688 90.6201 33.5312C90.0785 33.6042 89.6878 33.6094 89.4482 33.5469C89.2087 33.4844 88.9951 33.3958 88.8076 33.2812C88.4014 33.0208 88.1982 32.7865 88.1982 32.5781C88.1982 32.2135 88.4378 31.9896 88.917 31.9062C89.4066 31.8229 89.917 31.625 90.4482 31.3125C90.9795 31.0104 91.4847 30.6406 91.9639 30.2031C93.9326 28.3802 95.4222 25.5104 96.4326 21.5938ZM91.7451 16.1719C91.4743 16.9219 91.2607 17.6927 91.1045 18.4844C90.9482 19.2656 90.8701 19.9062 90.8701 20.4062C90.8701 20.9062 90.8857 21.2865 90.917 21.5469C90.9482 21.8073 91.0107 22.0365 91.1045 22.2344C91.3128 22.6719 91.6201 22.8906 92.0264 22.8906C92.4326 22.8906 92.8337 22.75 93.2295 22.4688C93.6253 22.1771 94.042 21.7812 94.4795 21.2812C94.917 20.7812 95.3545 20.1927 95.792 19.5156C96.2295 18.8385 96.6462 18.1094 97.042 17.3281C97.917 15.599 98.5316 13.9479 98.8857 12.375C98.8337 12.0833 98.6566 11.7865 98.3545 11.4844C97.7607 10.9115 97.2243 10.625 96.7451 10.625C96.266 10.625 95.7868 10.776 95.3076 11.0781C94.8285 11.3698 94.3701 11.7708 93.9326 12.2812C93.5055 12.7812 93.1045 13.3698 92.7295 14.0469C92.3545 14.7135 92.0264 15.4219 91.7451 16.1719ZM104.308 19.5312C104.349 18.625 104.5 17.7604 104.761 16.9375C105.021 16.1042 105.37 15.3021 105.808 14.5312C106.245 13.75 106.756 13.0156 107.339 12.3281C107.933 11.6302 108.573 11.0208 109.261 10.5C110.75 9.38542 112.256 8.82812 113.776 8.82812C115.558 8.82812 116.745 9.5625 117.339 11.0312C117.547 11.5312 117.646 12.125 117.636 12.8125C117.625 13.4896 117.495 14.1198 117.245 14.7031C116.995 15.276 116.646 15.8021 116.198 16.2812C115.761 16.75 115.235 17.1719 114.62 17.5469C114.016 17.9219 113.354 18.2396 112.636 18.5C111.157 19.0208 109.573 19.2917 107.886 19.3125C107.844 19.4583 107.818 19.6771 107.808 19.9688C107.797 20.2604 107.828 20.5885 107.901 20.9531C107.974 21.3073 108.099 21.625 108.276 21.9062C108.651 22.5312 109.193 22.8438 109.901 22.8438C111.11 22.8438 112.287 22.4896 113.433 21.7812C113.839 21.5417 114.167 21.2969 114.417 21.0469C114.677 20.7865 114.901 20.6562 115.089 20.6562C115.276 20.6562 115.438 20.7708 115.573 21C115.719 21.2188 115.792 21.4688 115.792 21.75C115.792 22.3021 115.636 22.7812 115.323 23.1875C114.011 24.5 112.058 25.1562 109.464 25.1562C107.933 25.1562 106.703 24.6979 105.776 23.7812C104.735 22.7396 104.245 21.3229 104.308 19.5312ZM113.433 10.9062C112.339 10.9062 111.287 11.6562 110.276 13.1562C109.422 14.4479 108.735 15.9792 108.214 17.75C109.953 17.5729 111.464 16.8854 112.745 15.6875C113.922 14.5625 114.511 13.4844 114.511 12.4531C114.511 11.4219 114.151 10.9062 113.433 10.9062ZM131.026 11.7812C130.422 11.7812 129.318 12.6562 127.714 14.4062C126.516 15.7708 125.646 16.7969 125.104 17.4844L123.698 19.2656C123.094 20.4115 122.62 21.3646 122.276 22.125L121.433 23.9375C121.214 24.3854 121.021 24.7031 120.854 24.8906C120.698 25.0677 120.479 25.1562 120.198 25.1562C119.927 25.1562 119.662 25.1042 119.401 25C119.151 24.9062 118.933 24.7812 118.745 24.625C118.349 24.2917 118.151 23.9271 118.151 23.5312C118.151 23.375 118.266 23.0677 118.495 22.6094L119.089 21.3438C119.276 20.9688 119.495 20.4896 119.745 19.9062L120.62 17.7656C121.849 14.6927 122.464 12.7083 122.464 11.8125C122.464 11.3333 122.308 10.9792 121.995 10.75L121.683 10.5312C121.578 10.4583 121.526 10.3333 121.526 10.1562C121.526 9.96875 121.594 9.79167 121.729 9.625C121.875 9.45833 122.063 9.3125 122.292 9.1875C122.761 8.94792 123.229 8.82812 123.698 8.82812C124.177 8.82812 124.552 8.88021 124.823 8.98438C125.094 9.08854 125.328 9.22917 125.526 9.40625C125.922 9.77083 126.12 10.151 126.12 10.5469C126.12 10.9427 126.068 11.3438 125.964 11.75C125.86 12.1458 125.729 12.5521 125.573 12.9688C125.417 13.375 125.25 13.7708 125.073 14.1562C124.657 15.0521 124.396 15.6042 124.292 15.8125C124.198 16.0104 124.172 16.0833 124.214 16.0312C126.12 13.5625 127.266 12.1042 127.651 11.6562C128.453 10.7292 129.078 10.0938 129.526 9.75C130.349 9.13542 131.125 8.82812 131.854 8.82812C132.594 8.82812 133.183 9.05729 133.62 9.51562C134.058 9.97396 134.276 10.5781 134.276 11.3281C134.276 11.9844 134.11 12.7552 133.776 13.6406C133.443 14.526 133.219 15.1458 133.104 15.5L135.401 12.4688L136.683 10.9375C137.453 10.0729 138.131 9.50521 138.714 9.23438C139.297 8.96354 139.771 8.82812 140.136 8.82812C140.511 8.82812 140.875 8.89583 141.229 9.03125C141.594 9.16667 141.901 9.35938 142.151 9.60938C142.683 10.1198 142.948 10.7969 142.948 11.6406C142.948 12.4531 142.761 13.2865 142.386 14.1406C142.011 14.9948 141.683 15.6979 141.401 16.25C141.12 16.7917 140.849 17.3385 140.589 17.8906C139.828 19.5469 139.448 20.776 139.448 21.5781C139.448 22.1406 139.677 22.4219 140.136 22.4219C140.573 22.4219 140.969 22.3281 141.323 22.1406C141.688 21.9531 141.922 21.8594 142.026 21.8594C142.245 21.8594 142.354 21.9688 142.354 22.1875C142.354 23.1146 141.881 23.8906 140.933 24.5156C140.297 24.9427 139.714 25.1562 139.183 25.1562C138.662 25.1562 138.24 25.0938 137.917 24.9688C137.594 24.8438 137.302 24.6458 137.042 24.375C136.459 23.7708 136.167 23.0156 136.167 22.1094C136.167 21.2031 136.282 20.3698 136.511 19.6094C136.74 18.849 137.011 18.1146 137.323 17.4062C137.636 16.6875 137.948 16.0312 138.261 15.4375C138.584 14.8333 138.828 14.3542 138.995 14C139.328 13.2708 139.495 12.7344 139.495 12.3906C139.495 11.9844 139.282 11.7812 138.854 11.7812C138.292 11.7812 137.282 12.7135 135.823 14.5781C134.719 16.026 133.953 17.0677 133.526 17.7031L132.448 19.2656C131.844 20.4115 131.381 21.3646 131.058 22.125L130.261 23.9375C130.063 24.3854 129.891 24.7031 129.745 24.8906C129.599 25.0677 129.396 25.1562 129.136 25.1562C128.875 25.1562 128.62 25.1146 128.37 25.0312C128.131 24.9479 127.922 24.8385 127.745 24.7031C127.339 24.401 127.136 24.0833 127.136 23.75C127.136 23.4062 127.245 22.9427 127.464 22.3594C127.693 21.7656 127.974 21.1042 128.308 20.375L130.495 15.75C131.276 14.0312 131.667 12.9427 131.667 12.4844C131.667 12.0156 131.453 11.7812 131.026 11.7812ZM132.573 16.1875C132.584 16.1875 132.589 16.1823 132.589 16.1719L132.604 16.1406C132.584 16.1615 132.573 16.1771 132.573 16.1875ZM145.495 19.5312C145.537 18.625 145.688 17.7604 145.948 16.9375C146.209 16.1042 146.558 15.3021 146.995 14.5312C147.433 13.75 147.943 13.0156 148.526 12.3281C149.12 11.6302 149.761 11.0208 150.448 10.5C151.938 9.38542 153.443 8.82812 154.964 8.82812C156.745 8.82812 157.933 9.5625 158.526 11.0312C158.735 11.5312 158.834 12.125 158.823 12.8125C158.813 13.4896 158.683 14.1198 158.433 14.7031C158.183 15.276 157.834 15.8021 157.386 16.2812C156.948 16.75 156.422 17.1719 155.808 17.5469C155.203 17.9219 154.542 18.2396 153.823 18.5C152.344 19.0208 150.761 19.2917 149.073 19.3125C149.032 19.4583 149.006 19.6771 148.995 19.9688C148.985 20.2604 149.016 20.5885 149.089 20.9531C149.162 21.3073 149.287 21.625 149.464 21.9062C149.839 22.5312 150.381 22.8438 151.089 22.8438C152.297 22.8438 153.474 22.4896 154.62 21.7812C155.026 21.5417 155.354 21.2969 155.604 21.0469C155.865 20.7865 156.089 20.6562 156.276 20.6562C156.464 20.6562 156.625 20.7708 156.761 21C156.907 21.2188 156.979 21.4688 156.979 21.75C156.979 22.3021 156.823 22.7812 156.511 23.1875C155.198 24.5 153.245 25.1562 150.651 25.1562C149.12 25.1562 147.891 24.6979 146.964 23.7812C145.922 22.7396 145.433 21.3229 145.495 19.5312ZM154.62 10.9062C153.526 10.9062 152.474 11.6562 151.464 13.1562C150.61 14.4479 149.922 15.9792 149.401 17.75C151.141 17.5729 152.651 16.8854 153.933 15.6875C155.11 14.5625 155.698 13.4844 155.698 12.4531C155.698 11.4219 155.339 10.9062 154.62 10.9062ZM171.698 11.7812C171.375 11.7812 170.917 12.0938 170.323 12.7188C169.729 13.3333 169.214 13.8958 168.776 14.4062L167.448 16L164.886 19.2656C164.282 20.4115 163.808 21.3646 163.464 22.125L162.62 23.9375C162.401 24.3854 162.209 24.7031 162.042 24.8906C161.886 25.0677 161.667 25.1562 161.386 25.1562C161.115 25.1562 160.849 25.1042 160.589 25C160.339 24.9062 160.12 24.7812 159.933 24.625C159.537 24.2917 159.339 23.9271 159.339 23.5312C159.339 23.375 159.453 23.0677 159.683 22.6094L160.276 21.3438C160.464 20.9688 160.683 20.4896 160.933 19.9062L161.808 17.7656C163.037 14.6927 163.651 12.7083 163.651 11.8125C163.651 11.3333 163.495 10.9792 163.183 10.75L162.87 10.5312C162.766 10.4583 162.714 10.3333 162.714 10.1562C162.714 9.96875 162.782 9.79167 162.917 9.625C163.063 9.45833 163.25 9.3125 163.479 9.1875C163.948 8.94792 164.417 8.82812 164.886 8.82812C165.365 8.82812 165.735 8.88021 165.995 8.98438C166.256 9.08854 166.474 9.22917 166.651 9.40625C167.037 9.77083 167.229 10.151 167.229 10.5469C167.229 10.9427 167.177 11.3438 167.073 11.75C166.979 12.1458 166.854 12.5521 166.698 12.9688C166.552 13.375 166.396 13.776 166.229 14.1719C166.063 14.5677 165.912 14.9115 165.776 15.2031L165.464 15.875C165.381 16.0417 165.36 16.0938 165.401 16.0312C166.558 14.4271 167.318 13.3958 167.683 12.9375L168.776 11.625C169.578 10.6875 170.209 10.0677 170.667 9.76562C171.594 9.14062 172.323 8.82812 172.854 8.82812C173.386 8.82812 173.834 8.89583 174.198 9.03125C174.563 9.16667 174.881 9.35938 175.151 9.60938C175.724 10.1406 176.011 10.8177 176.011 11.6406C176.011 12.4635 175.823 13.3229 175.448 14.2188C175.073 15.1146 174.745 15.8438 174.464 16.4062C174.193 16.9583 173.933 17.5208 173.683 18.0938C172.901 19.8333 172.511 21.099 172.511 21.8906C172.511 22.2448 172.792 22.4219 173.354 22.4219C173.792 22.4219 174.188 22.3281 174.542 22.1406C174.907 21.9531 175.141 21.8594 175.245 21.8594C175.464 21.8594 175.573 21.9688 175.573 22.1875C175.573 23.1146 175.099 23.8906 174.151 24.5156C173.516 24.9427 172.933 25.1562 172.401 25.1562C171.87 25.1562 171.427 25.099 171.073 24.9844C170.729 24.8698 170.422 24.6875 170.151 24.4375C169.537 23.8854 169.229 23.1146 169.229 22.125C169.229 20.9167 169.61 19.4062 170.37 17.5938C170.922 16.3542 171.313 15.5052 171.542 15.0469L172.073 13.9375C172.396 13.2708 172.558 12.7448 172.558 12.3594C172.558 11.974 172.271 11.7812 171.698 11.7812ZM187.495 20.9062C187.797 20.9062 187.948 21.1094 187.948 21.5156C187.948 21.8594 187.844 22.1927 187.636 22.5156C187.354 23.1198 186.792 23.6927 185.948 24.2344C184.99 24.849 184.026 25.1562 183.058 25.1562C181.381 25.1562 180.318 24.4062 179.87 22.9062C179.339 21.125 180.136 17.349 182.261 11.5781C181.063 11.474 180.412 11.2656 180.308 10.9531C180.276 10.8594 180.261 10.7604 180.261 10.6562C180.261 10.5417 180.308 10.4115 180.401 10.2656C180.506 10.1198 180.636 9.97917 180.792 9.84375C181.157 9.54167 181.526 9.39062 181.901 9.39062H183.136C184.261 6.75521 185.063 5.25521 185.542 4.89062C185.771 4.72396 186.026 4.64062 186.308 4.64062C186.589 4.64062 186.823 4.67708 187.011 4.75C187.198 4.82292 187.365 4.92708 187.511 5.0625C187.844 5.375 188.011 5.72396 188.011 6.10938C188.011 6.31771 187.948 6.55729 187.823 6.82812L186.667 9.34375H187.042C187.688 9.34375 188.209 9.33854 188.604 9.32812C188.604 9.32812 188.901 9.32292 189.495 9.3125C189.693 9.30208 189.938 9.29688 190.229 9.29688C190.532 9.29688 190.683 9.40625 190.683 9.625C190.683 11 189.058 11.6875 185.808 11.6875H185.683L184.62 14.4375C183.422 17.6875 182.823 19.9635 182.823 21.2656C182.823 21.6302 182.907 21.9167 183.073 22.125C183.24 22.3229 183.552 22.4219 184.011 22.4219C184.469 22.4219 184.886 22.3438 185.261 22.1875C185.636 22.0312 185.964 21.8594 186.245 21.6719C186.526 21.474 186.766 21.2969 186.964 21.1406C187.172 20.9844 187.349 20.9062 187.495 20.9062ZM217.667 3.64062C217.365 3.85938 217.011 4.02604 216.604 4.14062C216.209 4.24479 215.672 4.29688 214.995 4.29688C214.328 4.29688 213.459 4.25 212.386 4.15625C212.136 4.83333 211.881 5.625 211.62 6.53125L209.823 12.6562C207.604 19.9896 205.24 24.1042 202.729 25C202.552 25.0729 202.323 25.1094 202.042 25.1094C201.771 25.1094 201.547 25.0729 201.37 25C201.203 24.9375 201.063 24.8542 200.948 24.75C200.719 24.5625 200.604 24.375 200.604 24.1875C200.604 24 200.651 23.875 200.745 23.8125L201.151 23.5625C202.651 22.5833 204.026 19.9792 205.276 15.75L206.401 11.9375C207.412 8.51042 208.354 5.81771 209.229 3.85938C208.407 3.78646 207.782 3.75 207.354 3.75C206.125 3.75 205.24 3.92188 204.698 4.26562C204.167 4.60938 203.792 4.98438 203.573 5.39062C203.365 5.78646 203.256 6.0625 203.245 6.21875C203.214 6.51042 203.12 6.69792 202.964 6.78125C202.808 6.85417 202.615 6.89062 202.386 6.89062C202.167 6.89062 201.938 6.8125 201.698 6.65625C201.459 6.48958 201.261 6.28125 201.104 6.03125C200.771 5.52083 200.641 4.94792 200.714 4.3125C200.787 3.66667 200.995 3.11458 201.339 2.65625C201.693 2.1875 202.11 1.80729 202.589 1.51562C203.474 0.973958 204.407 0.703125 205.386 0.703125C206.375 0.703125 207.308 0.755208 208.183 0.859375C209.068 0.953125 209.948 1.0625 210.823 1.1875C213.146 1.5 214.625 1.65625 215.261 1.65625C215.896 1.65625 216.365 1.61979 216.667 1.54688C216.979 1.47396 217.245 1.36458 217.464 1.21875C217.683 1.07292 217.834 0.979167 217.917 0.9375C218.011 0.885417 218.157 0.859375 218.354 0.859375C218.667 0.859375 218.802 1.09896 218.761 1.57812C218.719 2.04688 218.604 2.45312 218.417 2.79688C218.229 3.13021 217.979 3.41146 217.667 3.64062ZM214.995 19.5312C215.037 18.625 215.188 17.7604 215.448 16.9375C215.709 16.1042 216.058 15.3021 216.495 14.5312C216.933 13.75 217.443 13.0156 218.026 12.3281C218.62 11.6302 219.261 11.0208 219.948 10.5C221.438 9.38542 222.943 8.82812 224.464 8.82812C226.245 8.82812 227.433 9.5625 228.026 11.0312C228.235 11.5312 228.334 12.125 228.323 12.8125C228.313 13.4896 228.183 14.1198 227.933 14.7031C227.683 15.276 227.334 15.8021 226.886 16.2812C226.448 16.75 225.922 17.1719 225.308 17.5469C224.703 17.9219 224.042 18.2396 223.323 18.5C221.844 19.0208 220.261 19.2917 218.573 19.3125C218.532 19.4583 218.506 19.6771 218.495 19.9688C218.485 20.2604 218.516 20.5885 218.589 20.9531C218.662 21.3073 218.787 21.625 218.964 21.9062C219.339 22.5312 219.881 22.8438 220.589 22.8438C221.797 22.8438 222.974 22.4896 224.12 21.7812C224.526 21.5417 224.854 21.2969 225.104 21.0469C225.365 20.7865 225.589 20.6562 225.776 20.6562C225.964 20.6562 226.125 20.7708 226.261 21C226.407 21.2188 226.479 21.4688 226.479 21.75C226.479 22.3021 226.323 22.7812 226.011 23.1875C224.698 24.5 222.745 25.1562 220.151 25.1562C218.62 25.1562 217.391 24.6979 216.464 23.7812C215.422 22.7396 214.933 21.3229 214.995 19.5312ZM224.12 10.9062C223.026 10.9062 221.974 11.6562 220.964 13.1562C220.11 14.4479 219.422 15.9792 218.901 17.75C220.641 17.5729 222.151 16.8854 223.433 15.6875C224.61 14.5625 225.198 13.4844 225.198 12.4531C225.198 11.4219 224.839 10.9062 224.12 10.9062ZM241.995 20.8438C241.995 21.8021 242.334 22.2812 243.011 22.2812C243.479 22.2812 243.865 22.2083 244.167 22.0625C244.479 21.9167 244.688 21.8438 244.792 21.8438C245.011 21.8438 245.12 21.9583 245.12 22.1875C245.12 23.0833 244.651 23.8542 243.714 24.5C242.724 25.1771 241.714 25.3438 240.683 25C240.006 24.7604 239.506 24.2448 239.183 23.4531C239.026 23.0469 238.948 22.6771 238.948 22.3438C238.948 21.8021 239 21.2292 239.104 20.625C238.136 22.6042 236.933 23.9688 235.495 24.7188C234.922 25.0104 234.313 25.1562 233.667 25.1562C233.021 25.1562 232.459 25.026 231.979 24.7656C231.511 24.4948 231.11 24.125 230.776 23.6562C230.099 22.6771 229.792 21.4479 229.854 19.9688C229.917 18.1146 230.464 16.2969 231.495 14.5156C232.443 12.849 233.641 11.4896 235.089 10.4375C236.537 9.36458 237.891 8.82812 239.151 8.82812C240.412 8.82812 241.427 9.40625 242.198 10.5625C242.917 9.40625 243.552 8.82812 244.104 8.82812C244.698 8.82812 245.146 8.9375 245.448 9.15625C246.021 9.57292 246.224 9.9375 246.058 10.25C243.443 15.6042 242.099 18.9375 242.026 20.25C242.006 20.4375 241.995 20.6354 241.995 20.8438ZM233.323 20.9062C233.323 22.1562 233.724 22.7812 234.526 22.7812C235.141 22.7812 235.896 22.2604 236.792 21.2188C238.104 19.6875 239.266 17.625 240.276 15.0312C240.599 14.2188 240.87 13.4062 241.089 12.5938C241.047 11.8854 240.75 11.3646 240.198 11.0312C240.011 10.9167 239.729 10.8594 239.354 10.8594C238.99 10.8594 238.558 10.9948 238.058 11.2656C237.568 11.5365 237.089 11.9062 236.62 12.375C236.162 12.8438 235.729 13.401 235.323 14.0469C234.927 14.6823 234.578 15.375 234.276 16.125C233.641 17.7292 233.323 19.3229 233.323 20.9062ZM259.058 11.7812C258.453 11.7812 257.349 12.6562 255.745 14.4062C254.547 15.7708 253.677 16.7969 253.136 17.4844L251.729 19.2656C251.125 20.4115 250.651 21.3646 250.308 22.125L249.464 23.9375C249.245 24.3854 249.052 24.7031 248.886 24.8906C248.729 25.0677 248.511 25.1562 248.229 25.1562C247.959 25.1562 247.693 25.1042 247.433 25C247.183 24.9062 246.964 24.7812 246.776 24.625C246.381 24.2917 246.183 23.9271 246.183 23.5312C246.183 23.375 246.297 23.0677 246.526 22.6094L247.12 21.3438C247.308 20.9688 247.526 20.4896 247.776 19.9062L248.651 17.7656C249.881 14.6927 250.495 12.7083 250.495 11.8125C250.495 11.3333 250.339 10.9792 250.026 10.75L249.714 10.5312C249.61 10.4583 249.558 10.3333 249.558 10.1562C249.558 9.96875 249.625 9.79167 249.761 9.625C249.907 9.45833 250.094 9.3125 250.323 9.1875C250.792 8.94792 251.261 8.82812 251.729 8.82812C252.209 8.82812 252.584 8.88021 252.854 8.98438C253.125 9.08854 253.36 9.22917 253.558 9.40625C253.953 9.77083 254.151 10.151 254.151 10.5469C254.151 10.9427 254.099 11.3438 253.995 11.75C253.891 12.1458 253.761 12.5521 253.604 12.9688C253.448 13.375 253.282 13.7708 253.104 14.1562C252.688 15.0521 252.427 15.6042 252.323 15.8125C252.229 16.0104 252.203 16.0833 252.245 16.0312C254.151 13.5625 255.297 12.1042 255.683 11.6562C256.485 10.7292 257.11 10.0938 257.558 9.75C258.381 9.13542 259.157 8.82812 259.886 8.82812C260.625 8.82812 261.214 9.05729 261.651 9.51562C262.089 9.97396 262.308 10.5781 262.308 11.3281C262.308 11.9844 262.141 12.7552 261.808 13.6406C261.474 14.526 261.25 15.1458 261.136 15.5L263.433 12.4688L264.714 10.9375C265.485 10.0729 266.162 9.50521 266.745 9.23438C267.328 8.96354 267.802 8.82812 268.167 8.82812C268.542 8.82812 268.907 8.89583 269.261 9.03125C269.625 9.16667 269.933 9.35938 270.183 9.60938C270.714 10.1198 270.979 10.7969 270.979 11.6406C270.979 12.4531 270.792 13.2865 270.417 14.1406C270.042 14.9948 269.714 15.6979 269.433 16.25C269.151 16.7917 268.881 17.3385 268.62 17.8906C267.86 19.5469 267.479 20.776 267.479 21.5781C267.479 22.1406 267.709 22.4219 268.167 22.4219C268.604 22.4219 269 22.3281 269.354 22.1406C269.719 21.9531 269.953 21.8594 270.058 21.8594C270.276 21.8594 270.386 21.9688 270.386 22.1875C270.386 23.1146 269.912 23.8906 268.964 24.5156C268.328 24.9427 267.745 25.1562 267.214 25.1562C266.693 25.1562 266.271 25.0938 265.948 24.9688C265.625 24.8438 265.334 24.6458 265.073 24.375C264.49 23.7708 264.198 23.0156 264.198 22.1094C264.198 21.2031 264.313 20.3698 264.542 19.6094C264.771 18.849 265.042 18.1146 265.354 17.4062C265.667 16.6875 265.979 16.0312 266.292 15.4375C266.615 14.8333 266.86 14.3542 267.026 14C267.36 13.2708 267.526 12.7344 267.526 12.3906C267.526 11.9844 267.313 11.7812 266.886 11.7812C266.323 11.7812 265.313 12.7135 263.854 14.5781C262.75 16.026 261.985 17.0677 261.558 17.7031L260.479 19.2656C259.875 20.4115 259.412 21.3646 259.089 22.125L258.292 23.9375C258.094 24.3854 257.922 24.7031 257.776 24.8906C257.631 25.0677 257.427 25.1562 257.167 25.1562C256.907 25.1562 256.651 25.1146 256.401 25.0312C256.162 24.9479 255.953 24.8385 255.776 24.7031C255.37 24.401 255.167 24.0833 255.167 23.75C255.167 23.4062 255.276 22.9427 255.495 22.3594C255.724 21.7656 256.006 21.1042 256.339 20.375L258.526 15.75C259.308 14.0312 259.698 12.9427 259.698 12.4844C259.698 12.0156 259.485 11.7812 259.058 11.7812ZM260.604 16.1875C260.615 16.1875 260.62 16.1823 260.62 16.1719L260.636 16.1406C260.615 16.1615 260.604 16.1771 260.604 16.1875Z" fill="#62D2A2"/>
</svg>
