<svg width="150" height="28" viewBox="0 0 150 21" fill="none" xmlns="http://www.w3.org/2000/svg">
<path d="M4.70703 16.915C4.08073 17.8545 3.46289 18.6204 2.85352 19.2129C2.2526 19.7969 1.66862 20.0889 1.10156 20.0889C0.813802 20.0889 0.597982 20.0212 0.454102 19.8857C0.208659 19.6657 0.0859375 19.4583 0.0859375 19.2637C0.0859375 19.069 0.149414 18.9251 0.276367 18.832C1.55436 17.9095 2.97201 15.2012 4.5293 10.707L5.27832 8.57422C6.1416 6.13672 6.8737 4.62598 7.47461 4.04199C7.6862 3.88118 7.90625 3.80078 8.13477 3.80078C8.36328 3.80078 8.56217 3.83887 8.73145 3.91504C8.90072 3.98275 9.04883 4.07161 9.17578 4.18164C9.46354 4.43555 9.60742 4.73177 9.60742 5.07031C9.60742 5.19727 9.54818 5.37923 9.42969 5.61621C9.3112 5.85319 9.17578 6.16211 9.02344 6.54297L7.41113 11.0244C9.46777 10.652 11.1647 9.80143 12.502 8.47266C13.7546 7.22852 14.3809 5.95052 14.3809 4.63867C14.3809 3.39453 13.8223 2.5778 12.7051 2.18848C12.3242 2.05306 11.8799 1.98535 11.3721 1.98535C10.8727 1.98535 10.3607 2.04883 9.83594 2.17578C9.3112 2.30273 8.79492 2.46777 8.28711 2.6709C7.26302 3.08561 6.42513 3.57227 5.77344 4.13086C5.60417 4.29167 5.41797 4.37207 5.21484 4.37207C5.01172 4.37207 4.82129 4.32975 4.64355 4.24512C4.46582 4.16048 4.30924 4.05046 4.17383 3.91504C3.86068 3.61882 3.7041 3.31836 3.7041 3.01367C3.7041 2.70052 3.81413 2.42122 4.03418 2.17578C4.25423 1.93034 4.54622 1.71029 4.91016 1.51562C5.27409 1.3125 5.69303 1.13477 6.16699 0.982422C6.64095 0.821615 7.1276 0.686198 7.62695 0.576172C8.64258 0.364583 9.64974 0.258789 10.6484 0.258789C11.6556 0.258789 12.5739 0.385742 13.4033 0.639648C14.2412 0.885091 14.931 1.2194 15.4727 1.64258C16.5645 2.48893 17.1104 3.5638 17.1104 4.86719V5.07031C17.0342 6.66992 16.429 8.0791 15.2949 9.29785C14.3047 10.3558 13.0267 11.1895 11.4609 11.7988C10.0475 12.3574 8.71029 12.6367 7.44922 12.6367H7.11914C7.00911 12.6367 6.90332 12.6283 6.80176 12.6113C6.04004 14.5326 5.3418 15.9671 4.70703 16.915ZM16.3613 19.6953C16.1921 19.5684 16.0566 19.4287 15.9551 19.2764C15.8535 19.1156 15.7985 18.9801 15.79 18.8701C15.7816 18.7516 15.8027 18.612 15.8535 18.4512C15.9128 18.2819 15.9889 18.0788 16.082 17.8418C17.8086 13.5931 18.6719 10.7409 18.6719 9.28516C18.6465 8.87891 18.5068 8.59115 18.2529 8.42188L17.999 8.24414C17.9229 8.1849 17.8805 8.08333 17.8721 7.93945C17.8721 7.78711 17.9271 7.64323 18.0371 7.50781C18.1471 7.3724 18.291 7.25391 18.4688 7.15234C18.8327 6.95768 19.2051 6.86035 19.5859 6.86035C19.9753 6.86035 20.2757 6.90267 20.4873 6.9873C20.7074 7.07194 20.8936 7.1862 21.0459 7.33008C21.3675 7.63477 21.5283 7.95638 21.5283 8.29492C21.5368 8.63346 21.4987 8.97624 21.4141 9.32324C21.3379 9.67025 21.2448 10.013 21.1348 10.3516C21.0247 10.6816 20.9147 10.999 20.8047 11.3037C20.6947 11.5999 20.6227 11.82 20.5889 11.9639C20.5212 12.2601 20.4958 12.4463 20.5127 12.5225C20.7158 12.3447 20.8385 12.1712 20.8809 12.002L21.376 11.0625C22.4762 9.08203 23.5511 7.77018 24.6006 7.12695C24.9053 6.94922 25.2692 6.86035 25.6924 6.86035C26.124 6.86035 26.471 7.0127 26.7334 7.31738C26.9958 7.61361 27.1312 7.94368 27.1396 8.30762C27.1566 8.67155 27.1312 8.97624 27.0635 9.22168C27.0042 9.45866 26.9111 9.68294 26.7842 9.89453C26.5049 10.3685 26.1663 10.6055 25.7686 10.6055C25.6585 10.6055 25.557 10.5674 25.4639 10.4912L25.1846 10.25C24.9053 10.0046 24.6344 9.88184 24.3721 9.88184C24.1182 9.88184 23.805 10.0511 23.4326 10.3896C23.0687 10.7282 22.6878 11.1641 22.29 11.6973C20.9528 13.4661 19.861 15.4466 19.0146 17.6387L18.4561 19.1113C18.3122 19.4753 18.1852 19.7376 18.0752 19.8984C17.9652 20.0508 17.8001 20.127 17.5801 20.127C17.3685 20.127 17.1527 20.0846 16.9326 20C16.721 19.9238 16.5306 19.8223 16.3613 19.6953ZM27.0508 15.5566C27.0846 14.8203 27.2074 14.1178 27.4189 13.4492C27.6305 12.7721 27.9141 12.1204 28.2695 11.4941C28.625 10.8594 29.0397 10.2627 29.5137 9.7041C29.9961 9.13704 30.5166 8.64193 31.0752 8.21875C32.2855 7.31315 33.5085 6.86035 34.7441 6.86035C36.1914 6.86035 37.1562 7.45703 37.6387 8.65039C37.8079 9.05664 37.8883 9.53906 37.8799 10.0977C37.8714 10.6478 37.7656 11.1598 37.5625 11.6338C37.3594 12.0993 37.0758 12.5267 36.7119 12.916C36.3564 13.2969 35.929 13.6396 35.4297 13.9443C34.9388 14.249 34.4014 14.5072 33.8174 14.7188C32.6156 15.1419 31.3291 15.362 29.958 15.3789C29.9242 15.4974 29.903 15.6751 29.8945 15.9121C29.8861 16.1491 29.9115 16.4157 29.9707 16.7119C30.0299 16.9997 30.1315 17.2578 30.2754 17.4863C30.5801 17.9941 31.0202 18.248 31.5957 18.248C32.5775 18.248 33.5339 17.9603 34.4648 17.3848C34.7949 17.1901 35.0615 16.9912 35.2646 16.7881C35.4762 16.5765 35.6582 16.4707 35.8105 16.4707C35.9629 16.4707 36.0941 16.5638 36.2041 16.75C36.3226 16.9277 36.3818 17.1309 36.3818 17.3594C36.3818 17.8079 36.2549 18.1973 36.001 18.5273C34.9346 19.5938 33.3477 20.127 31.2402 20.127C29.9961 20.127 28.9974 19.7546 28.2441 19.0098C27.3978 18.1634 27 17.0124 27.0508 15.5566ZM34.4648 8.54883C33.5762 8.54883 32.7214 9.1582 31.9004 10.377C31.2064 11.4264 30.6478 12.6706 30.2246 14.1094C31.638 13.9655 32.8652 13.4069 33.9062 12.4336C34.8626 11.5195 35.3408 10.6436 35.3408 9.80566C35.3408 8.96777 35.0488 8.54883 34.4648 8.54883ZM48.7598 9.25977C48.2689 9.25977 47.3717 9.9707 46.0684 11.3926C45.0951 12.5013 44.3883 13.335 43.9482 13.8936L42.8057 15.3408C42.3148 16.2718 41.9297 17.0462 41.6504 17.6641L40.9648 19.1367C40.7871 19.5007 40.6305 19.7588 40.4951 19.9111C40.3682 20.055 40.1904 20.127 39.9619 20.127C39.7419 20.127 39.526 20.0846 39.3145 20C39.1113 19.9238 38.9336 19.8223 38.7812 19.6953C38.4596 19.4245 38.2988 19.1283 38.2988 18.8066C38.2988 18.6797 38.3919 18.43 38.5781 18.0576L39.0605 17.0293C39.2129 16.7246 39.3906 16.3353 39.5938 15.8613L40.3047 14.1221C41.3034 11.6253 41.8027 10.013 41.8027 9.28516C41.8027 8.89583 41.6758 8.60807 41.4219 8.42188L41.168 8.24414C41.0833 8.1849 41.041 8.08333 41.041 7.93945C41.041 7.78711 41.096 7.64323 41.2061 7.50781C41.3245 7.3724 41.4769 7.25391 41.6631 7.15234C42.0439 6.95768 42.4248 6.86035 42.8057 6.86035C43.195 6.86035 43.4997 6.90267 43.7197 6.9873C43.9398 7.07194 44.1302 7.1862 44.291 7.33008C44.6126 7.6263 44.7734 7.93522 44.7734 8.25684C44.7734 8.57845 44.7311 8.9043 44.6465 9.23438C44.5618 9.55599 44.4561 9.88607 44.3291 10.2246C44.2021 10.5547 44.0667 10.8763 43.9229 11.1895C43.5843 11.9173 43.3727 12.3659 43.2881 12.5352C43.2119 12.696 43.1908 12.7552 43.2246 12.7129C44.7734 10.707 45.7044 9.52214 46.0176 9.1582C46.6693 8.40495 47.1771 7.88867 47.541 7.60938C48.2096 7.11003 48.8402 6.86035 49.4326 6.86035C50.0335 6.86035 50.5117 7.04655 50.8672 7.41895C51.2227 7.79134 51.4004 8.28223 51.4004 8.8916C51.4004 9.4248 51.265 10.0511 50.9941 10.7705C50.7233 11.4899 50.5413 11.9935 50.4482 12.2812L52.3145 9.81836L53.3555 8.57422C53.9818 7.87174 54.5319 7.41048 55.0059 7.19043C55.4798 6.97038 55.8649 6.86035 56.1611 6.86035C56.4658 6.86035 56.762 6.91536 57.0498 7.02539C57.346 7.13542 57.5957 7.29199 57.7988 7.49512C58.2305 7.90983 58.4463 8.45996 58.4463 9.14551C58.4463 9.80566 58.2939 10.4827 57.9893 11.1768C57.6846 11.8708 57.418 12.4421 57.1895 12.8906C56.9609 13.3307 56.7409 13.7751 56.5293 14.2236C55.9115 15.5693 55.6025 16.568 55.6025 17.2197C55.6025 17.6768 55.7887 17.9053 56.1611 17.9053C56.5166 17.9053 56.8382 17.8291 57.126 17.6768C57.4222 17.5244 57.6126 17.4482 57.6973 17.4482C57.875 17.4482 57.9639 17.5371 57.9639 17.7148C57.9639 18.4681 57.5788 19.0986 56.8086 19.6064C56.2923 19.9535 55.8184 20.127 55.3867 20.127C54.9635 20.127 54.6208 20.0762 54.3584 19.9746C54.096 19.873 53.859 19.7122 53.6475 19.4922C53.1735 19.0013 52.9365 18.3877 52.9365 17.6514C52.9365 16.915 53.0296 16.238 53.2158 15.6201C53.402 15.0023 53.6221 14.4056 53.876 13.8301C54.1299 13.2461 54.3838 12.7129 54.6377 12.2305C54.9001 11.7396 55.099 11.3503 55.2344 11.0625C55.5052 10.4701 55.6406 10.0342 55.6406 9.75488C55.6406 9.4248 55.4671 9.25977 55.1201 9.25977C54.6631 9.25977 53.8421 10.0173 52.6572 11.5322C51.7601 12.7087 51.138 13.555 50.791 14.0713L49.915 15.3408C49.4242 16.2718 49.0475 17.0462 48.7852 17.6641L48.1377 19.1367C47.9769 19.5007 47.8372 19.7588 47.7188 19.9111C47.6003 20.055 47.4352 20.127 47.2236 20.127C47.012 20.127 46.8047 20.0931 46.6016 20.0254C46.4069 19.9577 46.2376 19.8688 46.0938 19.7588C45.7637 19.5133 45.5986 19.2552 45.5986 18.9844C45.5986 18.7051 45.6875 18.3285 45.8652 17.8545C46.0514 17.3721 46.2799 16.8346 46.5508 16.2422L48.3281 12.4844C48.9629 11.0879 49.2803 10.2035 49.2803 9.83105C49.2803 9.4502 49.1068 9.25977 48.7598 9.25977ZM50.0166 12.8398C50.0251 12.8398 50.0293 12.8356 50.0293 12.8271L50.042 12.8018C50.0251 12.8187 50.0166 12.8314 50.0166 12.8398ZM67.2441 3.88965C67.0579 4.08431 66.8464 4.24512 66.6094 4.37207C66.3724 4.49056 66.1227 4.56673 65.8604 4.60059C65.598 4.62598 65.3483 4.58366 65.1113 4.47363C64.8828 4.36361 64.6839 4.20703 64.5146 4.00391C64.1507 3.58073 63.9688 3.15332 63.9688 2.72168C63.9688 2.29004 64.0365 1.96842 64.1719 1.75684C64.3158 1.53678 64.4935 1.35905 64.7051 1.22363C65.1113 0.961263 65.4922 0.830078 65.8477 0.830078C66.2116 0.830078 66.4909 0.855469 66.6855 0.90625C66.8887 0.957031 67.0749 1.04167 67.2441 1.16016C67.6589 1.43945 67.8662 1.78223 67.8662 2.18848C67.8662 2.58626 67.807 2.92057 67.6885 3.19141C67.5785 3.45378 67.4303 3.68652 67.2441 3.88965ZM64.6416 17.626C64.8617 17.626 64.9717 17.7699 64.9717 18.0576C64.9717 18.4385 64.7982 18.832 64.4512 19.2383C63.9434 19.8307 63.262 20.127 62.4072 20.127C61.4255 20.127 60.7526 19.7292 60.3887 18.9336C60.2533 18.6543 60.1855 18.3158 60.1855 17.918C60.1855 17.5202 60.2533 17.0801 60.3887 16.5977C60.5326 16.1068 60.7061 15.5947 60.9092 15.0615C61.1208 14.5199 61.3493 13.974 61.5947 13.4238L62.2676 11.8242C62.7585 10.6309 63.0039 9.84375 63.0039 9.46289C63.0039 9.08203 62.9616 8.83236 62.877 8.71387C62.8008 8.58691 62.7161 8.48958 62.623 8.42188L62.3691 8.24414C62.2845 8.1849 62.2422 8.08333 62.2422 7.93945C62.2422 7.78711 62.2972 7.64323 62.4072 7.50781C62.5257 7.3724 62.6781 7.25391 62.8643 7.15234C63.2451 6.95768 63.6895 6.86035 64.1973 6.86035C65.4414 6.86035 66.0635 7.1862 66.0635 7.83789C66.0635 8.59961 65.8646 9.47135 65.4668 10.4531C65.069 11.4264 64.7305 12.2135 64.4512 12.8145L63.6895 14.5664C63.1309 15.8529 62.8516 16.7796 62.8516 17.3467C62.8516 17.7191 63.0378 17.9053 63.4102 17.9053C63.7741 17.9053 64.0492 17.8587 64.2354 17.7656C64.4215 17.6725 64.557 17.626 64.6416 17.626ZM79.6729 17.499C79.8675 17.499 79.9648 17.5964 79.9648 17.791C79.9648 18.5273 79.6009 19.1452 78.873 19.6445C78.3822 19.9661 77.8066 20.127 77.1465 20.127C76.6048 20.127 76.1901 20 75.9023 19.7461C75.3861 19.2891 75.1279 18.7305 75.1279 18.0703C75.1279 17.2324 75.4792 15.9502 76.1816 14.2236C74.8783 15.984 73.9642 17.1562 73.4395 17.7402C72.9147 18.3158 72.4577 18.7643 72.0684 19.0859C71.222 19.7799 70.4561 20.127 69.7705 20.127C68.721 20.127 68.0228 19.6742 67.6758 18.7686C67.5742 18.4893 67.5234 18.1719 67.5234 17.8164C67.5234 17.4525 67.5827 17.0505 67.7012 16.6104C67.8281 16.1618 67.9889 15.6963 68.1836 15.2139C68.3783 14.7314 68.5898 14.2363 68.8184 13.7285L69.5039 12.2051C70.3841 10.25 70.71 9.09049 70.4814 8.72656C70.3799 8.56576 70.1895 8.40495 69.9102 8.24414C69.8086 8.1849 69.7578 8.08333 69.7578 7.93945C69.7578 7.78711 69.8171 7.64323 69.9355 7.50781C70.0625 7.3724 70.2233 7.25391 70.418 7.15234C70.8327 6.95768 71.2474 6.86035 71.6621 6.86035C72.0768 6.86035 72.39 6.9069 72.6016 7C72.8216 7.08464 72.9993 7.19466 73.1348 7.33008C73.4141 7.60938 73.5537 7.91829 73.5537 8.25684C73.5537 8.59538 73.4987 8.97624 73.3887 9.39941C73.2786 9.81413 73.1348 10.2669 72.957 10.7578C72.7793 11.2487 72.5846 11.7565 72.373 12.2812C71.7891 13.6523 71.3955 14.5579 71.1924 14.998L70.7227 15.9756C70.4603 16.5596 70.3291 16.9701 70.3291 17.207C70.3291 17.444 70.3672 17.6133 70.4434 17.7148C70.5195 17.8079 70.6549 17.8545 70.8496 17.8545C71.0527 17.8545 71.2855 17.7614 71.5479 17.5752C71.8102 17.389 72.098 17.1393 72.4111 16.8262C72.7243 16.513 73.0501 16.1533 73.3887 15.7471C73.7272 15.3324 74.0573 14.9049 74.3789 14.4648C75.0137 13.6016 75.4792 12.9076 75.7754 12.3828C77.5697 9.20898 78.526 7.55013 78.6445 7.40625C78.9154 7.04232 79.1904 6.86035 79.4697 6.86035C79.7575 6.86035 80.0072 6.89421 80.2188 6.96191C80.4303 7.02116 80.6123 7.11003 80.7646 7.22852C81.1201 7.49089 81.2344 7.75326 81.1074 8.01562C79.0423 12.3236 77.9294 15.0319 77.7686 16.1406C77.7262 16.5215 77.7051 16.7839 77.7051 16.9277C77.7051 17.571 77.8997 17.8926 78.2891 17.8926C78.653 17.8926 78.9535 17.8291 79.1904 17.7021C79.4274 17.5667 79.5882 17.499 79.6729 17.499ZM91.7969 9.25977C91.306 9.25977 90.4089 9.9707 89.1055 11.3926C88.1322 12.5013 87.4255 13.335 86.9854 13.8936L85.8428 15.3408C85.3519 16.2718 84.9668 17.0462 84.6875 17.6641L84.002 19.1367C83.8242 19.5007 83.6676 19.7588 83.5322 19.9111C83.4053 20.055 83.2275 20.127 82.999 20.127C82.779 20.127 82.5632 20.0846 82.3516 20C82.1484 19.9238 81.9707 19.8223 81.8184 19.6953C81.4967 19.4245 81.3359 19.1283 81.3359 18.8066C81.3359 18.6797 81.429 18.43 81.6152 18.0576L82.0977 17.0293C82.25 16.7246 82.4277 16.3353 82.6309 15.8613L83.3418 14.1221C84.3405 11.6253 84.8398 10.013 84.8398 9.28516C84.8398 8.89583 84.7129 8.60807 84.459 8.42188L84.2051 8.24414C84.1204 8.1849 84.0781 8.08333 84.0781 7.93945C84.0781 7.78711 84.1331 7.64323 84.2432 7.50781C84.3617 7.3724 84.514 7.25391 84.7002 7.15234C85.0811 6.95768 85.4619 6.86035 85.8428 6.86035C86.2321 6.86035 86.5368 6.90267 86.7568 6.9873C86.9769 7.07194 87.1673 7.1862 87.3281 7.33008C87.6497 7.6263 87.8105 7.93522 87.8105 8.25684C87.8105 8.57845 87.7682 8.9043 87.6836 9.23438C87.599 9.55599 87.4932 9.88607 87.3662 10.2246C87.2393 10.5547 87.1038 10.8763 86.96 11.1895C86.6214 11.9173 86.4098 12.3659 86.3252 12.5352C86.249 12.696 86.2279 12.7552 86.2617 12.7129C87.8105 10.707 88.7415 9.52214 89.0547 9.1582C89.7064 8.40495 90.2142 7.88867 90.5781 7.60938C91.2467 7.11003 91.8773 6.86035 92.4697 6.86035C93.0706 6.86035 93.5488 7.04655 93.9043 7.41895C94.2598 7.79134 94.4375 8.28223 94.4375 8.8916C94.4375 9.4248 94.3021 10.0511 94.0312 10.7705C93.7604 11.4899 93.5785 11.9935 93.4854 12.2812L95.3516 9.81836L96.3926 8.57422C97.0189 7.87174 97.569 7.41048 98.043 7.19043C98.5169 6.97038 98.902 6.86035 99.1982 6.86035C99.5029 6.86035 99.7992 6.91536 100.087 7.02539C100.383 7.13542 100.633 7.29199 100.836 7.49512C101.268 7.90983 101.483 8.45996 101.483 9.14551C101.483 9.80566 101.331 10.4827 101.026 11.1768C100.722 11.8708 100.455 12.4421 100.227 12.8906C99.998 13.3307 99.778 13.7751 99.5664 14.2236C98.9486 15.5693 98.6396 16.568 98.6396 17.2197C98.6396 17.6768 98.8258 17.9053 99.1982 17.9053C99.5537 17.9053 99.8753 17.8291 100.163 17.6768C100.459 17.5244 100.65 17.4482 100.734 17.4482C100.912 17.4482 101.001 17.5371 101.001 17.7148C101.001 18.4681 100.616 19.0986 99.8457 19.6064C99.3294 19.9535 98.8555 20.127 98.4238 20.127C98.0007 20.127 97.6579 20.0762 97.3955 19.9746C97.1331 19.873 96.8962 19.7122 96.6846 19.4922C96.2106 19.0013 95.9736 18.3877 95.9736 17.6514C95.9736 16.915 96.0667 16.238 96.2529 15.6201C96.4391 15.0023 96.6592 14.4056 96.9131 13.8301C97.167 13.2461 97.4209 12.7129 97.6748 12.2305C97.9372 11.7396 98.1361 11.3503 98.2715 11.0625C98.5423 10.4701 98.6777 10.0342 98.6777 9.75488C98.6777 9.4248 98.5042 9.25977 98.1572 9.25977C97.7002 9.25977 96.8792 10.0173 95.6943 11.5322C94.7972 12.7087 94.1751 13.555 93.8281 14.0713L92.9521 15.3408C92.4613 16.2718 92.0846 17.0462 91.8223 17.6641L91.1748 19.1367C91.014 19.5007 90.8743 19.7588 90.7559 19.9111C90.6374 20.055 90.4723 20.127 90.2607 20.127C90.0492 20.127 89.8418 20.0931 89.6387 20.0254C89.444 19.9577 89.2747 19.8688 89.1309 19.7588C88.8008 19.5133 88.6357 19.2552 88.6357 18.9844C88.6357 18.7051 88.7246 18.3285 88.9023 17.8545C89.0885 17.3721 89.3171 16.8346 89.5879 16.2422L91.3652 12.4844C92 11.0879 92.3174 10.2035 92.3174 9.83105C92.3174 9.4502 92.1439 9.25977 91.7969 9.25977ZM93.0537 12.8398C93.0622 12.8398 93.0664 12.8356 93.0664 12.8271L93.0791 12.8018C93.0622 12.8187 93.0537 12.8314 93.0537 12.8398ZM125.985 2.64551C125.74 2.82324 125.452 2.95866 125.122 3.05176C124.8 3.13639 124.365 3.17871 123.814 3.17871C123.273 3.17871 122.566 3.14062 121.694 3.06445C121.491 3.61458 121.284 4.25781 121.072 4.99414L119.612 9.9707C117.81 15.929 115.888 19.2721 113.849 20C113.705 20.0592 113.519 20.0889 113.29 20.0889C113.07 20.0889 112.888 20.0592 112.744 20C112.609 19.9492 112.494 19.8815 112.401 19.7969C112.215 19.6445 112.122 19.4922 112.122 19.3398C112.122 19.1875 112.16 19.0859 112.236 19.0352L112.566 18.832C113.785 18.0365 114.902 15.9206 115.918 12.4844L116.832 9.38672C117.653 6.60221 118.419 4.41439 119.13 2.82324C118.461 2.764 117.953 2.73438 117.606 2.73438C116.608 2.73438 115.888 2.87402 115.448 3.15332C115.017 3.43262 114.712 3.7373 114.534 4.06738C114.365 4.389 114.276 4.61328 114.268 4.74023C114.242 4.97721 114.166 5.12956 114.039 5.19727C113.912 5.25651 113.756 5.28613 113.569 5.28613C113.392 5.28613 113.205 5.22266 113.011 5.0957C112.816 4.96029 112.655 4.79102 112.528 4.58789C112.257 4.17318 112.152 3.70768 112.211 3.19141C112.27 2.66667 112.439 2.2181 112.719 1.8457C113.007 1.46484 113.345 1.15592 113.734 0.918945C114.454 0.478841 115.211 0.258789 116.007 0.258789C116.811 0.258789 117.568 0.301107 118.279 0.385742C118.999 0.461914 119.714 0.550781 120.425 0.652344C122.312 0.90625 123.514 1.0332 124.03 1.0332C124.547 1.0332 124.927 1.00358 125.173 0.944336C125.427 0.885091 125.643 0.796224 125.82 0.677734C125.998 0.559245 126.121 0.483073 126.188 0.449219C126.265 0.406901 126.383 0.385742 126.544 0.385742C126.798 0.385742 126.908 0.580404 126.874 0.969727C126.84 1.35059 126.747 1.68066 126.595 1.95996C126.442 2.23079 126.239 2.45931 125.985 2.64551ZM123.814 15.5566C123.848 14.8203 123.971 14.1178 124.183 13.4492C124.394 12.7721 124.678 12.1204 125.033 11.4941C125.389 10.8594 125.803 10.2627 126.277 9.7041C126.76 9.13704 127.28 8.64193 127.839 8.21875C129.049 7.31315 130.272 6.86035 131.508 6.86035C132.955 6.86035 133.92 7.45703 134.402 8.65039C134.572 9.05664 134.652 9.53906 134.644 10.0977C134.635 10.6478 134.529 11.1598 134.326 11.6338C134.123 12.0993 133.84 12.5267 133.476 12.916C133.12 13.2969 132.693 13.6396 132.193 13.9443C131.702 14.249 131.165 14.5072 130.581 14.7188C129.379 15.1419 128.093 15.362 126.722 15.3789C126.688 15.4974 126.667 15.6751 126.658 15.9121C126.65 16.1491 126.675 16.4157 126.734 16.7119C126.794 16.9997 126.895 17.2578 127.039 17.4863C127.344 17.9941 127.784 18.248 128.359 18.248C129.341 18.248 130.298 17.9603 131.229 17.3848C131.559 17.1901 131.825 16.9912 132.028 16.7881C132.24 16.5765 132.422 16.4707 132.574 16.4707C132.727 16.4707 132.858 16.5638 132.968 16.75C133.086 16.9277 133.146 17.1309 133.146 17.3594C133.146 17.8079 133.019 18.1973 132.765 18.5273C131.698 19.5938 130.111 20.127 128.004 20.127C126.76 20.127 125.761 19.7546 125.008 19.0098C124.161 18.1634 123.764 17.0124 123.814 15.5566ZM131.229 8.54883C130.34 8.54883 129.485 9.1582 128.664 10.377C127.97 11.4264 127.411 12.6706 126.988 14.1094C128.402 13.9655 129.629 13.4069 130.67 12.4336C131.626 11.5195 132.104 10.6436 132.104 9.80566C132.104 8.96777 131.812 8.54883 131.229 8.54883ZM145.752 16.623C145.752 17.4017 146.027 17.791 146.577 17.791C146.958 17.791 147.271 17.7318 147.517 17.6133C147.771 17.4948 147.94 17.4355 148.024 17.4355C148.202 17.4355 148.291 17.5286 148.291 17.7148C148.291 18.4427 147.91 19.069 147.148 19.5938C146.344 20.1439 145.523 20.2793 144.686 20C144.135 19.8053 143.729 19.3864 143.467 18.7432C143.34 18.4131 143.276 18.1126 143.276 17.8418C143.276 17.4017 143.319 16.9362 143.403 16.4453C142.616 18.0534 141.639 19.1621 140.471 19.7715C140.005 20.0085 139.51 20.127 138.985 20.127C138.461 20.127 138.004 20.0212 137.614 19.8096C137.233 19.5895 136.908 19.2891 136.637 18.9082C136.087 18.1126 135.837 17.1139 135.888 15.9121C135.938 14.4056 136.383 12.9287 137.221 11.4814C137.991 10.1273 138.964 9.02279 140.141 8.16797C141.317 7.29622 142.417 6.86035 143.441 6.86035C144.465 6.86035 145.291 7.33008 145.917 8.26953C146.501 7.33008 147.017 6.86035 147.466 6.86035C147.948 6.86035 148.312 6.94922 148.558 7.12695C149.023 7.46549 149.188 7.76172 149.053 8.01562C146.928 12.3659 145.837 15.0742 145.777 16.1406C145.76 16.293 145.752 16.4538 145.752 16.623ZM138.706 16.6738C138.706 17.6895 139.032 18.1973 139.684 18.1973C140.183 18.1973 140.797 17.7741 141.524 16.9277C142.591 15.6836 143.535 14.0078 144.355 11.9004C144.618 11.2402 144.838 10.5801 145.016 9.91992C144.982 9.3444 144.741 8.92122 144.292 8.65039C144.14 8.55729 143.911 8.51074 143.606 8.51074C143.31 8.51074 142.959 8.62077 142.553 8.84082C142.155 9.06087 141.766 9.36133 141.385 9.74219C141.012 10.123 140.661 10.5758 140.331 11.1006C140.009 11.6169 139.726 12.1797 139.48 12.7891C138.964 14.0924 138.706 15.3874 138.706 16.6738Z" fill="#62D2A2"/>
</svg>
