<svg width="287" height="36" viewBox="0 0 287 36" fill="none" xmlns="http://www.w3.org/2000/svg">
<path d="M14.3389 23.4531C14.3389 22.0469 14.7399 19.8906 15.542 16.9844C13.0316 17.0469 11.1097 17.1198 9.77637 17.2031C9.37012 17.9427 9.00033 18.6458 8.66699 19.3125L7.69824 21.2344C6.41699 23.7552 5.26595 25.4167 4.24512 26.2188C3.46387 26.8438 2.63574 27.1562 1.76074 27.1562C1.09408 27.1562 0.588867 26.9375 0.245117 26.5C0.120117 26.3229 0.0472005 26.1562 0.0263672 26C0.00553385 25.8333 0.0419922 25.724 0.135742 25.6719C1.33366 25.224 2.30762 24.5417 3.05762 23.625C3.71387 22.8021 4.37012 21.7969 5.02637 20.6094L6.79199 17.4531L5.80762 17.5938C5.18262 17.7083 4.87012 17.6094 4.87012 17.2969C4.87012 16.9844 5.05762 16.6875 5.43262 16.4062C6.08887 15.9167 6.72949 15.5938 7.35449 15.4375L8.02637 15.2812C9.7347 12.4583 11.0368 10.4844 11.9326 9.35938C12.8389 8.23438 13.6618 7.29688 14.4014 6.54688C15.1514 5.79688 15.9378 5.13542 16.7607 4.5625C18.5628 3.32292 20.3389 2.70312 22.0889 2.70312C22.6201 2.70312 22.9795 2.8125 23.167 3.03125C23.4795 3.375 23.5785 3.74479 23.4639 4.14062C23.3493 4.52604 23.1618 5.08333 22.9014 5.8125C21.2347 10.3542 20.2191 13.1667 19.8545 14.25C20.0212 14.2396 20.1722 14.2344 20.3076 14.2344H20.6514C21.818 14.2344 22.443 14.349 22.5264 14.5781C22.5472 14.651 22.5576 14.7865 22.5576 14.9844C22.5576 15.1719 22.4951 15.3906 22.3701 15.6406C22.2555 15.8906 22.0628 16.1042 21.792 16.2812C21.2399 16.6562 20.3128 16.875 19.0107 16.9375C18.3024 19.3854 17.8962 21.0781 17.792 22.0156C17.6982 22.9531 17.7295 23.5885 17.8857 23.9219C18.0524 24.2448 18.2816 24.4062 18.5732 24.4062C18.8753 24.4062 19.1201 24.3802 19.3076 24.3281C19.4951 24.2656 19.6618 24.1979 19.8076 24.125L20.2139 23.9375C20.318 23.875 20.4222 23.8438 20.5264 23.8438C20.641 23.8438 20.7347 23.9167 20.8076 24.0625C20.8805 24.1979 20.917 24.3802 20.917 24.6094C20.917 24.8385 20.818 25.1146 20.6201 25.4375C20.4326 25.75 20.1826 26.0312 19.8701 26.2812C19.141 26.8646 18.318 27.1562 17.4014 27.1562C15.9951 27.1562 15.0576 26.5312 14.5889 25.2812C14.4222 24.8438 14.3389 24.4531 14.3389 24.1094V23.4531ZM11.2139 14.7344C13.068 14.4948 14.7868 14.3542 16.3701 14.3125C16.6618 13.4167 16.9743 12.5312 17.3076 11.6562L18.2764 9.15625C18.6097 8.36458 18.9378 7.61458 19.2607 6.90625L20.167 4.98438C18.0003 5.54688 15.8597 7.41667 13.7451 10.5938C13.2972 11.2604 12.8597 11.9479 12.4326 12.6562L11.2139 14.7344ZM23.667 22.5625C23.667 21.9583 23.7087 21.3802 23.792 20.8281C23.8857 20.276 24.0003 19.7188 24.1357 19.1562C24.2816 18.5938 24.443 18.0312 24.6201 17.4688L26.3701 12.125C27.7555 7.79167 28.6253 4.40625 28.9795 1.96875C29.0941 1.09375 29.5212 0.65625 30.2607 0.65625C30.6982 0.65625 31.068 0.770833 31.3701 1C31.9222 1.44792 32.1878 1.92708 32.167 2.4375C32.1566 2.9375 32.0837 3.5 31.9482 4.125C31.8232 4.73958 31.6566 5.41146 31.4482 6.14062C31.2503 6.86979 31.0212 7.63542 30.7607 8.4375C30.0628 10.5 29.542 11.9896 29.1982 12.9062L28.3076 15.2344C29.2139 13.8281 29.9535 12.8646 30.5264 12.3438C31.6722 11.3333 32.8649 10.8281 34.1045 10.8281C35.9274 10.8281 37.141 11.7812 37.7451 13.6875C37.943 14.3438 38.042 15.1615 38.042 16.1406C38.042 17.1198 37.8962 18.0938 37.6045 19.0625C37.3232 20.0208 36.9378 20.9167 36.4482 21.75C35.9587 22.5729 35.3857 23.3177 34.7295 23.9844C34.0837 24.651 33.4014 25.2188 32.6826 25.6875C31.1618 26.6667 29.6878 27.1562 28.2607 27.1562C26.8232 27.1562 25.693 26.7188 24.8701 25.8438C24.068 24.9688 23.667 23.875 23.667 22.5625ZM28.042 25.125C29.0212 25.125 30.016 24.6875 31.0264 23.8125C32.568 22.4792 33.6045 20.5729 34.1357 18.0938C34.3128 17.2812 34.4014 16.4375 34.4014 15.5625C34.4014 14.6771 34.3024 14.0573 34.1045 13.7031C33.9066 13.349 33.5993 13.1719 33.1826 13.1719C32.7764 13.1719 32.3493 13.3385 31.9014 13.6719C31.4535 14.0052 30.9847 14.4479 30.4951 15C30.0055 15.5417 29.5212 16.1719 29.042 16.8906C28.5628 17.599 28.1305 18.3333 27.7451 19.0938C26.9014 20.7708 26.4795 22.1979 26.4795 23.375C26.4795 24.5417 27.0003 25.125 28.042 25.125ZM41.8232 25.9375C41.3857 25.5208 41.042 24.9948 40.792 24.3594C40.542 23.7135 40.4118 22.9531 40.4014 22.0781C40.391 21.2031 40.4951 20.3177 40.7139 19.4219C40.943 18.526 41.2607 17.6615 41.667 16.8281C42.0837 15.9948 42.5785 15.2135 43.1514 14.4844C43.7347 13.7552 44.3753 13.1198 45.0732 12.5781C46.5941 11.4115 48.1722 10.8281 49.8076 10.8281C51.9535 10.8281 53.4066 11.7708 54.167 13.6562C54.7087 15.0208 54.7399 16.6719 54.2607 18.6094C53.8232 20.3906 53.0212 22.026 51.8545 23.5156C50.6982 25.0052 49.3337 26.0625 47.7607 26.6875C46.9691 27 46.1878 27.1562 45.417 27.1562C44.6566 27.1562 43.9743 27.0573 43.3701 26.8594C42.7764 26.6615 42.2607 26.3542 41.8232 25.9375ZM44.8076 18.3594C44.4951 19.1302 44.2451 19.9219 44.0576 20.7344C43.8805 21.5469 43.7972 22.3177 43.8076 23.0469C43.818 23.7656 43.9274 24.3333 44.1357 24.75C44.3545 25.1562 44.7035 25.3594 45.1826 25.3594C45.6618 25.3594 46.1305 25.1979 46.5889 24.875C47.0576 24.5417 47.5107 24.1042 47.9482 23.5625C48.3857 23.0208 48.7972 22.3958 49.1826 21.6875C49.568 20.9792 49.9066 20.2396 50.1982 19.4688C50.8337 17.7917 51.141 16.3021 51.1201 15C51.1201 13.8542 50.8857 13.125 50.417 12.8125C50.2295 12.6875 49.9639 12.625 49.6201 12.625C49.2868 12.625 48.9014 12.7812 48.4639 13.0938C48.0264 13.3958 47.5889 13.8073 47.1514 14.3281C46.7139 14.849 46.292 15.4583 45.8857 16.1562C45.4795 16.8542 45.1201 17.5885 44.8076 18.3594ZM71.417 23.9219C71.6566 23.9219 71.7764 24.0417 71.7764 24.2812C71.7764 25.1875 71.3285 25.9479 70.4326 26.5625C69.8285 26.9583 69.1201 27.1562 68.3076 27.1562C67.641 27.1562 67.1305 27 66.7764 26.6875C66.141 26.125 65.8232 25.4375 65.8232 24.625C65.8232 23.5938 66.2555 22.0156 67.1201 19.8906C65.516 22.0573 64.391 23.5 63.7451 24.2188C63.0993 24.9271 62.5368 25.4792 62.0576 25.875C61.016 26.7292 60.0732 27.1562 59.2295 27.1562C57.9378 27.1562 57.0785 26.599 56.6514 25.4844C56.5264 25.1406 56.4639 24.75 56.4639 24.3125C56.4639 23.8646 56.5368 23.3698 56.6826 22.8281C56.8389 22.276 57.0368 21.7031 57.2764 21.1094C57.516 20.5156 57.7764 19.9062 58.0576 19.2812L58.9014 17.4062C59.9847 15 60.3857 13.5729 60.1045 13.125C59.9795 12.9271 59.7451 12.7292 59.4014 12.5312C59.2764 12.4583 59.2139 12.3333 59.2139 12.1562C59.2139 11.9688 59.2868 11.7917 59.4326 11.625C59.5889 11.4583 59.7868 11.3125 60.0264 11.1875C60.5368 10.9479 61.0472 10.8281 61.5576 10.8281C62.068 10.8281 62.4535 10.8854 62.7139 11C62.9847 11.1042 63.2035 11.2396 63.3701 11.4062C63.7139 11.75 63.8857 12.1302 63.8857 12.5469C63.8857 12.9635 63.818 13.4323 63.6826 13.9531C63.5472 14.4635 63.3701 15.0208 63.1514 15.625C62.9326 16.2292 62.693 16.8542 62.4326 17.5C61.7139 19.1875 61.2295 20.3021 60.9795 20.8438L60.4014 22.0469C60.0785 22.7656 59.917 23.2708 59.917 23.5625C59.917 23.8542 59.9639 24.0625 60.0576 24.1875C60.1514 24.3021 60.318 24.3594 60.5576 24.3594C60.8076 24.3594 61.0941 24.2448 61.417 24.0156C61.7399 23.7865 62.0941 23.4792 62.4795 23.0938C62.8649 22.7083 63.266 22.2656 63.6826 21.7656C64.0993 21.2552 64.5055 20.7292 64.9014 20.1875C65.6826 19.125 66.2555 18.2708 66.6201 17.625C68.8285 13.7188 70.0055 11.6771 70.1514 11.5C70.4847 11.0521 70.8232 10.8281 71.167 10.8281C71.5212 10.8281 71.8285 10.8698 72.0889 10.9531C72.3493 11.026 72.5732 11.1354 72.7607 11.2812C73.1982 11.6042 73.3389 11.9271 73.1826 12.25C70.641 17.5521 69.2712 20.8854 69.0732 22.25C69.0212 22.7188 68.9951 23.0417 68.9951 23.2188C68.9951 24.0104 69.2347 24.4062 69.7139 24.4062C70.1618 24.4062 70.5316 24.3281 70.8232 24.1719C71.1149 24.0052 71.3128 23.9219 71.417 23.9219ZM83.6514 22.9062C83.9535 22.9062 84.1045 23.1094 84.1045 23.5156C84.1045 23.8594 84.0003 24.1927 83.792 24.5156C83.5107 25.1198 82.9482 25.6927 82.1045 26.2344C81.1462 26.849 80.1826 27.1562 79.2139 27.1562C77.5368 27.1562 76.4743 26.4062 76.0264 24.9062C75.4951 23.125 76.292 19.349 78.417 13.5781C77.2191 13.474 76.568 13.2656 76.4639 12.9531C76.4326 12.8594 76.417 12.7604 76.417 12.6562C76.417 12.5417 76.4639 12.4115 76.5576 12.2656C76.6618 12.1198 76.792 11.9792 76.9482 11.8438C77.3128 11.5417 77.6826 11.3906 78.0576 11.3906H79.292C80.417 8.75521 81.2191 7.25521 81.6982 6.89062C81.9274 6.72396 82.1826 6.64062 82.4639 6.64062C82.7451 6.64062 82.9795 6.67708 83.167 6.75C83.3545 6.82292 83.5212 6.92708 83.667 7.0625C84.0003 7.375 84.167 7.72396 84.167 8.10938C84.167 8.31771 84.1045 8.55729 83.9795 8.82812L82.8232 11.3438H83.1982C83.8441 11.3438 84.3649 11.3385 84.7607 11.3281C84.7607 11.3281 85.0576 11.3229 85.6514 11.3125C85.8493 11.3021 86.0941 11.2969 86.3857 11.2969C86.6878 11.2969 86.8389 11.4062 86.8389 11.625C86.8389 13 85.2139 13.6875 81.9639 13.6875H81.8389L80.7764 16.4375C79.5785 19.6875 78.9795 21.9635 78.9795 23.2656C78.9795 23.6302 79.0628 23.9167 79.2295 24.125C79.3962 24.3229 79.7087 24.4219 80.167 24.4219C80.6253 24.4219 81.042 24.3438 81.417 24.1875C81.792 24.0312 82.1201 23.8594 82.4014 23.6719C82.6826 23.474 82.9222 23.2969 83.1201 23.1406C83.3285 22.9844 83.5055 22.9062 83.6514 22.9062ZM96.7139 19.875C96.7555 18.625 96.9482 17.3125 97.292 15.9375C97.6462 14.5521 98.1253 13.2188 98.7295 11.9375C99.3337 10.6562 100.047 9.45312 100.87 8.32812C101.703 7.20312 102.615 6.22396 103.604 5.39062C105.729 3.59896 107.959 2.70312 110.292 2.70312C113.125 2.70312 114.974 3.98958 115.839 6.5625C116.151 7.46875 116.287 8.58854 116.245 9.92188C116.214 11.2448 116.011 12.5938 115.636 13.9688C115.271 15.3438 114.771 16.6719 114.136 17.9531C113.511 19.2344 112.776 20.4375 111.933 21.5625C111.089 22.6771 110.172 23.6458 109.183 24.4688C107.068 26.2604 104.953 27.1562 102.839 27.1562C100.943 27.1562 99.4378 26.5365 98.3232 25.2969C97.1878 24.026 96.6514 22.2188 96.7139 19.875ZM101.808 13.875C101.276 15.0833 100.844 16.3177 100.511 17.5781C100.188 18.8385 100.011 19.9115 99.9795 20.7969C99.9587 21.6719 100.011 22.3542 100.136 22.8438C100.271 23.3229 100.459 23.7292 100.698 24.0625C101.198 24.7708 101.839 25.125 102.62 25.125C103.412 25.125 104.203 24.8698 104.995 24.3594C105.787 23.849 106.552 23.1667 107.292 22.3125C108.042 21.4583 108.75 20.474 109.417 19.3594C110.094 18.2448 110.688 17.0833 111.198 15.875C112.677 12.3646 113.219 9.46875 112.823 7.1875C112.552 5.60417 111.688 4.8125 110.229 4.8125C108.896 4.8125 107.412 5.71875 105.776 7.53125C104.235 9.21875 102.912 11.3333 101.808 13.875ZM131.448 23.9219C131.688 23.9219 131.808 24.0417 131.808 24.2812C131.808 25.1875 131.36 25.9479 130.464 26.5625C129.86 26.9583 129.151 27.1562 128.339 27.1562C127.672 27.1562 127.162 27 126.808 26.6875C126.172 26.125 125.854 25.4375 125.854 24.625C125.854 23.5938 126.287 22.0156 127.151 19.8906C125.547 22.0573 124.422 23.5 123.776 24.2188C123.131 24.9271 122.568 25.4792 122.089 25.875C121.047 26.7292 120.104 27.1562 119.261 27.1562C117.969 27.1562 117.11 26.599 116.683 25.4844C116.558 25.1406 116.495 24.75 116.495 24.3125C116.495 23.8646 116.568 23.3698 116.714 22.8281C116.87 22.276 117.068 21.7031 117.308 21.1094C117.547 20.5156 117.808 19.9062 118.089 19.2812L118.933 17.4062C120.016 15 120.417 13.5729 120.136 13.125C120.011 12.9271 119.776 12.7292 119.433 12.5312C119.308 12.4583 119.245 12.3333 119.245 12.1562C119.245 11.9688 119.318 11.7917 119.464 11.625C119.62 11.4583 119.818 11.3125 120.058 11.1875C120.568 10.9479 121.078 10.8281 121.589 10.8281C122.099 10.8281 122.485 10.8854 122.745 11C123.016 11.1042 123.235 11.2396 123.401 11.4062C123.745 11.75 123.917 12.1302 123.917 12.5469C123.917 12.9635 123.849 13.4323 123.714 13.9531C123.578 14.4635 123.401 15.0208 123.183 15.625C122.964 16.2292 122.724 16.8542 122.464 17.5C121.745 19.1875 121.261 20.3021 121.011 20.8438L120.433 22.0469C120.11 22.7656 119.948 23.2708 119.948 23.5625C119.948 23.8542 119.995 24.0625 120.089 24.1875C120.183 24.3021 120.349 24.3594 120.589 24.3594C120.839 24.3594 121.125 24.2448 121.448 24.0156C121.771 23.7865 122.125 23.4792 122.511 23.0938C122.896 22.7083 123.297 22.2656 123.714 21.7656C124.131 21.2552 124.537 20.7292 124.933 20.1875C125.714 19.125 126.287 18.2708 126.651 17.625C128.86 13.7188 130.037 11.6771 130.183 11.5C130.516 11.0521 130.854 10.8281 131.198 10.8281C131.552 10.8281 131.86 10.8698 132.12 10.9531C132.381 11.026 132.604 11.1354 132.792 11.2812C133.229 11.6042 133.37 11.9271 133.214 12.25C130.672 17.5521 129.302 20.8854 129.104 22.25C129.052 22.7188 129.026 23.0417 129.026 23.2188C129.026 24.0104 129.266 24.4062 129.745 24.4062C130.193 24.4062 130.563 24.3281 130.854 24.1719C131.146 24.0052 131.344 23.9219 131.448 23.9219ZM134.651 26.625C134.443 26.4688 134.276 26.2969 134.151 26.1094C134.026 25.9115 133.959 25.7448 133.948 25.6094C133.938 25.4635 133.964 25.2917 134.026 25.0938C134.099 24.8854 134.193 24.6354 134.308 24.3438C136.433 19.1146 137.495 15.6042 137.495 13.8125C137.464 13.3125 137.292 12.9583 136.979 12.75L136.667 12.5312C136.573 12.4583 136.521 12.3333 136.511 12.1562C136.511 11.9688 136.578 11.7917 136.714 11.625C136.849 11.4583 137.026 11.3125 137.245 11.1875C137.693 10.9479 138.151 10.8281 138.62 10.8281C139.099 10.8281 139.469 10.8802 139.729 10.9844C140 11.0885 140.229 11.2292 140.417 11.4062C140.813 11.7812 141.011 12.1771 141.011 12.5938C141.021 13.0104 140.974 13.4323 140.87 13.8594C140.776 14.2865 140.662 14.7083 140.526 15.125C140.391 15.5312 140.256 15.9219 140.12 16.2969C139.985 16.6615 139.896 16.9323 139.854 17.1094C139.771 17.474 139.74 17.7031 139.761 17.7969C140.011 17.5781 140.162 17.3646 140.214 17.1562L140.823 16C142.177 13.5625 143.5 11.9479 144.792 11.1562C145.167 10.9375 145.615 10.8281 146.136 10.8281C146.667 10.8281 147.094 11.0156 147.417 11.3906C147.74 11.7552 147.907 12.1615 147.917 12.6094C147.938 13.0573 147.907 13.4323 147.823 13.7344C147.75 14.026 147.636 14.3021 147.479 14.5625C147.136 15.1458 146.719 15.4375 146.229 15.4375C146.094 15.4375 145.969 15.3906 145.854 15.2969L145.511 15C145.167 14.6979 144.834 14.5469 144.511 14.5469C144.198 14.5469 143.813 14.7552 143.354 15.1719C142.907 15.5885 142.438 16.125 141.948 16.7812C140.302 18.9583 138.959 21.3958 137.917 24.0938L137.229 25.9062C137.052 26.3542 136.896 26.6771 136.761 26.875C136.625 27.0625 136.422 27.1562 136.151 27.1562C135.891 27.1562 135.625 27.1042 135.354 27C135.094 26.9062 134.86 26.7812 134.651 26.625ZM157.901 20.4375L157.917 19.9844C158.032 16.8698 158.818 13.9271 160.276 11.1562C161.62 8.625 163.313 6.57812 165.354 5.01562C167.375 3.47396 169.344 2.70312 171.261 2.70312C172.719 2.70312 173.87 3.20833 174.714 4.21875C175.433 5.09375 175.792 6.16667 175.792 7.4375C175.792 8.95833 175.235 10.4583 174.12 11.9375C173.474 12.7917 172.787 13.4062 172.058 13.7812C171.714 13.9688 171.391 14.0625 171.089 14.0625C170.797 14.0625 170.526 14 170.276 13.875C170.026 13.75 169.808 13.5938 169.62 13.4062C169.235 13 169.042 12.6354 169.042 12.3125C169.042 11.9896 169.125 11.7656 169.292 11.6406C171 10.4115 172.162 9.14583 172.776 7.84375C173.016 7.34375 173.136 6.85417 173.136 6.375C173.136 5.36458 172.657 4.85938 171.698 4.85938C170.198 4.85938 168.651 5.67708 167.058 7.3125C165.568 8.82292 164.318 10.7188 163.308 13C162.256 15.3438 161.698 17.4948 161.636 19.4531L161.62 20.0469C161.62 22.3906 162.115 23.9271 163.104 24.6562C163.459 24.9167 163.881 25.0469 164.37 25.0469C164.87 25.0469 165.339 24.9844 165.776 24.8594C166.214 24.7344 166.651 24.5625 167.089 24.3438C167.797 23.9792 168.703 23.349 169.808 22.4531C170.141 22.1927 170.417 22.2292 170.636 22.5625C170.823 22.8333 170.917 23.1458 170.917 23.5C170.917 24.0938 170.834 24.5 170.667 24.7188C170.511 24.9271 170.235 25.1771 169.839 25.4688C169.453 25.7604 168.979 26.0312 168.417 26.2812C167.104 26.8646 165.818 27.1562 164.558 27.1562C163.297 27.1562 162.282 27.0052 161.511 26.7031C160.74 26.3906 160.089 25.9479 159.558 25.375C158.453 24.1667 157.901 22.5208 157.901 20.4375ZM176.042 25.9375C175.604 25.5208 175.261 24.9948 175.011 24.3594C174.761 23.7135 174.631 22.9531 174.62 22.0781C174.61 21.2031 174.714 20.3177 174.933 19.4219C175.162 18.526 175.479 17.6615 175.886 16.8281C176.302 15.9948 176.797 15.2135 177.37 14.4844C177.953 13.7552 178.594 13.1198 179.292 12.5781C180.813 11.4115 182.391 10.8281 184.026 10.8281C186.172 10.8281 187.625 11.7708 188.386 13.6562C188.927 15.0208 188.959 16.6719 188.479 18.6094C188.042 20.3906 187.24 22.026 186.073 23.5156C184.917 25.0052 183.552 26.0625 181.979 26.6875C181.188 27 180.407 27.1562 179.636 27.1562C178.875 27.1562 178.193 27.0573 177.589 26.8594C176.995 26.6615 176.479 26.3542 176.042 25.9375ZM179.026 18.3594C178.714 19.1302 178.464 19.9219 178.276 20.7344C178.099 21.5469 178.016 22.3177 178.026 23.0469C178.037 23.7656 178.146 24.3333 178.354 24.75C178.573 25.1562 178.922 25.3594 179.401 25.3594C179.881 25.3594 180.349 25.1979 180.808 24.875C181.276 24.5417 181.729 24.1042 182.167 23.5625C182.604 23.0208 183.016 22.3958 183.401 21.6875C183.787 20.9792 184.125 20.2396 184.417 19.4688C185.052 17.7917 185.36 16.3021 185.339 15C185.339 13.8542 185.104 13.125 184.636 12.8125C184.448 12.6875 184.183 12.625 183.839 12.625C183.506 12.625 183.12 12.7812 182.683 13.0938C182.245 13.3958 181.808 13.8073 181.37 14.3281C180.933 14.849 180.511 15.4583 180.104 16.1562C179.698 16.8542 179.339 17.5885 179.026 18.3594ZM202.839 13.7812C202.235 13.7812 201.131 14.6562 199.526 16.4062C198.328 17.7708 197.459 18.7969 196.917 19.4844L195.511 21.2656C194.907 22.4115 194.433 23.3646 194.089 24.125L193.245 25.9375C193.026 26.3854 192.834 26.7031 192.667 26.8906C192.511 27.0677 192.292 27.1562 192.011 27.1562C191.74 27.1562 191.474 27.1042 191.214 27C190.964 26.9062 190.745 26.7812 190.558 26.625C190.162 26.2917 189.964 25.9271 189.964 25.5312C189.964 25.375 190.078 25.0677 190.308 24.6094L190.901 23.3438C191.089 22.9688 191.308 22.4896 191.558 21.9062L192.433 19.7656C193.662 16.6927 194.276 14.7083 194.276 13.8125C194.276 13.3333 194.12 12.9792 193.808 12.75L193.495 12.5312C193.391 12.4583 193.339 12.3333 193.339 12.1562C193.339 11.9688 193.407 11.7917 193.542 11.625C193.688 11.4583 193.875 11.3125 194.104 11.1875C194.573 10.9479 195.042 10.8281 195.511 10.8281C195.99 10.8281 196.365 10.8802 196.636 10.9844C196.907 11.0885 197.141 11.2292 197.339 11.4062C197.735 11.7708 197.933 12.151 197.933 12.5469C197.933 12.9427 197.881 13.3438 197.776 13.75C197.672 14.1458 197.542 14.5521 197.386 14.9688C197.229 15.375 197.063 15.7708 196.886 16.1562C196.469 17.0521 196.209 17.6042 196.104 17.8125C196.011 18.0104 195.985 18.0833 196.026 18.0312C197.933 15.5625 199.078 14.1042 199.464 13.6562C200.266 12.7292 200.891 12.0938 201.339 11.75C202.162 11.1354 202.938 10.8281 203.667 10.8281C204.407 10.8281 204.995 11.0573 205.433 11.5156C205.87 11.974 206.089 12.5781 206.089 13.3281C206.089 13.9844 205.922 14.7552 205.589 15.6406C205.256 16.526 205.032 17.1458 204.917 17.5L207.214 14.4688L208.495 12.9375C209.266 12.0729 209.943 11.5052 210.526 11.2344C211.11 10.9635 211.584 10.8281 211.948 10.8281C212.323 10.8281 212.688 10.8958 213.042 11.0312C213.407 11.1667 213.714 11.3594 213.964 11.6094C214.495 12.1198 214.761 12.7969 214.761 13.6406C214.761 14.4531 214.573 15.2865 214.198 16.1406C213.823 16.9948 213.495 17.6979 213.214 18.25C212.933 18.7917 212.662 19.3385 212.401 19.8906C211.641 21.5469 211.261 22.776 211.261 23.5781C211.261 24.1406 211.49 24.4219 211.948 24.4219C212.386 24.4219 212.782 24.3281 213.136 24.1406C213.5 23.9531 213.735 23.8594 213.839 23.8594C214.058 23.8594 214.167 23.9688 214.167 24.1875C214.167 25.1146 213.693 25.8906 212.745 26.5156C212.11 26.9427 211.526 27.1562 210.995 27.1562C210.474 27.1562 210.052 27.0938 209.729 26.9688C209.407 26.8438 209.115 26.6458 208.854 26.375C208.271 25.7708 207.979 25.0156 207.979 24.1094C207.979 23.2031 208.094 22.3698 208.323 21.6094C208.552 20.849 208.823 20.1146 209.136 19.4062C209.448 18.6875 209.761 18.0312 210.073 17.4375C210.396 16.8333 210.641 16.3542 210.808 16C211.141 15.2708 211.308 14.7344 211.308 14.3906C211.308 13.9844 211.094 13.7812 210.667 13.7812C210.104 13.7812 209.094 14.7135 207.636 16.5781C206.532 18.026 205.766 19.0677 205.339 19.7031L204.261 21.2656C203.657 22.4115 203.193 23.3646 202.87 24.125L202.073 25.9375C201.875 26.3854 201.703 26.7031 201.558 26.8906C201.412 27.0677 201.209 27.1562 200.948 27.1562C200.688 27.1562 200.433 27.1146 200.183 27.0312C199.943 26.9479 199.735 26.8385 199.558 26.7031C199.151 26.401 198.948 26.0833 198.948 25.75C198.948 25.4062 199.058 24.9427 199.276 24.3594C199.506 23.7656 199.787 23.1042 200.12 22.375L202.308 17.75C203.089 16.0312 203.479 14.9427 203.479 14.4844C203.479 14.0156 203.266 13.7812 202.839 13.7812ZM204.386 18.1875C204.396 18.1875 204.401 18.1823 204.401 18.1719L204.417 18.1406C204.396 18.1615 204.386 18.1771 204.386 18.1875ZM219.948 25.5156C219.927 25.6719 219.698 26.4948 219.261 27.9844C218.834 29.474 218.474 30.6562 218.183 31.5312C217.526 33.4896 216.985 34.7083 216.558 35.1875C216.214 35.5625 215.797 35.75 215.308 35.75C214.714 35.75 214.261 35.4583 213.948 34.875C213.854 34.7083 213.808 34.5208 213.808 34.3125C213.808 34.1146 213.964 33.6771 214.276 33C215.099 31.2812 216.198 27.8958 217.573 22.8438C218.125 20.8438 218.49 19.4844 218.667 18.7656L219.167 16.8125C219.49 15.5208 219.677 14.6458 219.729 14.1875C219.792 13.7188 219.766 13.3906 219.651 13.2031C219.537 13.0052 219.407 12.8594 219.261 12.7656C219.115 12.6615 218.979 12.5729 218.854 12.5C218.729 12.4271 218.677 12.2969 218.698 12.1094C218.719 11.9115 218.802 11.7344 218.948 11.5781C219.104 11.4115 219.297 11.2708 219.526 11.1562C219.995 10.9375 220.464 10.8281 220.933 10.8281C221.412 10.8281 221.787 10.8854 222.058 11C222.328 11.1146 222.552 11.2708 222.729 11.4688C223.104 11.875 223.271 12.2708 223.229 12.6562C223.125 13.4583 223.011 14.1458 222.886 14.7188C224.709 12.125 226.599 10.8281 228.558 10.8281C230.339 10.8281 231.532 11.75 232.136 13.5938C232.344 14.2396 232.448 15.026 232.448 15.9531C232.448 16.8802 232.308 17.8125 232.026 18.75C231.745 19.6771 231.365 20.5573 230.886 21.3906C230.407 22.224 229.849 22.9948 229.214 23.7031C228.578 24.401 227.907 25.0104 227.198 25.5312C225.698 26.6146 224.282 27.1562 222.948 27.1562C221.615 27.1562 220.615 26.6094 219.948 25.5156ZM222.354 18.8594C221.979 19.5885 221.672 20.3177 221.433 21.0469C221.203 21.776 221.089 22.4427 221.089 23.0469C221.089 23.651 221.219 24.151 221.479 24.5469C221.74 24.9323 222.125 25.125 222.636 25.125C223.146 25.125 223.651 24.9896 224.151 24.7188C224.662 24.4375 225.151 24.0625 225.62 23.5938C226.099 23.125 226.542 22.5781 226.948 21.9531C227.365 21.3177 227.724 20.6458 228.026 19.9375C228.683 18.3958 229.011 16.9323 229.011 15.5469C229.011 14.7969 228.912 14.2135 228.714 13.7969C228.516 13.3802 228.209 13.1719 227.792 13.1719C227.386 13.1719 226.959 13.3333 226.511 13.6562C226.063 13.9688 225.594 14.3906 225.104 14.9219C224.615 15.4427 224.131 16.0469 223.651 16.7344C223.172 17.4115 222.74 18.1198 222.354 18.8594ZM246.839 22.8438C246.839 23.8021 247.177 24.2812 247.854 24.2812C248.323 24.2812 248.709 24.2083 249.011 24.0625C249.323 23.9167 249.532 23.8438 249.636 23.8438C249.854 23.8438 249.964 23.9583 249.964 24.1875C249.964 25.0833 249.495 25.8542 248.558 26.5C247.568 27.1771 246.558 27.3438 245.526 27C244.849 26.7604 244.349 26.2448 244.026 25.4531C243.87 25.0469 243.792 24.6771 243.792 24.3438C243.792 23.8021 243.844 23.2292 243.948 22.625C242.979 24.6042 241.776 25.9688 240.339 26.7188C239.766 27.0104 239.157 27.1562 238.511 27.1562C237.865 27.1562 237.302 27.026 236.823 26.7656C236.354 26.4948 235.953 26.125 235.62 25.6562C234.943 24.6771 234.636 23.4479 234.698 21.9688C234.761 20.1146 235.308 18.2969 236.339 16.5156C237.287 14.849 238.485 13.4896 239.933 12.4375C241.381 11.3646 242.735 10.8281 243.995 10.8281C245.256 10.8281 246.271 11.4062 247.042 12.5625C247.761 11.4062 248.396 10.8281 248.948 10.8281C249.542 10.8281 249.99 10.9375 250.292 11.1562C250.865 11.5729 251.068 11.9375 250.901 12.25C248.287 17.6042 246.943 20.9375 246.87 22.25C246.849 22.4375 246.839 22.6354 246.839 22.8438ZM238.167 22.9062C238.167 24.1562 238.568 24.7812 239.37 24.7812C239.985 24.7812 240.74 24.2604 241.636 23.2188C242.948 21.6875 244.11 19.625 245.12 17.0312C245.443 16.2188 245.714 15.4062 245.933 14.5938C245.891 13.8854 245.594 13.3646 245.042 13.0312C244.854 12.9167 244.573 12.8594 244.198 12.8594C243.834 12.8594 243.401 12.9948 242.901 13.2656C242.412 13.5365 241.933 13.9062 241.464 14.375C241.006 14.8438 240.573 15.401 240.167 16.0469C239.771 16.6823 239.422 17.375 239.12 18.125C238.485 19.7292 238.167 21.3229 238.167 22.9062ZM263.386 13.7812C263.063 13.7812 262.604 14.0938 262.011 14.7188C261.417 15.3333 260.901 15.8958 260.464 16.4062L259.136 18L256.573 21.2656C255.969 22.4115 255.495 23.3646 255.151 24.125L254.308 25.9375C254.089 26.3854 253.896 26.7031 253.729 26.8906C253.573 27.0677 253.354 27.1562 253.073 27.1562C252.802 27.1562 252.537 27.1042 252.276 27C252.026 26.9062 251.808 26.7812 251.62 26.625C251.224 26.2917 251.026 25.9271 251.026 25.5312C251.026 25.375 251.141 25.0677 251.37 24.6094L251.964 23.3438C252.151 22.9688 252.37 22.4896 252.62 21.9062L253.495 19.7656C254.724 16.6927 255.339 14.7083 255.339 13.8125C255.339 13.3333 255.183 12.9792 254.87 12.75L254.558 12.5312C254.453 12.4583 254.401 12.3333 254.401 12.1562C254.401 11.9688 254.469 11.7917 254.604 11.625C254.75 11.4583 254.938 11.3125 255.167 11.1875C255.636 10.9479 256.104 10.8281 256.573 10.8281C257.052 10.8281 257.422 10.8802 257.683 10.9844C257.943 11.0885 258.162 11.2292 258.339 11.4062C258.724 11.7708 258.917 12.151 258.917 12.5469C258.917 12.9427 258.865 13.3438 258.761 13.75C258.667 14.1458 258.542 14.5521 258.386 14.9688C258.24 15.375 258.084 15.776 257.917 16.1719C257.75 16.5677 257.599 16.9115 257.464 17.2031L257.151 17.875C257.068 18.0417 257.047 18.0938 257.089 18.0312C258.245 16.4271 259.006 15.3958 259.37 14.9375L260.464 13.625C261.266 12.6875 261.896 12.0677 262.354 11.7656C263.282 11.1406 264.011 10.8281 264.542 10.8281C265.073 10.8281 265.521 10.8958 265.886 11.0312C266.25 11.1667 266.568 11.3594 266.839 11.6094C267.412 12.1406 267.698 12.8177 267.698 13.6406C267.698 14.4635 267.511 15.3229 267.136 16.2188C266.761 17.1146 266.433 17.8438 266.151 18.4062C265.881 18.9583 265.62 19.5208 265.37 20.0938C264.589 21.8333 264.198 23.099 264.198 23.8906C264.198 24.2448 264.479 24.4219 265.042 24.4219C265.479 24.4219 265.875 24.3281 266.229 24.1406C266.594 23.9531 266.828 23.8594 266.933 23.8594C267.151 23.8594 267.261 23.9688 267.261 24.1875C267.261 25.1146 266.787 25.8906 265.839 26.5156C265.203 26.9427 264.62 27.1562 264.089 27.1562C263.558 27.1562 263.115 27.099 262.761 26.9844C262.417 26.8698 262.11 26.6875 261.839 26.4375C261.224 25.8854 260.917 25.1146 260.917 24.125C260.917 22.9167 261.297 21.4062 262.058 19.5938C262.61 18.3542 263 17.5052 263.229 17.0469L263.761 15.9375C264.084 15.2708 264.245 14.7448 264.245 14.3594C264.245 13.974 263.959 13.7812 263.386 13.7812ZM270.058 25.4844C269.933 25.1406 269.87 24.75 269.87 24.3125C269.87 23.8646 269.943 23.3698 270.089 22.8281C270.245 22.276 270.443 21.7031 270.683 21.1094C270.922 20.5156 271.183 19.9062 271.464 19.2812L272.308 17.4062C273.391 15 273.792 13.5729 273.511 13.125C273.386 12.9271 273.151 12.7292 272.808 12.5312C272.683 12.4583 272.62 12.3333 272.62 12.1562C272.62 11.9688 272.693 11.7917 272.839 11.625C272.995 11.4583 273.193 11.3125 273.433 11.1875C273.943 10.9479 274.453 10.8281 274.964 10.8281C275.474 10.8281 275.86 10.8854 276.12 11C276.391 11.1042 276.61 11.2396 276.776 11.4062C277.12 11.75 277.292 12.1302 277.292 12.5469C277.292 12.9635 277.224 13.4323 277.089 13.9531C276.953 14.4635 276.776 15.0208 276.558 15.625C276.339 16.2292 276.099 16.8542 275.839 17.5C275.12 19.1875 274.636 20.3021 274.386 20.8438L273.808 22.0469C273.485 22.7656 273.323 23.2708 273.323 23.5625C273.323 23.8542 273.37 24.0625 273.464 24.1875C273.558 24.3021 273.724 24.3594 273.964 24.3594C274.214 24.3594 274.485 24.2656 274.776 24.0781C275.078 23.8906 275.401 23.6406 275.745 23.3281C276.089 23.0156 276.443 22.6562 276.808 22.25C277.183 21.8333 277.547 21.401 277.901 20.9531C278.828 19.8073 279.516 18.8229 279.964 18C282.214 13.8542 283.407 11.6875 283.542 11.5C283.886 11.0521 284.229 10.8281 284.573 10.8281C284.927 10.8281 285.235 10.8698 285.495 10.9531C285.756 11.026 285.979 11.1354 286.167 11.2812C286.584 11.5833 286.709 11.9219 286.542 12.2969C286.386 12.6719 286.193 13.1875 285.964 13.8438C283.985 19.5833 282.698 23.1615 282.104 24.5781C281.521 25.9948 281.011 27.1302 280.573 27.9844C280.136 28.849 279.62 29.7188 279.026 30.5938C278.443 31.4688 277.818 32.2656 277.151 32.9844C275.631 34.6094 274.203 35.4792 272.87 35.5938C272.36 35.6354 271.953 35.5625 271.651 35.375C271.131 35.0625 270.87 34.7656 270.87 34.4844C270.87 34.2031 271.104 34.0052 271.573 33.8906C272.052 33.7865 272.542 33.5677 273.042 33.2344C273.552 32.9115 274.042 32.5312 274.511 32.0938C275.886 30.7812 276.953 29.3542 277.714 27.8125C278.36 26.4583 278.881 25.1771 279.276 23.9688L280.495 20.25C280.193 20.6146 279.86 21.0417 279.495 21.5312L278.37 23.0312C277.391 24.2708 276.578 25.151 275.933 25.6719C274.703 26.6615 273.604 27.1562 272.636 27.1562C271.344 27.1562 270.485 26.599 270.058 25.4844Z" fill="#62D2A2"/>
</svg>
