<svg width="129" height="28" viewBox="0 0 129 28" fill="none" xmlns="http://www.w3.org/2000/svg">
<path d="M14.8281 23.4531C14.8281 22.0469 15.2292 19.8906 16.0312 16.9844C13.5208 17.0469 11.599 17.1198 10.2656 17.2031C9.85938 17.9427 9.48958 18.6458 9.15625 19.3125L8.1875 21.2344C6.90625 23.7552 5.75521 25.4167 4.73438 26.2188C3.95312 26.8438 3.125 27.1562 2.25 27.1562C1.58333 27.1562 1.07812 26.9375 0.734375 26.5C0.609375 26.3229 0.536458 26.1562 0.515625 26C0.494792 25.8333 0.53125 25.724 0.625 25.6719C1.82292 25.224 2.79688 24.5417 3.54688 23.625C4.20312 22.8021 4.85938 21.7969 5.51562 20.6094L7.28125 17.4531L6.29688 17.5938C5.67188 17.7083 5.35938 17.6094 5.35938 17.2969C5.35938 16.9844 5.54688 16.6875 5.92188 16.4062C6.57812 15.9167 7.21875 15.5938 7.84375 15.4375L8.51562 15.2812C10.224 12.4583 11.526 10.4844 12.4219 9.35938C13.3281 8.23438 14.151 7.29688 14.8906 6.54688C15.6406 5.79688 16.4271 5.13542 17.25 4.5625C19.0521 3.32292 20.8281 2.70312 22.5781 2.70312C23.1094 2.70312 23.4688 2.8125 23.6562 3.03125C23.9688 3.375 24.0677 3.74479 23.9531 4.14062C23.8385 4.52604 23.651 5.08333 23.3906 5.8125C21.724 10.3542 20.7083 13.1667 20.3438 14.25C20.5104 14.2396 20.6615 14.2344 20.7969 14.2344H21.1406C22.3073 14.2344 22.9323 14.349 23.0156 14.5781C23.0365 14.651 23.0469 14.7865 23.0469 14.9844C23.0469 15.1719 22.9844 15.3906 22.8594 15.6406C22.7448 15.8906 22.5521 16.1042 22.2812 16.2812C21.7292 16.6562 20.8021 16.875 19.5 16.9375C18.7917 19.3854 18.3854 21.0781 18.2812 22.0156C18.1875 22.9531 18.2188 23.5885 18.375 23.9219C18.5417 24.2448 18.7708 24.4062 19.0625 24.4062C19.3646 24.4062 19.6094 24.3802 19.7969 24.3281C19.9844 24.2656 20.151 24.1979 20.2969 24.125L20.7031 23.9375C20.8073 23.875 20.9115 23.8438 21.0156 23.8438C21.1302 23.8438 21.224 23.9167 21.2969 24.0625C21.3698 24.1979 21.4062 24.3802 21.4062 24.6094C21.4062 24.8385 21.3073 25.1146 21.1094 25.4375C20.9219 25.75 20.6719 26.0312 20.3594 26.2812C19.6302 26.8646 18.8073 27.1562 17.8906 27.1562C16.4844 27.1562 15.5469 26.5312 15.0781 25.2812C14.9115 24.8438 14.8281 24.4531 14.8281 24.1094V23.4531ZM11.7031 14.7344C13.5573 14.4948 15.276 14.3542 16.8594 14.3125C17.151 13.4167 17.4635 12.5312 17.7969 11.6562L18.7656 9.15625C19.099 8.36458 19.4271 7.61458 19.75 6.90625L20.6562 4.98438C18.4896 5.54688 16.349 7.41667 14.2344 10.5938C13.7865 11.2604 13.349 11.9479 12.9219 12.6562L11.7031 14.7344ZM24.1562 22.5625C24.1562 21.9583 24.1979 21.3802 24.2812 20.8281C24.375 20.276 24.4896 19.7188 24.625 19.1562C24.7708 18.5938 24.9323 18.0312 25.1094 17.4688L26.8594 12.125C28.2448 7.79167 29.1146 4.40625 29.4688 1.96875C29.5833 1.09375 30.0104 0.65625 30.75 0.65625C31.1875 0.65625 31.5573 0.770833 31.8594 1C32.4115 1.44792 32.6771 1.92708 32.6562 2.4375C32.6458 2.9375 32.5729 3.5 32.4375 4.125C32.3125 4.73958 32.1458 5.41146 31.9375 6.14062C31.7396 6.86979 31.5104 7.63542 31.25 8.4375C30.5521 10.5 30.0312 11.9896 29.6875 12.9062L28.7969 15.2344C29.7031 13.8281 30.4427 12.8646 31.0156 12.3438C32.1615 11.3333 33.3542 10.8281 34.5938 10.8281C36.4167 10.8281 37.6302 11.7812 38.2344 13.6875C38.4323 14.3438 38.5312 15.1615 38.5312 16.1406C38.5312 17.1198 38.3854 18.0938 38.0938 19.0625C37.8125 20.0208 37.4271 20.9167 36.9375 21.75C36.4479 22.5729 35.875 23.3177 35.2188 23.9844C34.5729 24.651 33.8906 25.2188 33.1719 25.6875C31.651 26.6667 30.1771 27.1562 28.75 27.1562C27.3125 27.1562 26.1823 26.7188 25.3594 25.8438C24.5573 24.9688 24.1562 23.875 24.1562 22.5625ZM28.5312 25.125C29.5104 25.125 30.5052 24.6875 31.5156 23.8125C33.0573 22.4792 34.0938 20.5729 34.625 18.0938C34.8021 17.2812 34.8906 16.4375 34.8906 15.5625C34.8906 14.6771 34.7917 14.0573 34.5938 13.7031C34.3958 13.349 34.0885 13.1719 33.6719 13.1719C33.2656 13.1719 32.8385 13.3385 32.3906 13.6719C31.9427 14.0052 31.474 14.4479 30.9844 15C30.4948 15.5417 30.0104 16.1719 29.5312 16.8906C29.0521 17.599 28.6198 18.3333 28.2344 19.0938C27.3906 20.7708 26.9688 22.1979 26.9688 23.375C26.9688 24.5417 27.4896 25.125 28.5312 25.125ZM42.3125 25.9375C41.875 25.5208 41.5312 24.9948 41.2812 24.3594C41.0312 23.7135 40.901 22.9531 40.8906 22.0781C40.8802 21.2031 40.9844 20.3177 41.2031 19.4219C41.4323 18.526 41.75 17.6615 42.1562 16.8281C42.5729 15.9948 43.0677 15.2135 43.6406 14.4844C44.224 13.7552 44.8646 13.1198 45.5625 12.5781C47.0833 11.4115 48.6615 10.8281 50.2969 10.8281C52.4427 10.8281 53.8958 11.7708 54.6562 13.6562C55.1979 15.0208 55.2292 16.6719 54.75 18.6094C54.3125 20.3906 53.5104 22.026 52.3438 23.5156C51.1875 25.0052 49.8229 26.0625 48.25 26.6875C47.4583 27 46.6771 27.1562 45.9062 27.1562C45.1458 27.1562 44.4635 27.0573 43.8594 26.8594C43.2656 26.6615 42.75 26.3542 42.3125 25.9375ZM45.2969 18.3594C44.9844 19.1302 44.7344 19.9219 44.5469 20.7344C44.3698 21.5469 44.2865 22.3177 44.2969 23.0469C44.3073 23.7656 44.4167 24.3333 44.625 24.75C44.8438 25.1562 45.1927 25.3594 45.6719 25.3594C46.151 25.3594 46.6198 25.1979 47.0781 24.875C47.5469 24.5417 48 24.1042 48.4375 23.5625C48.875 23.0208 49.2865 22.3958 49.6719 21.6875C50.0573 20.9792 50.3958 20.2396 50.6875 19.4688C51.3229 17.7917 51.6302 16.3021 51.6094 15C51.6094 13.8542 51.375 13.125 50.9062 12.8125C50.7188 12.6875 50.4531 12.625 50.1094 12.625C49.776 12.625 49.3906 12.7812 48.9531 13.0938C48.5156 13.3958 48.0781 13.8073 47.6406 14.3281C47.2031 14.849 46.7812 15.4583 46.375 16.1562C45.9688 16.8542 45.6094 17.5885 45.2969 18.3594ZM71.9062 23.9219C72.1458 23.9219 72.2656 24.0417 72.2656 24.2812C72.2656 25.1875 71.8177 25.9479 70.9219 26.5625C70.3177 26.9583 69.6094 27.1562 68.7969 27.1562C68.1302 27.1562 67.6198 27 67.2656 26.6875C66.6302 26.125 66.3125 25.4375 66.3125 24.625C66.3125 23.5938 66.7448 22.0156 67.6094 19.8906C66.0052 22.0573 64.8802 23.5 64.2344 24.2188C63.5885 24.9271 63.026 25.4792 62.5469 25.875C61.5052 26.7292 60.5625 27.1562 59.7188 27.1562C58.4271 27.1562 57.5677 26.599 57.1406 25.4844C57.0156 25.1406 56.9531 24.75 56.9531 24.3125C56.9531 23.8646 57.026 23.3698 57.1719 22.8281C57.3281 22.276 57.526 21.7031 57.7656 21.1094C58.0052 20.5156 58.2656 19.9062 58.5469 19.2812L59.3906 17.4062C60.474 15 60.875 13.5729 60.5938 13.125C60.4688 12.9271 60.2344 12.7292 59.8906 12.5312C59.7656 12.4583 59.7031 12.3333 59.7031 12.1562C59.7031 11.9688 59.776 11.7917 59.9219 11.625C60.0781 11.4583 60.276 11.3125 60.5156 11.1875C61.026 10.9479 61.5365 10.8281 62.0469 10.8281C62.5573 10.8281 62.9427 10.8854 63.2031 11C63.474 11.1042 63.6927 11.2396 63.8594 11.4062C64.2031 11.75 64.375 12.1302 64.375 12.5469C64.375 12.9635 64.3073 13.4323 64.1719 13.9531C64.0365 14.4635 63.8594 15.0208 63.6406 15.625C63.4219 16.2292 63.1823 16.8542 62.9219 17.5C62.2031 19.1875 61.7188 20.3021 61.4688 20.8438L60.8906 22.0469C60.5677 22.7656 60.4062 23.2708 60.4062 23.5625C60.4062 23.8542 60.4531 24.0625 60.5469 24.1875C60.6406 24.3021 60.8073 24.3594 61.0469 24.3594C61.2969 24.3594 61.5833 24.2448 61.9062 24.0156C62.2292 23.7865 62.5833 23.4792 62.9688 23.0938C63.3542 22.7083 63.7552 22.2656 64.1719 21.7656C64.5885 21.2552 64.9948 20.7292 65.3906 20.1875C66.1719 19.125 66.7448 18.2708 67.1094 17.625C69.3177 13.7188 70.4948 11.6771 70.6406 11.5C70.974 11.0521 71.3125 10.8281 71.6562 10.8281C72.0104 10.8281 72.3177 10.8698 72.5781 10.9531C72.8385 11.026 73.0625 11.1354 73.25 11.2812C73.6875 11.6042 73.8281 11.9271 73.6719 12.25C71.1302 17.5521 69.7604 20.8854 69.5625 22.25C69.5104 22.7188 69.4844 23.0417 69.4844 23.2188C69.4844 24.0104 69.724 24.4062 70.2031 24.4062C70.651 24.4062 71.0208 24.3281 71.3125 24.1719C71.6042 24.0052 71.8021 23.9219 71.9062 23.9219ZM84.1406 22.9062C84.4427 22.9062 84.5938 23.1094 84.5938 23.5156C84.5938 23.8594 84.4896 24.1927 84.2812 24.5156C84 25.1198 83.4375 25.6927 82.5938 26.2344C81.6354 26.849 80.6719 27.1562 79.7031 27.1562C78.026 27.1562 76.9635 26.4062 76.5156 24.9062C75.9844 23.125 76.7812 19.349 78.9062 13.5781C77.7083 13.474 77.0573 13.2656 76.9531 12.9531C76.9219 12.8594 76.9062 12.7604 76.9062 12.6562C76.9062 12.5417 76.9531 12.4115 77.0469 12.2656C77.151 12.1198 77.2812 11.9792 77.4375 11.8438C77.8021 11.5417 78.1719 11.3906 78.5469 11.3906H79.7812C80.9062 8.75521 81.7083 7.25521 82.1875 6.89062C82.4167 6.72396 82.6719 6.64062 82.9531 6.64062C83.2344 6.64062 83.4688 6.67708 83.6562 6.75C83.8438 6.82292 84.0104 6.92708 84.1562 7.0625C84.4896 7.375 84.6562 7.72396 84.6562 8.10938C84.6562 8.31771 84.5938 8.55729 84.4688 8.82812L83.3125 11.3438H83.6875C84.3333 11.3438 84.8542 11.3385 85.25 11.3281C85.25 11.3281 85.5469 11.3229 86.1406 11.3125C86.3385 11.3021 86.5833 11.2969 86.875 11.2969C87.1771 11.2969 87.3281 11.4062 87.3281 11.625C87.3281 13 85.7031 13.6875 82.4531 13.6875H82.3281L81.2656 16.4375C80.0677 19.6875 79.4688 21.9635 79.4688 23.2656C79.4688 23.6302 79.5521 23.9167 79.7188 24.125C79.8854 24.3229 80.1979 24.4219 80.6562 24.4219C81.1146 24.4219 81.5312 24.3438 81.9062 24.1875C82.2812 24.0312 82.6094 23.8594 82.8906 23.6719C83.1719 23.474 83.4115 23.2969 83.6094 23.1406C83.8177 22.9844 83.9948 22.9062 84.1406 22.9062ZM111.375 22.9062C111.375 23.9062 111.745 24.4062 112.484 24.4062C112.922 24.4062 113.318 24.3125 113.672 24.125C114.036 23.9375 114.271 23.8438 114.375 23.8438C114.594 23.8438 114.703 23.9583 114.703 24.1875C114.703 25.1042 114.214 25.875 113.234 26.5C112.568 26.9375 111.932 27.1562 111.328 27.1562C110.724 27.1562 110.234 27.0885 109.859 26.9531C109.495 26.8073 109.177 26.5833 108.906 26.2812C108.333 25.6562 108.047 24.724 108.047 23.4844C108.047 22.5052 108.229 21.3698 108.594 20.0781C108.958 18.7865 109.224 17.8698 109.391 17.3281L107.766 19.7969C104.401 24.7031 101.562 27.1562 99.25 27.1562C97.6771 27.1562 96.6406 26.5 96.1406 25.1875C95.9844 24.7604 95.9062 24.3854 95.9062 24.0625V23.4688C95.9062 22.1562 96.6406 19.75 98.1094 16.25L101.359 8.6875C101.984 7.1875 102.297 6.26042 102.297 5.90625C102.297 5.55208 102.234 5.28646 102.109 5.10938C101.984 4.93229 101.844 4.79167 101.688 4.6875L101.266 4.375C101.141 4.29167 101.078 4.16667 101.078 4C101.078 3.83333 101.161 3.66667 101.328 3.5C101.495 3.33333 101.714 3.1875 101.984 3.0625C102.526 2.82292 103.057 2.70312 103.578 2.70312C104.109 2.70312 104.516 2.76042 104.797 2.875C105.089 2.97917 105.328 3.11458 105.516 3.28125C105.88 3.625 106.062 4.04167 106.062 4.53125C106.062 5.01042 105.969 5.57812 105.781 6.23438C105.604 6.89062 105.365 7.60938 105.062 8.39062C104.771 9.16146 104.432 9.97917 104.047 10.8438L101.672 16.0625C100.161 19.3854 99.4062 21.5833 99.4062 22.6562V22.8906C99.4062 23.8802 99.7812 24.375 100.531 24.375C101.906 24.375 103.693 22.651 105.891 19.2031C106.547 18.1823 107.203 17.1042 107.859 15.9688L109.766 12.4688C112.495 7.1875 114.068 4.17708 114.484 3.4375C114.693 3.0625 114.99 2.875 115.375 2.875C115.76 2.875 116.083 2.93229 116.344 3.04688C116.604 3.15104 116.828 3.29167 117.016 3.46875C117.453 3.88542 117.562 4.30208 117.344 4.71875C116.354 6.60417 115.151 9.61979 113.734 13.7656C112.161 18.3281 111.375 21.375 111.375 22.9062ZM115.641 24.25C115.641 23.9271 115.708 23.6302 115.844 23.3594C115.99 23.0781 116.167 22.8438 116.375 22.6562C116.812 22.25 117.271 22.0469 117.75 22.0469C118.167 22.0469 118.375 22.2604 118.375 22.6875C118.375 23.7708 118.734 24.526 119.453 24.9531C119.714 25.1094 119.984 25.1875 120.266 25.1875C120.547 25.1875 120.786 25.1562 120.984 25.0938C121.182 25.0312 121.365 24.9323 121.531 24.7969C121.906 24.4948 122.094 24.1354 122.094 23.7188C122.094 23.3021 122 22.9219 121.812 22.5781C121.625 22.224 121.391 21.8542 121.109 21.4688L120.219 20.2188C118.969 18.5521 118.344 17.0156 118.344 15.6094C118.344 14.4427 118.839 13.3854 119.828 12.4375C120.953 11.3646 122.396 10.8281 124.156 10.8281C125.698 10.8281 126.901 11.2083 127.766 11.9688C128.474 12.5833 128.828 13.2865 128.828 14.0781C128.828 14.901 128.516 15.5573 127.891 16.0469C127.328 16.4844 126.766 16.6458 126.203 16.5312C125.953 16.4792 125.76 16.3542 125.625 16.1562C125.49 15.9479 125.464 15.7135 125.547 15.4531C125.63 15.1927 125.672 14.9219 125.672 14.6406C125.672 14.3594 125.62 14.099 125.516 13.8594C125.411 13.6198 125.271 13.4167 125.094 13.25C124.729 12.9062 124.344 12.7344 123.938 12.7344C123.542 12.7344 123.214 12.7812 122.953 12.875C122.693 12.9583 122.464 13.0833 122.266 13.25C121.859 13.625 121.656 14.0885 121.656 14.6406C121.656 15.1823 121.75 15.651 121.938 16.0469C122.125 16.4427 122.354 16.8385 122.625 17.2344C122.906 17.6302 123.208 18.0312 123.531 18.4375C123.854 18.8438 124.151 19.2708 124.422 19.7188C125.078 20.7708 125.406 21.6979 125.406 22.5C125.406 23.2917 125.24 23.9583 124.906 24.5C124.573 25.0312 124.141 25.4896 123.609 25.875C122.474 26.7188 121.203 27.1406 119.797 27.1406C118.453 27.1406 117.391 26.8177 116.609 26.1719C115.964 25.6302 115.641 24.9896 115.641 24.25Z" fill="#62D2A2"/>
</svg>
