<svg width="150" height="26" viewBox="0 0 150 26" fill="none" xmlns="http://www.w3.org/2000/svg">
<path d="M0.4375 18.4375L0.453125 17.9844C0.567708 14.8698 1.35417 11.9271 2.8125 9.15625C4.15625 6.625 5.84896 4.57812 7.89062 3.01562C9.91146 1.47396 11.8802 0.703125 13.7969 0.703125C15.2552 0.703125 16.4062 1.20833 17.25 2.21875C17.9688 3.09375 18.3281 4.16667 18.3281 5.4375C18.3281 6.95833 17.7708 8.45833 16.6562 9.9375C16.0104 10.7917 15.3229 11.4062 14.5938 11.7812C14.25 11.9688 13.9271 12.0625 13.625 12.0625C13.3333 12.0625 13.0625 12 12.8125 11.875C12.5625 11.75 12.3438 11.5938 12.1562 11.4062C11.7708 11 11.5781 10.6354 11.5781 10.3125C11.5781 9.98958 11.6615 9.76562 11.8281 9.64062C13.5365 8.41146 14.6979 7.14583 15.3125 5.84375C15.5521 5.34375 15.6719 4.85417 15.6719 4.375C15.6719 3.36458 15.1927 2.85938 14.2344 2.85938C12.7344 2.85938 11.1875 3.67708 9.59375 5.3125C8.10417 6.82292 6.85417 8.71875 5.84375 11C4.79167 13.3438 4.23438 15.4948 4.17188 17.4531L4.15625 18.0469C4.15625 20.3906 4.65104 21.9271 5.64062 22.6562C5.99479 22.9167 6.41667 23.0469 6.90625 23.0469C7.40625 23.0469 7.875 22.9844 8.3125 22.8594C8.75 22.7344 9.1875 22.5625 9.625 22.3438C10.3333 21.9792 11.2396 21.349 12.3438 20.4531C12.6771 20.1927 12.9531 20.2292 13.1719 20.5625C13.3594 20.8333 13.4531 21.1458 13.4531 21.5C13.4531 22.0938 13.3698 22.5 13.2031 22.7188C13.0469 22.9271 12.7708 23.1771 12.375 23.4688C11.9896 23.7604 11.5156 24.0312 10.9531 24.2812C9.64062 24.8646 8.35417 25.1562 7.09375 25.1562C5.83333 25.1562 4.81771 25.0052 4.04688 24.7031C3.27604 24.3906 2.625 23.9479 2.09375 23.375C0.989583 22.1667 0.4375 20.5208 0.4375 18.4375ZM18.5781 23.9375C18.1406 23.5208 17.7969 22.9948 17.5469 22.3594C17.2969 21.7135 17.1667 20.9531 17.1562 20.0781C17.1458 19.2031 17.25 18.3177 17.4688 17.4219C17.6979 16.526 18.0156 15.6615 18.4219 14.8281C18.8385 13.9948 19.3333 13.2135 19.9062 12.4844C20.4896 11.7552 21.1302 11.1198 21.8281 10.5781C23.349 9.41146 24.9271 8.82812 26.5625 8.82812C28.7083 8.82812 30.1615 9.77083 30.9219 11.6562C31.4635 13.0208 31.4948 14.6719 31.0156 16.6094C30.5781 18.3906 29.776 20.026 28.6094 21.5156C27.4531 23.0052 26.0885 24.0625 24.5156 24.6875C23.724 25 22.9427 25.1562 22.1719 25.1562C21.4115 25.1562 20.7292 25.0573 20.125 24.8594C19.5312 24.6615 19.0156 24.3542 18.5781 23.9375ZM21.5625 16.3594C21.25 17.1302 21 17.9219 20.8125 18.7344C20.6354 19.5469 20.5521 20.3177 20.5625 21.0469C20.5729 21.7656 20.6823 22.3333 20.8906 22.75C21.1094 23.1562 21.4583 23.3594 21.9375 23.3594C22.4167 23.3594 22.8854 23.1979 23.3438 22.875C23.8125 22.5417 24.2656 22.1042 24.7031 21.5625C25.1406 21.0208 25.5521 20.3958 25.9375 19.6875C26.3229 18.9792 26.6615 18.2396 26.9531 17.4688C27.5885 15.7917 27.8958 14.3021 27.875 13C27.875 11.8542 27.6406 11.125 27.1719 10.8125C26.9844 10.6875 26.7188 10.625 26.375 10.625C26.0417 10.625 25.6562 10.7812 25.2188 11.0938C24.7812 11.3958 24.3438 11.8073 23.9062 12.3281C23.4688 12.849 23.0469 13.4583 22.6406 14.1562C22.2344 14.8542 21.875 15.5885 21.5625 16.3594ZM44.8594 11.7812C44.5365 11.7812 44.0781 12.0938 43.4844 12.7188C42.8906 13.3333 42.375 13.8958 41.9375 14.4062L40.6094 16L38.0469 19.2656C37.4427 20.4115 36.9688 21.3646 36.625 22.125L35.7812 23.9375C35.5625 24.3854 35.3698 24.7031 35.2031 24.8906C35.0469 25.0677 34.8281 25.1562 34.5469 25.1562C34.276 25.1562 34.0104 25.1042 33.75 25C33.5 24.9062 33.2812 24.7812 33.0938 24.625C32.6979 24.2917 32.5 23.9271 32.5 23.5312C32.5 23.375 32.6146 23.0677 32.8438 22.6094L33.4375 21.3438C33.625 20.9688 33.8438 20.4896 34.0938 19.9062L34.9688 17.7656C36.1979 14.6927 36.8125 12.7083 36.8125 11.8125C36.8125 11.3333 36.6562 10.9792 36.3438 10.75L36.0312 10.5312C35.9271 10.4583 35.875 10.3333 35.875 10.1562C35.875 9.96875 35.9427 9.79167 36.0781 9.625C36.224 9.45833 36.4115 9.3125 36.6406 9.1875C37.1094 8.94792 37.5781 8.82812 38.0469 8.82812C38.526 8.82812 38.8958 8.88021 39.1562 8.98438C39.4167 9.08854 39.6354 9.22917 39.8125 9.40625C40.1979 9.77083 40.3906 10.151 40.3906 10.5469C40.3906 10.9427 40.3385 11.3438 40.2344 11.75C40.1406 12.1458 40.0156 12.5521 39.8594 12.9688C39.7135 13.375 39.5573 13.776 39.3906 14.1719C39.224 14.5677 39.0729 14.9115 38.9375 15.2031L38.625 15.875C38.5417 16.0417 38.5208 16.0938 38.5625 16.0312C39.7188 14.4271 40.4792 13.3958 40.8438 12.9375L41.9375 11.625C42.7396 10.6875 43.3698 10.0677 43.8281 9.76562C44.7552 9.14062 45.4844 8.82812 46.0156 8.82812C46.5469 8.82812 46.9948 8.89583 47.3594 9.03125C47.724 9.16667 48.0417 9.35938 48.3125 9.60938C48.8854 10.1406 49.1719 10.8177 49.1719 11.6406C49.1719 12.4635 48.9844 13.3229 48.6094 14.2188C48.2344 15.1146 47.9062 15.8438 47.625 16.4062C47.3542 16.9583 47.0938 17.5208 46.8438 18.0938C46.0625 19.8333 45.6719 21.099 45.6719 21.8906C45.6719 22.2448 45.9531 22.4219 46.5156 22.4219C46.9531 22.4219 47.349 22.3281 47.7031 22.1406C48.0677 21.9531 48.3021 21.8594 48.4062 21.8594C48.625 21.8594 48.7344 21.9688 48.7344 22.1875C48.7344 23.1146 48.2604 23.8906 47.3125 24.5156C46.6771 24.9427 46.0938 25.1562 45.5625 25.1562C45.0312 25.1562 44.5885 25.099 44.2344 24.9844C43.8906 24.8698 43.5833 24.6875 43.3125 24.4375C42.6979 23.8854 42.3906 23.1146 42.3906 22.125C42.3906 20.9167 42.7708 19.4062 43.5312 17.5938C44.0833 16.3542 44.474 15.5052 44.7031 15.0469L45.2344 13.9375C45.5573 13.2708 45.7188 12.7448 45.7188 12.3594C45.7188 11.974 45.4323 11.7812 44.8594 11.7812ZM60.6562 20.9062C60.9583 20.9062 61.1094 21.1094 61.1094 21.5156C61.1094 21.8594 61.0052 22.1927 60.7969 22.5156C60.5156 23.1198 59.9531 23.6927 59.1094 24.2344C58.151 24.849 57.1875 25.1562 56.2188 25.1562C54.5417 25.1562 53.4792 24.4062 53.0312 22.9062C52.5 21.125 53.2969 17.349 55.4219 11.5781C54.224 11.474 53.5729 11.2656 53.4688 10.9531C53.4375 10.8594 53.4219 10.7604 53.4219 10.6562C53.4219 10.5417 53.4688 10.4115 53.5625 10.2656C53.6667 10.1198 53.7969 9.97917 53.9531 9.84375C54.3177 9.54167 54.6875 9.39062 55.0625 9.39062H56.2969C57.4219 6.75521 58.224 5.25521 58.7031 4.89062C58.9323 4.72396 59.1875 4.64062 59.4688 4.64062C59.75 4.64062 59.9844 4.67708 60.1719 4.75C60.3594 4.82292 60.526 4.92708 60.6719 5.0625C61.0052 5.375 61.1719 5.72396 61.1719 6.10938C61.1719 6.31771 61.1094 6.55729 60.9844 6.82812L59.8281 9.34375H60.2031C60.849 9.34375 61.3698 9.33854 61.7656 9.32812C61.7656 9.32812 62.0625 9.32292 62.6562 9.3125C62.8542 9.30208 63.099 9.29688 63.3906 9.29688C63.6927 9.29688 63.8438 9.40625 63.8438 9.625C63.8438 11 62.2188 11.6875 58.9688 11.6875H58.8438L57.7812 14.4375C56.5833 17.6875 55.9844 19.9635 55.9844 21.2656C55.9844 21.6302 56.0677 21.9167 56.2344 22.125C56.401 22.3229 56.7135 22.4219 57.1719 22.4219C57.6302 22.4219 58.0469 22.3438 58.4219 22.1875C58.7969 22.0312 59.125 21.8594 59.4062 21.6719C59.6875 21.474 59.9271 21.2969 60.125 21.1406C60.3333 20.9844 60.5104 20.9062 60.6562 20.9062ZM75.125 20.8438C75.125 21.8021 75.4635 22.2812 76.1406 22.2812C76.6094 22.2812 76.9948 22.2083 77.2969 22.0625C77.6094 21.9167 77.8177 21.8438 77.9219 21.8438C78.1406 21.8438 78.25 21.9583 78.25 22.1875C78.25 23.0833 77.7812 23.8542 76.8438 24.5C75.8542 25.1771 74.8438 25.3438 73.8125 25C73.1354 24.7604 72.6354 24.2448 72.3125 23.4531C72.1562 23.0469 72.0781 22.6771 72.0781 22.3438C72.0781 21.8021 72.1302 21.2292 72.2344 20.625C71.2656 22.6042 70.0625 23.9688 68.625 24.7188C68.0521 25.0104 67.4427 25.1562 66.7969 25.1562C66.151 25.1562 65.5885 25.026 65.1094 24.7656C64.6406 24.4948 64.2396 24.125 63.9062 23.6562C63.2292 22.6771 62.9219 21.4479 62.9844 19.9688C63.0469 18.1146 63.5938 16.2969 64.625 14.5156C65.5729 12.849 66.7708 11.4896 68.2188 10.4375C69.6667 9.36458 71.0208 8.82812 72.2812 8.82812C73.5417 8.82812 74.5573 9.40625 75.3281 10.5625C76.0469 9.40625 76.6823 8.82812 77.2344 8.82812C77.8281 8.82812 78.276 8.9375 78.5781 9.15625C79.151 9.57292 79.3542 9.9375 79.1875 10.25C76.5729 15.6042 75.2292 18.9375 75.1562 20.25C75.1354 20.4375 75.125 20.6354 75.125 20.8438ZM66.4531 20.9062C66.4531 22.1562 66.8542 22.7812 67.6562 22.7812C68.2708 22.7812 69.026 22.2604 69.9219 21.2188C71.2344 19.6875 72.3958 17.625 73.4062 15.0312C73.7292 14.2188 74 13.4062 74.2188 12.5938C74.1771 11.8854 73.8802 11.3646 73.3281 11.0312C73.1406 10.9167 72.8594 10.8594 72.4844 10.8594C72.1198 10.8594 71.6875 10.9948 71.1875 11.2656C70.6979 11.5365 70.2188 11.9062 69.75 12.375C69.2917 12.8438 68.8594 13.401 68.4531 14.0469C68.0573 14.6823 67.7083 15.375 67.4062 16.125C66.7708 17.7292 66.4531 19.3229 66.4531 20.9062ZM80.3438 19.6094C80.3646 18.7031 80.5052 17.8021 80.7656 16.9062C81.0365 16 81.3906 15.1458 81.8281 14.3438C82.276 13.5417 82.8021 12.8021 83.4062 12.125C84.0208 11.4479 84.6875 10.8646 85.4062 10.375C86.9062 9.34375 88.4844 8.82812 90.1406 8.82812C91.849 8.82812 93.0104 9.51042 93.625 10.875C93.8438 11.3646 93.9427 11.9219 93.9219 12.5469C93.9115 13.1615 93.8125 13.7292 93.625 14.25C93.4375 14.7604 93.2031 15.2188 92.9219 15.625C92.2865 16.5417 91.6458 17 91 17C90.2812 17 89.75 16.8021 89.4062 16.4062C89.1042 16.0625 89.0104 15.6615 89.125 15.2031C89.1562 15.0677 89.25 14.9479 89.4062 14.8438C89.5625 14.7292 89.7604 14.5521 90 14.3125C90.6771 13.6042 91.0312 12.776 91.0625 11.8281C91.0833 11.1823 90.6875 10.8594 89.875 10.8594C89 10.8594 88.0833 11.349 87.125 12.3281C85.7292 13.7552 84.7448 15.5833 84.1719 17.8125C83.6719 19.75 83.7656 21.1667 84.4531 22.0625C84.8594 22.5833 85.4115 22.8438 86.1094 22.8438C87.2865 22.8438 88.4219 22.4271 89.5156 21.5938C89.849 21.3333 90.1198 21.0677 90.3281 20.7969C90.5365 20.526 90.7292 20.3906 90.9062 20.3906C91.0833 20.3906 91.2292 20.4792 91.3438 20.6562C91.4688 20.8229 91.5312 21.0417 91.5312 21.3125C91.5312 21.9271 91.2552 22.5312 90.7031 23.125C89.2865 24.4792 87.5833 25.1562 85.5938 25.1562C83.8958 25.1562 82.5833 24.6719 81.6562 23.7031C80.7396 22.7448 80.3021 21.3802 80.3438 19.6094ZM104.406 20.9062C104.708 20.9062 104.859 21.1094 104.859 21.5156C104.859 21.8594 104.755 22.1927 104.547 22.5156C104.266 23.1198 103.703 23.6927 102.859 24.2344C101.901 24.849 100.938 25.1562 99.9688 25.1562C98.2917 25.1562 97.2292 24.4062 96.7812 22.9062C96.25 21.125 97.0469 17.349 99.1719 11.5781C97.974 11.474 97.3229 11.2656 97.2188 10.9531C97.1875 10.8594 97.1719 10.7604 97.1719 10.6562C97.1719 10.5417 97.2188 10.4115 97.3125 10.2656C97.4167 10.1198 97.5469 9.97917 97.7031 9.84375C98.0677 9.54167 98.4375 9.39062 98.8125 9.39062H100.047C101.172 6.75521 101.974 5.25521 102.453 4.89062C102.682 4.72396 102.938 4.64062 103.219 4.64062C103.5 4.64062 103.734 4.67708 103.922 4.75C104.109 4.82292 104.276 4.92708 104.422 5.0625C104.755 5.375 104.922 5.72396 104.922 6.10938C104.922 6.31771 104.859 6.55729 104.734 6.82812L103.578 9.34375H103.953C104.599 9.34375 105.12 9.33854 105.516 9.32812C105.516 9.32812 105.812 9.32292 106.406 9.3125C106.604 9.30208 106.849 9.29688 107.141 9.29688C107.443 9.29688 107.594 9.40625 107.594 9.625C107.594 11 105.969 11.6875 102.719 11.6875H102.594L101.531 14.4375C100.333 17.6875 99.7344 19.9635 99.7344 21.2656C99.7344 21.6302 99.8177 21.9167 99.9844 22.125C100.151 22.3229 100.464 22.4219 100.922 22.4219C101.38 22.4219 101.797 22.3438 102.172 22.1875C102.547 22.0312 102.875 21.8594 103.156 21.6719C103.438 21.474 103.677 21.2969 103.875 21.1406C104.083 20.9844 104.26 20.9062 104.406 20.9062ZM131.641 20.9062C131.641 21.9062 132.01 22.4062 132.75 22.4062C133.188 22.4062 133.583 22.3125 133.938 22.125C134.302 21.9375 134.536 21.8438 134.641 21.8438C134.859 21.8438 134.969 21.9583 134.969 22.1875C134.969 23.1042 134.479 23.875 133.5 24.5C132.833 24.9375 132.198 25.1562 131.594 25.1562C130.99 25.1562 130.5 25.0885 130.125 24.9531C129.76 24.8073 129.443 24.5833 129.172 24.2812C128.599 23.6562 128.312 22.724 128.312 21.4844C128.312 20.5052 128.495 19.3698 128.859 18.0781C129.224 16.7865 129.49 15.8698 129.656 15.3281L128.031 17.7969C124.667 22.7031 121.828 25.1562 119.516 25.1562C117.943 25.1562 116.906 24.5 116.406 23.1875C116.25 22.7604 116.172 22.3854 116.172 22.0625V21.4688C116.172 20.1562 116.906 17.75 118.375 14.25L121.625 6.6875C122.25 5.1875 122.562 4.26042 122.562 3.90625C122.562 3.55208 122.5 3.28646 122.375 3.10938C122.25 2.93229 122.109 2.79167 121.953 2.6875L121.531 2.375C121.406 2.29167 121.344 2.16667 121.344 2C121.344 1.83333 121.427 1.66667 121.594 1.5C121.76 1.33333 121.979 1.1875 122.25 1.0625C122.792 0.822917 123.323 0.703125 123.844 0.703125C124.375 0.703125 124.781 0.760417 125.062 0.875C125.354 0.979167 125.594 1.11458 125.781 1.28125C126.146 1.625 126.328 2.04167 126.328 2.53125C126.328 3.01042 126.234 3.57812 126.047 4.23438C125.87 4.89062 125.63 5.60938 125.328 6.39062C125.036 7.16146 124.698 7.97917 124.312 8.84375L121.938 14.0625C120.427 17.3854 119.672 19.5833 119.672 20.6562V20.8906C119.672 21.8802 120.047 22.375 120.797 22.375C122.172 22.375 123.958 20.651 126.156 17.2031C126.812 16.1823 127.469 15.1042 128.125 13.9688L130.031 10.4688C132.76 5.1875 134.333 2.17708 134.75 1.4375C134.958 1.0625 135.255 0.875 135.641 0.875C136.026 0.875 136.349 0.932292 136.609 1.04688C136.87 1.15104 137.094 1.29167 137.281 1.46875C137.719 1.88542 137.828 2.30208 137.609 2.71875C136.62 4.60417 135.417 7.61979 134 11.7656C132.427 16.3281 131.641 19.375 131.641 20.9062ZM135.906 22.25C135.906 21.9271 135.974 21.6302 136.109 21.3594C136.255 21.0781 136.432 20.8438 136.641 20.6562C137.078 20.25 137.536 20.0469 138.016 20.0469C138.432 20.0469 138.641 20.2604 138.641 20.6875C138.641 21.7708 139 22.526 139.719 22.9531C139.979 23.1094 140.25 23.1875 140.531 23.1875C140.812 23.1875 141.052 23.1562 141.25 23.0938C141.448 23.0312 141.63 22.9323 141.797 22.7969C142.172 22.4948 142.359 22.1354 142.359 21.7188C142.359 21.3021 142.266 20.9219 142.078 20.5781C141.891 20.224 141.656 19.8542 141.375 19.4688L140.484 18.2188C139.234 16.5521 138.609 15.0156 138.609 13.6094C138.609 12.4427 139.104 11.3854 140.094 10.4375C141.219 9.36458 142.661 8.82812 144.422 8.82812C145.964 8.82812 147.167 9.20833 148.031 9.96875C148.74 10.5833 149.094 11.2865 149.094 12.0781C149.094 12.901 148.781 13.5573 148.156 14.0469C147.594 14.4844 147.031 14.6458 146.469 14.5312C146.219 14.4792 146.026 14.3542 145.891 14.1562C145.755 13.9479 145.729 13.7135 145.812 13.4531C145.896 13.1927 145.938 12.9219 145.938 12.6406C145.938 12.3594 145.885 12.099 145.781 11.8594C145.677 11.6198 145.536 11.4167 145.359 11.25C144.995 10.9062 144.609 10.7344 144.203 10.7344C143.807 10.7344 143.479 10.7812 143.219 10.875C142.958 10.9583 142.729 11.0833 142.531 11.25C142.125 11.625 141.922 12.0885 141.922 12.6406C141.922 13.1823 142.016 13.651 142.203 14.0469C142.391 14.4427 142.62 14.8385 142.891 15.2344C143.172 15.6302 143.474 16.0312 143.797 16.4375C144.12 16.8438 144.417 17.2708 144.688 17.7188C145.344 18.7708 145.672 19.6979 145.672 20.5C145.672 21.2917 145.505 21.9583 145.172 22.5C144.839 23.0312 144.406 23.4896 143.875 23.875C142.74 24.7188 141.469 25.1406 140.062 25.1406C138.719 25.1406 137.656 24.8177 136.875 24.1719C136.229 23.6302 135.906 22.9896 135.906 22.25Z" fill="#62D2A2"/>
</svg>
