<svg width="199" height="36" viewBox="0 0 199 36" fill="none" xmlns="http://www.w3.org/2000/svg">
<path d="M14.9531 16.2615C14.651 16.2511 14.3333 16.2354 14 16.2146C13.6771 16.1833 13.2917 16.1625 12.8438 16.1521C11.8646 16.1313 10.8021 16.1729 9.65625 16.2771C9.39583 17.1729 8.96354 18.2771 8.35938 19.5896C7.76562 20.8917 7.17708 21.9958 6.59375 22.9021C5.34375 24.8396 4.07292 26.0375 2.78125 26.4958C2.59375 26.5688 2.40104 26.6052 2.20312 26.6052C2.01562 26.6052 1.84375 26.5688 1.6875 26.4958C1.53125 26.4333 1.40104 26.35 1.29688 26.2458C1.07812 26.0479 0.96875 25.8292 0.96875 25.5896C0.96875 25.35 1.04688 25.1729 1.20312 25.0583C2.68229 23.9854 4.20312 21.2823 5.76562 16.949C5.65104 16.9802 5.53646 17.0115 5.42188 17.0427C5.30729 17.074 5.20833 17.1052 5.125 17.1365C5.04167 17.1677 4.94271 17.1833 4.82812 17.1833C4.72396 17.1833 4.60417 17.1521 4.46875 17.0896C4.34375 17.0167 4.22917 16.9333 4.125 16.8396C3.89583 16.6313 3.78125 16.4281 3.78125 16.2302C3.78125 16.0323 3.86979 15.85 4.04688 15.6833C4.23438 15.5063 4.46354 15.3396 4.73438 15.1833C5.23438 14.8917 5.86458 14.6208 6.625 14.3708L7.46875 11.7458C8.45833 8.67293 9.40625 6.54272 10.3125 5.35522C9.45833 5.28231 8.82812 5.24585 8.42188 5.24585C7.19271 5.24585 6.30729 5.41772 5.76562 5.76147C5.23438 6.10522 4.85938 6.48022 4.64062 6.88647C4.43229 7.28231 4.32292 7.55835 4.3125 7.7146C4.28125 8.00627 4.1875 8.19377 4.03125 8.2771C3.875 8.35002 3.68229 8.38647 3.45312 8.38647C3.23438 8.38647 3.00521 8.30835 2.76562 8.1521C2.52604 7.98543 2.32812 7.7771 2.17188 7.5271C1.83854 7.01668 1.70833 6.44377 1.78125 5.80835C1.85417 5.16252 2.0625 4.61043 2.40625 4.1521C2.76042 3.68335 3.17708 3.30314 3.65625 3.01147C4.54167 2.46981 5.47396 2.19897 6.45312 2.19897C7.44271 2.19897 8.375 2.25106 9.25 2.35522C10.1354 2.44897 11.0156 2.55835 11.8906 2.68335C14.2135 2.99585 15.6927 3.1521 16.3281 3.1521C16.9635 3.1521 17.4323 3.11564 17.7344 3.04272C18.0469 2.96981 18.3125 2.86043 18.5312 2.7146C18.75 2.56877 18.901 2.47502 18.9844 2.43335C19.0781 2.38127 19.224 2.35522 19.4219 2.35522C19.7344 2.35522 19.8698 2.59481 19.8281 3.07397C19.7865 3.54272 19.6719 3.94897 19.4844 4.29272C19.2969 4.62606 19.0521 4.9021 18.75 5.12085C18.1354 5.56877 17.3542 5.79272 16.4062 5.79272C15.4583 5.79272 14.3073 5.73022 12.9531 5.60522C12.6094 6.30314 12.2812 7.21981 11.9688 8.35522L10.5312 13.5115C11.5104 13.3552 12.2552 13.2771 12.7656 13.2771C13.2865 13.2771 13.7135 13.3292 14.0469 13.4333C14.3802 13.5375 14.6771 13.6833 14.9375 13.8708C15.5417 14.2771 15.8385 14.7771 15.8281 15.3708C15.8177 15.9646 15.526 16.2615 14.9531 16.2615ZM29.7812 22.3396C29.7812 23.2979 30.1198 23.7771 30.7969 23.7771C31.2656 23.7771 31.651 23.7042 31.9531 23.5583C32.2656 23.4125 32.474 23.3396 32.5781 23.3396C32.7969 23.3396 32.9062 23.4542 32.9062 23.6833C32.9062 24.5792 32.4375 25.35 31.5 25.9958C30.5104 26.6729 29.5 26.8396 28.4688 26.4958C27.7917 26.2563 27.2917 25.7406 26.9688 24.949C26.8125 24.5427 26.7344 24.1729 26.7344 23.8396C26.7344 23.2979 26.7865 22.725 26.8906 22.1208C25.9219 24.1 24.7188 25.4646 23.2812 26.2146C22.7083 26.5063 22.099 26.6521 21.4531 26.6521C20.8073 26.6521 20.2448 26.5219 19.7656 26.2615C19.2969 25.9906 18.8958 25.6208 18.5625 25.1521C17.8854 24.1729 17.5781 22.9438 17.6406 21.4646C17.7031 19.6104 18.25 17.7927 19.2812 16.0115C20.2292 14.3448 21.4271 12.9854 22.875 11.9333C24.3229 10.8604 25.6771 10.324 26.9375 10.324C28.1979 10.324 29.2135 10.9021 29.9844 12.0583C30.7031 10.9021 31.3385 10.324 31.8906 10.324C32.4844 10.324 32.9323 10.4333 33.2344 10.6521C33.8073 11.0688 34.0104 11.4333 33.8438 11.7458C31.2292 17.1 29.8854 20.4333 29.8125 21.7458C29.7917 21.9333 29.7812 22.1313 29.7812 22.3396ZM21.1094 22.4021C21.1094 23.6521 21.5104 24.2771 22.3125 24.2771C22.9271 24.2771 23.6823 23.7563 24.5781 22.7146C25.8906 21.1833 27.0521 19.1208 28.0625 16.5271C28.3854 15.7146 28.6562 14.9021 28.875 14.0896C28.8333 13.3813 28.5365 12.8604 27.9844 12.5271C27.7969 12.4125 27.5156 12.3552 27.1406 12.3552C26.776 12.3552 26.3438 12.4906 25.8438 12.7615C25.3542 13.0323 24.875 13.4021 24.4062 13.8708C23.9479 14.3396 23.5156 14.8969 23.1094 15.5427C22.7135 16.1781 22.3646 16.8708 22.0625 17.6208C21.4271 19.225 21.1094 20.8188 21.1094 22.4021ZM46.3281 13.2771C46.0052 13.2771 45.5469 13.5896 44.9531 14.2146C44.3594 14.8292 43.8438 15.3917 43.4062 15.9021L42.0781 17.4958L39.5156 20.7615C38.9115 21.9073 38.4375 22.8604 38.0938 23.6208L37.25 25.4333C37.0312 25.8813 36.8385 26.199 36.6719 26.3865C36.5156 26.5636 36.2969 26.6521 36.0156 26.6521C35.7448 26.6521 35.4792 26.6 35.2188 26.4958C34.9688 26.4021 34.75 26.2771 34.5625 26.1208C34.1667 25.7875 33.9688 25.4229 33.9688 25.0271C33.9688 24.8708 34.0833 24.5636 34.3125 24.1052L34.9062 22.8396C35.0938 22.4646 35.3125 21.9854 35.5625 21.4021L36.4375 19.2615C37.6667 16.1886 38.2812 14.2042 38.2812 13.3083C38.2812 12.8292 38.125 12.475 37.8125 12.2458L37.5 12.0271C37.3958 11.9542 37.3438 11.8292 37.3438 11.6521C37.3438 11.4646 37.4115 11.2875 37.5469 11.1208C37.6927 10.9542 37.8802 10.8083 38.1094 10.6833C38.5781 10.4438 39.0469 10.324 39.5156 10.324C39.9948 10.324 40.3646 10.3761 40.625 10.4802C40.8854 10.5844 41.1042 10.725 41.2812 10.9021C41.6667 11.2667 41.8594 11.6469 41.8594 12.0427C41.8594 12.4386 41.8073 12.8396 41.7031 13.2458C41.6094 13.6417 41.4844 14.0479 41.3281 14.4646C41.1823 14.8708 41.026 15.2719 40.8594 15.6677C40.6927 16.0636 40.5417 16.4073 40.4062 16.699L40.0938 17.3708C40.0104 17.5375 39.9896 17.5896 40.0312 17.5271C41.1875 15.9229 41.9479 14.8917 42.3125 14.4333L43.4062 13.1208C44.2083 12.1833 44.8385 11.5636 45.2969 11.2615C46.224 10.6365 46.9531 10.324 47.4844 10.324C48.0156 10.324 48.4635 10.3917 48.8281 10.5271C49.1927 10.6625 49.5104 10.8552 49.7812 11.1052C50.3542 11.6365 50.6406 12.3136 50.6406 13.1365C50.6406 13.9594 50.4531 14.8188 50.0781 15.7146C49.7031 16.6104 49.375 17.3396 49.0938 17.9021C48.8229 18.4542 48.5625 19.0167 48.3125 19.5896C47.5312 21.3292 47.1406 22.5948 47.1406 23.3865C47.1406 23.7406 47.4219 23.9177 47.9844 23.9177C48.4219 23.9177 48.8177 23.824 49.1719 23.6365C49.5365 23.449 49.7708 23.3552 49.875 23.3552C50.0938 23.3552 50.2031 23.4646 50.2031 23.6833C50.2031 24.6104 49.7292 25.3865 48.7812 26.0115C48.1458 26.4386 47.5625 26.6521 47.0312 26.6521C46.5 26.6521 46.0573 26.5948 45.7031 26.4802C45.3594 26.3656 45.0521 26.1833 44.7812 25.9333C44.1667 25.3813 43.8594 24.6104 43.8594 23.6208C43.8594 22.4125 44.2396 20.9021 45 19.0896C45.5521 17.85 45.9427 17.0011 46.1719 16.5427L46.7031 15.4333C47.026 14.7667 47.1875 14.2406 47.1875 13.8552C47.1875 13.4698 46.901 13.2771 46.3281 13.2771ZM52.9688 21.1052C52.9896 20.199 53.1302 19.2979 53.3906 18.4021C53.6615 17.4958 54.0156 16.6417 54.4531 15.8396C54.901 15.0375 55.4271 14.2979 56.0312 13.6208C56.6458 12.9438 57.3125 12.3604 58.0312 11.8708C59.5312 10.8396 61.1094 10.324 62.7656 10.324C64.474 10.324 65.6354 11.0063 66.25 12.3708C66.4688 12.8604 66.5677 13.4177 66.5469 14.0427C66.5365 14.6573 66.4375 15.225 66.25 15.7458C66.0625 16.2563 65.8281 16.7146 65.5469 17.1208C64.9115 18.0375 64.2708 18.4958 63.625 18.4958C62.9062 18.4958 62.375 18.2979 62.0312 17.9021C61.7292 17.5583 61.6354 17.1573 61.75 16.699C61.7812 16.5636 61.875 16.4438 62.0312 16.3396C62.1875 16.225 62.3854 16.0479 62.625 15.8083C63.3021 15.1 63.6562 14.2719 63.6875 13.324C63.7083 12.6781 63.3125 12.3552 62.5 12.3552C61.625 12.3552 60.7083 12.8448 59.75 13.824C58.3542 15.2511 57.3698 17.0792 56.7969 19.3083C56.2969 21.2458 56.3906 22.6625 57.0781 23.5583C57.4844 24.0792 58.0365 24.3396 58.7344 24.3396C59.9115 24.3396 61.0469 23.9229 62.1406 23.0896C62.474 22.8292 62.7448 22.5636 62.9531 22.2927C63.1615 22.0219 63.3542 21.8865 63.5312 21.8865C63.7083 21.8865 63.8542 21.975 63.9688 22.1521C64.0938 22.3188 64.1562 22.5375 64.1562 22.8083C64.1562 23.4229 63.8802 24.0271 63.3281 24.6208C61.9115 25.975 60.2083 26.6521 58.2188 26.6521C56.5208 26.6521 55.2083 26.1677 54.2812 25.199C53.3646 24.2406 52.9271 22.8761 52.9688 21.1052ZM67.9062 24.9802C67.7812 24.6365 67.7188 24.2458 67.7188 23.8083C67.7188 23.3604 67.7917 22.8656 67.9375 22.324C68.0938 21.7719 68.2917 21.199 68.5312 20.6052C68.7708 20.0115 69.0312 19.4021 69.3125 18.7771L70.1562 16.9021C71.2396 14.4958 71.6406 13.0688 71.3594 12.6208C71.2344 12.4229 71 12.225 70.6562 12.0271C70.5312 11.9542 70.4688 11.8292 70.4688 11.6521C70.4688 11.4646 70.5417 11.2875 70.6875 11.1208C70.8438 10.9542 71.0417 10.8083 71.2812 10.6833C71.7917 10.4438 72.3021 10.324 72.8125 10.324C73.3229 10.324 73.7083 10.3813 73.9688 10.4958C74.2396 10.6 74.4583 10.7354 74.625 10.9021C74.9688 11.2458 75.1406 11.6261 75.1406 12.0427C75.1406 12.4594 75.0729 12.9281 74.9375 13.449C74.8021 13.9594 74.625 14.5167 74.4062 15.1208C74.1875 15.725 73.9479 16.35 73.6875 16.9958C72.9688 18.6833 72.4844 19.7979 72.2344 20.3396L71.6562 21.5427C71.3333 22.2615 71.1719 22.7667 71.1719 23.0583C71.1719 23.35 71.2188 23.5583 71.3125 23.6833C71.4062 23.7979 71.5729 23.8552 71.8125 23.8552C72.0625 23.8552 72.3333 23.7615 72.625 23.574C72.9271 23.3865 73.25 23.1365 73.5938 22.824C73.9375 22.5115 74.2917 22.1521 74.6562 21.7458C75.0312 21.3292 75.3958 20.8969 75.75 20.449C76.6771 19.3031 77.3646 18.3188 77.8125 17.4958C80.0625 13.35 81.2552 11.1833 81.3906 10.9958C81.7344 10.5479 82.0781 10.324 82.4219 10.324C82.776 10.324 83.0833 10.3656 83.3438 10.449C83.6042 10.5219 83.8281 10.6313 84.0156 10.7771C84.4323 11.0792 84.5573 11.4177 84.3906 11.7927C84.2344 12.1677 84.0417 12.6833 83.8125 13.3396C81.8333 19.0792 80.5469 22.6573 79.9531 24.074C79.3698 25.4906 78.8594 26.6261 78.4219 27.4802C77.9844 28.3448 77.4688 29.2146 76.875 30.0896C76.2917 30.9646 75.6667 31.7615 75 32.4802C73.4792 34.1052 72.0521 34.975 70.7188 35.0896C70.2083 35.1313 69.8021 35.0583 69.5 34.8708C68.9792 34.5583 68.7188 34.2615 68.7188 33.9802C68.7188 33.699 68.9531 33.5011 69.4219 33.3865C69.901 33.2823 70.3906 33.0636 70.8906 32.7302C71.401 32.4073 71.8906 32.0271 72.3594 31.5896C73.7344 30.2771 74.8021 28.85 75.5625 27.3083C76.2083 25.9542 76.7292 24.6729 77.125 23.4646L78.3438 19.7458C78.0417 20.1104 77.7083 20.5375 77.3438 21.0271L76.2188 22.5271C75.2396 23.7667 74.4271 24.6469 73.7812 25.1677C72.5521 26.1573 71.4531 26.6521 70.4844 26.6521C69.1927 26.6521 68.3333 26.0948 67.9062 24.9802ZM95.7812 19.9333L95.7969 19.4802C95.9115 16.3656 96.6979 13.4229 98.1562 10.6521C99.5 8.12085 101.193 6.07397 103.234 4.51147C105.255 2.96981 107.224 2.19897 109.141 2.19897C110.599 2.19897 111.75 2.70418 112.594 3.7146C113.312 4.5896 113.672 5.66252 113.672 6.93335C113.672 8.45418 113.115 9.95418 112 11.4333C111.354 12.2875 110.667 12.9021 109.938 13.2771C109.594 13.4646 109.271 13.5583 108.969 13.5583C108.677 13.5583 108.406 13.4958 108.156 13.3708C107.906 13.2458 107.688 13.0896 107.5 12.9021C107.115 12.4958 106.922 12.1313 106.922 11.8083C106.922 11.4854 107.005 11.2615 107.172 11.1365C108.88 9.90731 110.042 8.64168 110.656 7.3396C110.896 6.8396 111.016 6.35002 111.016 5.87085C111.016 4.86043 110.536 4.35522 109.578 4.35522C108.078 4.35522 106.531 5.17293 104.938 6.80835C103.448 8.31877 102.198 10.2146 101.188 12.4958C100.135 14.8396 99.5781 16.9906 99.5156 18.949L99.5 19.5427C99.5 21.8865 99.9948 23.4229 100.984 24.1521C101.339 24.4125 101.76 24.5427 102.25 24.5427C102.75 24.5427 103.219 24.4802 103.656 24.3552C104.094 24.2302 104.531 24.0583 104.969 23.8396C105.677 23.475 106.583 22.8448 107.688 21.949C108.021 21.6886 108.297 21.725 108.516 22.0583C108.703 22.3292 108.797 22.6417 108.797 22.9958C108.797 23.5896 108.714 23.9958 108.547 24.2146C108.391 24.4229 108.115 24.6729 107.719 24.9646C107.333 25.2563 106.859 25.5271 106.297 25.7771C104.984 26.3604 103.698 26.6521 102.438 26.6521C101.177 26.6521 100.161 26.5011 99.3906 26.199C98.6198 25.8865 97.9688 25.4438 97.4375 24.8708C96.3333 23.6625 95.7812 22.0167 95.7812 19.9333ZM113.922 25.4333C113.484 25.0167 113.141 24.4906 112.891 23.8552C112.641 23.2094 112.51 22.449 112.5 21.574C112.49 20.699 112.594 19.8136 112.812 18.9177C113.042 18.0219 113.359 17.1573 113.766 16.324C114.182 15.4906 114.677 14.7094 115.25 13.9802C115.833 13.2511 116.474 12.6156 117.172 12.074C118.693 10.9073 120.271 10.324 121.906 10.324C124.052 10.324 125.505 11.2667 126.266 13.1521C126.807 14.5167 126.839 16.1677 126.359 18.1052C125.922 19.8865 125.12 21.5219 123.953 23.0115C122.797 24.5011 121.432 25.5583 119.859 26.1833C119.068 26.4958 118.286 26.6521 117.516 26.6521C116.755 26.6521 116.073 26.5531 115.469 26.3552C114.875 26.1573 114.359 25.85 113.922 25.4333ZM116.906 17.8552C116.594 18.6261 116.344 19.4177 116.156 20.2302C115.979 21.0427 115.896 21.8136 115.906 22.5427C115.917 23.2615 116.026 23.8292 116.234 24.2458C116.453 24.6521 116.802 24.8552 117.281 24.8552C117.76 24.8552 118.229 24.6938 118.688 24.3708C119.156 24.0375 119.609 23.6 120.047 23.0583C120.484 22.5167 120.896 21.8917 121.281 21.1833C121.667 20.475 122.005 19.7354 122.297 18.9646C122.932 17.2875 123.24 15.7979 123.219 14.4958C123.219 13.35 122.984 12.6208 122.516 12.3083C122.328 12.1833 122.062 12.1208 121.719 12.1208C121.385 12.1208 121 12.2771 120.562 12.5896C120.125 12.8917 119.688 13.3031 119.25 13.824C118.812 14.3448 118.391 14.9542 117.984 15.6521C117.578 16.35 117.219 17.0844 116.906 17.8552ZM130.391 25.4333C129.953 25.0167 129.609 24.4906 129.359 23.8552C129.109 23.2094 128.979 22.449 128.969 21.574C128.958 20.699 129.062 19.8136 129.281 18.9177C129.51 18.0219 129.828 17.1573 130.234 16.324C130.651 15.4906 131.146 14.7094 131.719 13.9802C132.302 13.2511 132.943 12.6156 133.641 12.074C135.161 10.9073 136.74 10.324 138.375 10.324C140.521 10.324 141.974 11.2667 142.734 13.1521C143.276 14.5167 143.307 16.1677 142.828 18.1052C142.391 19.8865 141.589 21.5219 140.422 23.0115C139.266 24.5011 137.901 25.5583 136.328 26.1833C135.536 26.4958 134.755 26.6521 133.984 26.6521C133.224 26.6521 132.542 26.5531 131.938 26.3552C131.344 26.1573 130.828 25.85 130.391 25.4333ZM133.375 17.8552C133.062 18.6261 132.812 19.4177 132.625 20.2302C132.448 21.0427 132.365 21.8136 132.375 22.5427C132.385 23.2615 132.495 23.8292 132.703 24.2458C132.922 24.6521 133.271 24.8552 133.75 24.8552C134.229 24.8552 134.698 24.6938 135.156 24.3708C135.625 24.0375 136.078 23.6 136.516 23.0583C136.953 22.5167 137.365 21.8917 137.75 21.1833C138.135 20.475 138.474 19.7354 138.766 18.9646C139.401 17.2875 139.708 15.7979 139.688 14.4958C139.688 13.35 139.453 12.6208 138.984 12.3083C138.797 12.1833 138.531 12.1208 138.188 12.1208C137.854 12.1208 137.469 12.2771 137.031 12.5896C136.594 12.8917 136.156 13.3031 135.719 13.824C135.281 14.3448 134.859 14.9542 134.453 15.6521C134.047 16.35 133.688 17.0844 133.375 17.8552ZM155.75 26.6365C153.385 26.6365 151.5 24.3917 150.094 19.9021C149.542 20.9229 149.083 21.85 148.719 22.6833L147.781 24.8083C147.51 25.3917 147.255 25.8448 147.016 26.1677C146.786 26.4906 146.526 26.6521 146.234 26.6521C145.943 26.6521 145.677 26.6 145.438 26.4958C145.198 26.4021 144.99 26.2771 144.812 26.1208C144.448 25.7875 144.266 25.4229 144.266 25.0271C144.266 24.8708 144.375 24.5636 144.594 24.1052L145.219 22.8396C147.167 18.8292 148.932 13.7458 150.516 7.5896C151.099 5.31877 151.521 3.2771 151.781 1.4646C151.896 0.5896 152.323 0.1521 153.062 0.1521C153.5 0.1521 153.865 0.266683 154.156 0.49585C154.719 0.943766 154.99 1.42814 154.969 1.94897C154.948 2.45939 154.875 3.03752 154.75 3.68335C154.635 4.32918 154.479 5.03752 154.281 5.80835C154.083 6.56877 153.859 7.36564 153.609 8.19897C152.932 10.3761 152.427 11.9281 152.094 12.8552L150.625 16.9021C150.438 17.3813 150.292 17.7302 150.188 17.949C152.604 16.9906 154.417 15.9073 155.625 14.699C156.354 13.9698 156.719 13.2875 156.719 12.6521C156.719 12.3292 156.609 12.0948 156.391 11.949C156.182 11.8031 156.036 11.6938 155.953 11.6208C155.88 11.5375 155.875 11.3969 155.938 11.199C156.01 10.9906 156.208 10.7927 156.531 10.6052C156.854 10.4177 157.245 10.324 157.703 10.324C158.161 10.324 158.542 10.3656 158.844 10.449C159.156 10.5323 159.427 10.6625 159.656 10.8396C160.167 11.2042 160.422 11.7198 160.422 12.3865C160.422 13.0531 160.281 13.6677 160 14.2302C159.719 14.7823 159.281 15.3188 158.688 15.8396C157.51 16.8396 155.625 17.8083 153.031 18.7458C153.354 20.1313 153.948 21.35 154.812 22.4021C155.635 23.4021 156.391 23.9021 157.078 23.9021C157.443 23.9021 157.755 23.8396 158.016 23.7146L158.578 23.4333C158.693 23.3708 158.802 23.3396 158.906 23.3396C159.167 23.3396 159.297 23.4958 159.297 23.8083C159.297 24.0792 159.25 24.3188 159.156 24.5271C159.062 24.725 158.927 24.9386 158.75 25.1677C158.583 25.3969 158.365 25.6208 158.094 25.8396C157.417 26.3708 156.635 26.6365 155.75 26.6365ZM169.781 6.66772C169.552 6.90731 169.292 7.10522 169 7.26147C168.708 7.40731 168.401 7.50106 168.078 7.54272C167.755 7.57397 167.448 7.52189 167.156 7.38647C166.875 7.25106 166.63 7.05835 166.422 6.80835C165.974 6.28752 165.75 5.76147 165.75 5.23022C165.75 4.69897 165.833 4.30314 166 4.04272C166.177 3.77189 166.396 3.55314 166.656 3.38647C167.156 3.06356 167.625 2.9021 168.062 2.9021C168.51 2.9021 168.854 2.93335 169.094 2.99585C169.344 3.05835 169.573 3.16252 169.781 3.30835C170.292 3.6521 170.547 4.07397 170.547 4.57397C170.547 5.06356 170.474 5.47502 170.328 5.80835C170.193 6.13127 170.01 6.41772 169.781 6.66772ZM166.578 23.574C166.849 23.574 166.984 23.7511 166.984 24.1052C166.984 24.574 166.771 25.0583 166.344 25.5583C165.719 26.2875 164.88 26.6521 163.828 26.6521C162.62 26.6521 161.792 26.1625 161.344 25.1833C161.177 24.8396 161.094 24.4229 161.094 23.9333C161.094 23.4438 161.177 22.9021 161.344 22.3083C161.521 21.7042 161.734 21.074 161.984 20.4177C162.245 19.7511 162.526 19.0792 162.828 18.4021L163.656 16.4333C164.26 14.9646 164.562 13.9958 164.562 13.5271C164.562 13.0583 164.51 12.7511 164.406 12.6052C164.312 12.449 164.208 12.3292 164.094 12.2458L163.781 12.0271C163.677 11.9542 163.625 11.8292 163.625 11.6521C163.625 11.4646 163.693 11.2875 163.828 11.1208C163.974 10.9542 164.161 10.8083 164.391 10.6833C164.859 10.4438 165.406 10.324 166.031 10.324C167.562 10.324 168.328 10.725 168.328 11.5271C168.328 12.4646 168.083 13.5375 167.594 14.7458C167.104 15.9438 166.688 16.9125 166.344 17.6521L165.406 19.8083C164.719 21.3917 164.375 22.5323 164.375 23.2302C164.375 23.6886 164.604 23.9177 165.062 23.9177C165.51 23.9177 165.849 23.8604 166.078 23.7458C166.307 23.6313 166.474 23.574 166.578 23.574ZM170.656 21.0271C170.698 20.1208 170.849 19.2563 171.109 18.4333C171.37 17.6 171.719 16.7979 172.156 16.0271C172.594 15.2458 173.104 14.5115 173.688 13.824C174.281 13.1261 174.922 12.5167 175.609 11.9958C177.099 10.8813 178.604 10.324 180.125 10.324C181.906 10.324 183.094 11.0583 183.688 12.5271C183.896 13.0271 183.995 13.6208 183.984 14.3083C183.974 14.9854 183.844 15.6156 183.594 16.199C183.344 16.7719 182.995 17.2979 182.547 17.7771C182.109 18.2458 181.583 18.6677 180.969 19.0427C180.365 19.4177 179.703 19.7354 178.984 19.9958C177.505 20.5167 175.922 20.7875 174.234 20.8083C174.193 20.9542 174.167 21.1729 174.156 21.4646C174.146 21.7563 174.177 22.0844 174.25 22.449C174.323 22.8031 174.448 23.1208 174.625 23.4021C175 24.0271 175.542 24.3396 176.25 24.3396C177.458 24.3396 178.635 23.9854 179.781 23.2771C180.188 23.0375 180.516 22.7927 180.766 22.5427C181.026 22.2823 181.25 22.1521 181.438 22.1521C181.625 22.1521 181.786 22.2667 181.922 22.4958C182.068 22.7146 182.141 22.9646 182.141 23.2458C182.141 23.7979 181.984 24.2771 181.672 24.6833C180.359 25.9958 178.406 26.6521 175.812 26.6521C174.281 26.6521 173.052 26.1938 172.125 25.2771C171.083 24.2354 170.594 22.8188 170.656 21.0271ZM179.781 12.4021C178.688 12.4021 177.635 13.1521 176.625 14.6521C175.771 15.9438 175.083 17.475 174.562 19.2458C176.302 19.0688 177.812 18.3813 179.094 17.1833C180.271 16.0583 180.859 14.9802 180.859 13.949C180.859 12.9177 180.5 12.4021 179.781 12.4021ZM184.844 23.7458C184.844 23.4229 184.911 23.1261 185.047 22.8552C185.193 22.574 185.37 22.3396 185.578 22.1521C186.016 21.7458 186.474 21.5427 186.953 21.5427C187.37 21.5427 187.578 21.7563 187.578 22.1833C187.578 23.2667 187.938 24.0219 188.656 24.449C188.917 24.6052 189.188 24.6833 189.469 24.6833C189.75 24.6833 189.99 24.6521 190.188 24.5896C190.385 24.5271 190.568 24.4281 190.734 24.2927C191.109 23.9906 191.297 23.6313 191.297 23.2146C191.297 22.7979 191.203 22.4177 191.016 22.074C190.828 21.7198 190.594 21.35 190.312 20.9646L189.422 19.7146C188.172 18.0479 187.547 16.5115 187.547 15.1052C187.547 13.9386 188.042 12.8813 189.031 11.9333C190.156 10.8604 191.599 10.324 193.359 10.324C194.901 10.324 196.104 10.7042 196.969 11.4646C197.677 12.0792 198.031 12.7823 198.031 13.574C198.031 14.3969 197.719 15.0531 197.094 15.5427C196.531 15.9802 195.969 16.1417 195.406 16.0271C195.156 15.975 194.964 15.85 194.828 15.6521C194.693 15.4438 194.667 15.2094 194.75 14.949C194.833 14.6886 194.875 14.4177 194.875 14.1365C194.875 13.8552 194.823 13.5948 194.719 13.3552C194.615 13.1156 194.474 12.9125 194.297 12.7458C193.932 12.4021 193.547 12.2302 193.141 12.2302C192.745 12.2302 192.417 12.2771 192.156 12.3708C191.896 12.4542 191.667 12.5792 191.469 12.7458C191.062 13.1208 190.859 13.5844 190.859 14.1365C190.859 14.6781 190.953 15.1469 191.141 15.5427C191.328 15.9386 191.557 16.3344 191.828 16.7302C192.109 17.1261 192.411 17.5271 192.734 17.9333C193.057 18.3396 193.354 18.7667 193.625 19.2146C194.281 20.2667 194.609 21.1938 194.609 21.9958C194.609 22.7875 194.443 23.4542 194.109 23.9958C193.776 24.5271 193.344 24.9854 192.812 25.3708C191.677 26.2146 190.406 26.6365 189 26.6365C187.656 26.6365 186.594 26.3136 185.812 25.6677C185.167 25.1261 184.844 24.4854 184.844 23.7458Z" fill="#62D2A2"/>
</svg>
