<svg width="24" height="24" viewBox="0 0 24 24" fill="none" xmlns="http://www.w3.org/2000/svg">
<path d="M8.58387 18.9419C9.49002 20.7819 11.0514 21.9856 13.009 22.7616C13.5892 22.9915 14.1926 23.2309 14.8484 23.2499C14.9238 23.2128 14.9992 23.1757 15.0743 23.1387C15.137 23.1715 15.2 23.2035 15.2645 23.2341C13.8432 22.5552 12.8269 21.4528 11.7564 20.4269C11.0146 19.7157 10.2532 19.0853 9.23075 18.7979C9.01551 18.8525 8.79969 18.9 8.58301 18.9408C8.58301 18.9408 8.58358 18.9413 8.58387 18.9419Z" fill="#62D2A2"/>
<path d="M10.6225 18.3619C10.8605 18.5741 11.0063 18.8637 11.2561 19.0637C13.3168 20.7141 15.7219 21.516 18.4357 21.5011C18.7266 21.4995 19.0863 21.5989 19.3655 21.3653C19.3301 21.3165 19.3145 21.2683 19.2881 21.2627C17.592 20.8949 16.1452 20.0432 14.6805 19.2269C13.6005 18.6248 12.5033 18.0693 11.1891 18.128C11.2066 18.1197 11.2225 18.1093 11.24 18.1011C10.9758 18.2171 10.7068 18.3237 10.4346 18.4227C10.4967 18.4011 10.5609 18.3845 10.6225 18.3619Z" fill="#62D2A2"/>
<path d="M11.8311 17.773C11.9801 17.6781 12.1263 17.5799 12.2613 17.469C12.284 17.4778 12.3061 17.4863 12.3254 17.4946C13.4791 17.9903 14.6871 18.2807 15.963 18.3079C16.5624 18.3762 17.156 18.3394 17.7465 18.233C18.9758 18.1266 20.1151 17.7423 21.3467 17.2634C21.1421 17.197 21.0425 17.129 20.9579 17.1426C19.3234 17.3999 17.7252 17.0917 16.1158 16.9066C15.0681 16.7861 14.0054 16.637 12.9904 17.0871C12.8391 17.2013 12.6886 17.2986 12.5456 17.2087C12.6175 17.1359 12.6871 17.0594 12.7527 16.9799C13.1628 16.7093 13.5501 16.409 13.9113 16.0831C14.0667 16.0013 14.2238 15.9717 14.4399 16.0007C16.9722 16.3383 19.3007 15.809 21.429 14.509C21.7308 14.3247 22.0833 14.1895 22.3072 13.8506C22.1933 13.8591 22.1069 13.8479 22.0356 13.873C20.6115 14.3781 19.1085 14.485 17.6144 14.6631C16.775 14.7629 15.8873 14.7725 15.1653 15.2941C14.9317 15.5581 14.5895 15.6295 14.2704 15.7415C14.5815 15.4309 14.8707 15.1015 15.1337 14.7562C15.1745 14.7026 15.2137 14.6485 15.2525 14.5943C14.1858 15.7138 12.9925 16.7341 11.8311 17.773Z" fill="#62D2A2"/>
<path d="M21.0885 11.3259C19.9329 11.7094 18.7151 11.9475 17.6294 12.5075C17.1952 12.7958 16.7612 13.0843 16.3273 13.3726C16.1984 13.4585 16.0694 13.5422 15.931 13.4667C15.9494 13.4769 15.9679 13.4838 15.9863 13.4883C15.8962 13.6891 15.8027 13.8878 15.7051 14.0846C15.7043 14.0851 15.704 14.0859 15.7031 14.0865C15.8084 14.0094 15.9394 13.9547 16.1227 13.9467C19.1315 13.8139 21.5075 12.4899 23.5198 10.5033C23.6272 10.3971 23.6116 10.3043 23.5282 10.1641C22.7426 10.599 21.9662 11.0347 21.0885 11.3259Z" fill="#62D2A2"/>
<path d="M3.26696 18.6723C3.26523 18.6673 3.26178 18.6633 3.25977 18.6582C3.27646 18.7022 3.28883 18.7481 3.29113 18.7995C3.31991 19.5097 3.71327 20.1014 4.03959 20.7091C4.39354 21.3697 5.57911 22.2745 6.30109 22.4227C5.31408 21.3449 4.87841 20.0654 4.1688 18.9219C4.31469 18.9633 4.46836 18.9865 4.61252 19.0062C5.00013 19.0595 5.39724 19.0766 5.78773 19.1025C5.79176 19.1137 5.79636 19.1243 5.80011 19.1358C6.24959 20.5529 7.14279 21.6889 8.38131 22.5942C9.25869 23.235 10.2189 23.7395 11.2986 23.9998C11.3852 23.8702 11.3377 23.7998 11.2707 23.7603C10.5081 23.3107 10.0325 22.6105 9.44688 22.0027C8.52519 21.0467 7.94391 19.8041 6.69648 19.1209C6.81446 19.1179 6.93215 19.1107 7.04956 19.1035C6.68439 19.111 6.31491 19.0955 5.94111 19.055C5.09135 18.963 4.1852 18.7611 3.26696 18.6723Z" fill="#62D2A2"/>
<path d="M16.5938 12.0092C16.7466 12.0081 16.9094 11.959 17.051 11.9041C17.2527 11.8932 17.5157 11.7692 17.6487 11.7113C17.7025 11.6881 17.7549 11.6614 17.8061 11.634C20.9372 10.4489 23.3334 7.77423 24.0001 5.92383C23.6116 6.07663 23.4306 6.39556 23.176 6.61903C21.8799 7.75476 20.324 8.54756 18.874 9.47876C18.0697 9.99583 17.3888 10.6054 16.9252 11.4049C16.8265 11.4873 16.723 11.5654 16.613 11.6348C16.6706 11.5988 16.7258 11.5601 16.7799 11.5196C16.7178 11.6838 16.6559 11.847 16.5938 12.0092Z" fill="#62D2A2"/>
<path d="M17.0561 9.64647C17.0993 9.58354 17.1608 9.5262 17.2521 9.4774C18.4031 8.8614 19.2379 7.93607 19.9334 6.919C20.6508 5.8694 21.1072 4.711 21.2456 3.44514C20.2252 5.50647 18.0261 6.76807 17.0434 8.97607C17.0452 8.93234 17.0475 8.8886 17.0486 8.84487C17.0512 8.74514 17.0526 8.6414 17.0521 8.53607C17.078 8.2006 17.0852 7.81287 16.9453 7.499C17.0184 7.36754 17.1252 7.239 17.2751 7.11234C17.6273 6.81474 17.865 6.39074 18.1179 6.0038C19.0897 4.51687 19.5838 2.89607 19.6505 1.1614C19.6543 1.0574 19.7317 0.91607 19.5576 0.87927C19.4209 0.850204 19.4229 0.959804 19.401 1.0582C19.1003 2.39607 18.2497 3.5014 17.6028 4.69287C17.3628 5.135 17.1053 5.575 16.7939 6.12194C16.9298 7.29047 17.0279 8.4638 17.0572 9.64674L17.0561 9.64647Z" fill="#62D2A2"/>
<path opacity="0.8" d="M16.7925 6.12109C16.7701 6.16083 16.7479 6.19976 16.7246 6.24029C16.7482 6.19843 16.7695 6.16189 16.7925 6.12109Z" fill="#62D2A2"/>
<path opacity="0.8" d="M10.309 18.4701C10.3516 18.4551 10.3933 18.4381 10.4356 18.4229C10.3075 18.4666 10.1786 18.5087 10.0488 18.5471C10.1354 18.521 10.2229 18.4981 10.309 18.4701Z" fill="#62D2A2"/>
<path opacity="0.8" d="M8.58183 18.9402C8.58212 18.9402 8.58212 18.9402 8.58183 18.9402C8.57637 18.9288 8.5709 18.9181 8.56543 18.9077C8.57118 18.9181 8.57637 18.929 8.58183 18.9402Z" fill="#62D2A2"/>
<path opacity="0.8" d="M15.2541 14.5943C15.2579 14.5892 15.2616 14.5842 15.2651 14.5791C15.2613 14.5844 15.2576 14.5895 15.2541 14.5943Z" fill="#62D2A2"/>
<path opacity="0.8" d="M11.2656 18.0905C11.3194 18.0646 11.3683 18.0323 11.4212 18.0049C11.3605 18.0363 11.3024 18.0715 11.2402 18.1009C11.2489 18.0974 11.2572 18.0942 11.2656 18.0905Z" fill="#62D2A2"/>
<path opacity="0.8" d="M16.5929 12.0114C16.5932 12.0106 16.5934 12.0098 16.5937 12.009C16.5644 12.0092 16.535 12.0106 16.5068 12.0068C16.5347 12.0108 16.5638 12.0119 16.5929 12.0114Z" fill="#62D2A2"/>
<path opacity="0.8" d="M7.05213 19.1045C7.05333 19.1045 7.05483 19.1035 7.05603 19.1035C7.05363 19.1045 7.05123 19.1045 7.04883 19.1045C7.05003 19.1045 7.05093 19.1045 7.05213 19.1045Z" fill="#62D2A2"/>
<path opacity="0.8" d="M9.23248 18.7969C9.21205 18.7911 9.19162 18.7844 9.1709 18.7788C9.19133 18.7841 9.20975 18.7919 9.22989 18.7975C9.23075 18.7975 9.23162 18.7972 9.23248 18.7969Z" fill="#62D2A2"/>
<path opacity="0.8" d="M11.8128 17.7903C11.8191 17.7844 11.8257 17.7788 11.8321 17.7729C11.8177 17.7823 11.8047 17.7935 11.79 17.8025C11.7972 17.7983 11.8053 17.7948 11.8128 17.7903Z" fill="#62D2A2"/>
<path d="M15.9873 13.4885C15.9689 13.484 15.9505 13.4771 15.9321 13.4669C16.1658 12.996 16.3537 12.5077 16.5068 12.0069C16.535 12.0109 16.5643 12.0093 16.5937 12.0091C16.6558 11.8467 16.7177 11.6837 16.7801 11.52C16.726 11.5603 16.6705 11.5989 16.6132 11.6352C16.6783 11.3941 16.737 11.1501 16.7885 10.9035C16.8616 10.5547 16.9231 10.2029 16.968 9.84987C16.9775 9.81413 16.9885 9.77893 17.0026 9.7448C17.0037 9.74214 17.0054 9.73973 17.0066 9.73707C17.0201 9.70587 17.0354 9.67547 17.0552 9.64614L17.0555 9.6456C17.0262 8.46267 16.928 7.28933 16.7922 6.1208C16.7692 6.16133 16.7479 6.19813 16.7243 6.24C16.0319 4.0296 14.8461 2.152 14.4979 0C14.3045 0.0666667 14.3068 0.164267 14.2968 0.2592C14.1592 1.5624 14.2323 2.8544 14.6208 4.11467C15.0052 5.3624 15.5471 6.54693 16.3715 7.61387C16.644 7.9664 16.7177 8.3992 16.608 8.94934C15.663 7.4568 14.4421 6.24053 13.7045 4.72533C13.7422 6.84907 14.7022 8.57813 16.316 10.0304C16.3243 10.0253 16.3327 10.0219 16.341 10.0184C16.36 10.0704 16.3778 10.1224 16.3971 10.1741C16.3991 10.1821 16.4009 10.1904 16.4032 10.1984C16.4043 10.2048 16.4057 10.2112 16.4069 10.2179C16.3997 10.2501 16.3931 10.2824 16.3853 10.3147C16.1752 11.2237 15.9612 12.1269 15.5295 12.9715C15.5226 12.9851 15.5151 12.9984 15.5082 13.0123C15.3894 12.2211 15.0904 11.4947 14.6219 10.7965C14.0602 9.95893 13.5972 9.06133 13.1362 8.17013C12.9003 7.71413 12.8585 7.1816 12.5665 6.6664C12.1774 8.8544 12.7584 11.4427 14.8153 13.5347C14.8282 13.5629 14.8435 13.5907 14.8616 13.6179C14.8893 13.6603 14.954 13.76 15.0228 13.8032C15.0245 13.8053 15.0257 13.8077 15.0274 13.8101C14.71 14.2763 14.3491 14.7187 13.9791 15.1469C13.706 15.4627 13.424 15.7717 13.1434 16.0816C13.1325 16.0939 13.121 16.1053 13.1097 16.1176C13.1348 15.4037 13.1874 14.6931 12.8948 13.9869C12.4479 12.9091 12.0859 11.8011 11.6819 10.7077C11.4557 10.0952 11.4759 9.43547 11.2465 8.81653C10.8376 10.1075 10.8065 11.4117 11.01 12.7253C11.2272 14.1293 11.8494 15.3741 12.725 16.5152C12.5912 16.6531 12.4611 16.7939 12.3472 16.9451C11.6897 17.3261 10.9867 17.6405 10.2555 17.8933C10.5383 17.028 10.6897 16.1523 10.486 15.2453C10.2868 14.3579 10.124 13.4629 9.89692 12.5821C9.6834 11.756 9.79246 10.9147 9.72052 10.0699C9.64685 10.0992 9.58844 10.1051 9.57837 10.1285C8.48574 12.684 8.41352 15.2181 9.78642 17.7141C9.84138 17.8139 9.91188 17.9083 9.94037 17.9981C9.61117 18.1032 9.27679 18.1957 8.93896 18.2781C8.743 18.3136 8.5479 18.3565 8.35798 18.3851C8.00375 18.4381 7.6475 18.4712 7.2901 18.4917C7.30219 18.4381 7.32809 18.3763 7.36032 18.3083C7.6757 17.6485 7.83627 16.9728 7.8357 16.2307C7.83339 14.7317 7.62131 13.2181 8.0518 11.7347C8.06101 11.7032 7.98849 11.6515 7.94245 11.5949C6.69358 13.4645 6.25129 15.4643 6.6084 17.6152C6.65847 17.9176 6.96724 18.2453 6.8789 18.5107C6.43575 18.5259 5.99202 18.5165 5.54916 18.5107C5.32874 18.5077 5.10917 18.4923 4.89048 18.4669C4.80098 18.4563 4.71149 18.4384 4.622 18.4195C4.56445 18.3803 4.49711 18.3512 4.42402 18.3296C4.45337 18.2613 4.5138 18.1757 4.60243 18.0704C4.90199 17.7147 5.0309 17.2691 5.14514 16.8227C5.32816 16.1069 5.45765 15.3771 5.75548 14.6869C5.83519 14.5021 6.08842 14.3424 5.88785 14.0427C4.96558 15.0368 4.29136 16.1019 4.11756 17.4029C4.04504 17.9453 4.01281 18.1683 3.80591 18.2531C3.71038 18.2475 3.61916 18.2411 3.53772 18.2291C3.09112 18.1627 2.65171 18.0392 2.22036 17.9165C1.83102 17.8061 1.4437 17.6893 1.05695 17.5723C0.721707 17.4707 0.336685 17.3669 0.0443218 17.18C0.0305093 17.1712 0.0187114 17.1883 0.0109419 17.2128C0.00950311 17.2123 0.00806421 17.2117 0.00662542 17.2112C0.00806421 17.212 0.00921523 17.2128 0.010654 17.2136C-0.000856345 17.2496 -0.00402164 17.3021 0.00604994 17.3165C0.176116 17.5507 0.542433 17.6368 0.8112 17.7389C1.20486 17.8883 1.61347 18.0155 2.01749 18.14C2.0218 18.1413 2.02612 18.1429 2.03015 18.144C2.04108 18.1472 2.05173 18.1507 2.06267 18.1541C2.40884 18.2605 2.75933 18.3576 3.11385 18.4376C3.14435 18.4691 3.17112 18.5024 3.19586 18.5371C3.20104 18.5445 3.20593 18.5525 3.21083 18.5603C3.23068 18.5909 3.24708 18.6235 3.26003 18.6576C3.26205 18.6627 3.2655 18.6667 3.26723 18.6717C4.18547 18.7605 5.09191 18.9624 5.9408 19.0544C6.3146 19.0949 6.68408 19.1101 7.04925 19.1029C7.05155 19.1029 7.05385 19.1027 7.05616 19.1027C7.2973 19.0877 7.53729 19.064 7.77757 19.0333C7.80462 19.0299 7.83195 19.0259 7.859 19.0221C8.09439 18.9904 8.32978 18.9531 8.56574 18.9069C8.57121 18.9171 8.57668 18.928 8.58214 18.9395C8.79883 18.8987 9.01465 18.8512 9.22989 18.7965C9.20975 18.7909 9.19133 18.7832 9.1709 18.7779C9.38384 18.7293 9.5988 18.6741 9.81318 18.6155C9.89202 18.5939 9.97001 18.5693 10.0483 18.5459C10.1783 18.5072 10.307 18.4653 10.435 18.4216C10.7075 18.3227 10.9763 18.2163 11.2405 18.1C11.3026 18.0704 11.3605 18.0355 11.4215 18.004C11.5461 17.9395 11.671 17.8749 11.7889 17.8019C11.8036 17.7928 11.8163 17.7816 11.8309 17.7723C12.9923 16.7331 14.1857 15.7131 15.253 14.5939C15.2567 14.5888 15.2605 14.5837 15.2642 14.5787C15.3005 14.5416 15.3336 14.5019 15.3661 14.4613C15.3928 14.4277 15.4193 14.3936 15.4458 14.3595C15.4564 14.3456 15.4676 14.3317 15.4783 14.3179C15.5071 14.2811 15.5373 14.2453 15.5687 14.2109C15.5741 14.2051 15.579 14.1987 15.5845 14.1928C15.621 14.1541 15.6602 14.1181 15.7039 14.0859C15.7048 14.0853 15.7051 14.0845 15.7059 14.084C15.8038 13.888 15.8973 13.6891 15.9873 13.4885Z" fill="#62D2A2"/>
<path opacity="0.8" d="M15.9873 13.4885C15.9689 13.484 15.9505 13.4771 15.9321 13.4669C16.1658 12.996 16.3537 12.5077 16.5068 12.0069C16.535 12.0109 16.5643 12.0093 16.5937 12.0091C16.6558 11.8467 16.7177 11.6837 16.7801 11.52C16.726 11.5603 16.6705 11.5989 16.6132 11.6352C16.6783 11.3941 16.737 11.1501 16.7885 10.9035C16.8616 10.5547 16.9231 10.2029 16.968 9.84987C16.9775 9.81413 16.9885 9.77893 17.0026 9.7448C17.0037 9.74214 17.0054 9.73973 17.0066 9.73707C17.0201 9.70587 17.0354 9.67547 17.0552 9.64614L17.0555 9.6456C17.0262 8.46267 16.928 7.28933 16.7922 6.1208C16.7692 6.16133 16.7479 6.19813 16.7243 6.24C16.0319 4.0296 14.8461 2.152 14.4979 0C14.3045 0.0666667 14.3068 0.164267 14.2968 0.2592C14.1592 1.5624 14.2323 2.8544 14.6208 4.11467C15.0052 5.3624 15.5471 6.54693 16.3715 7.61387C16.644 7.9664 16.7177 8.3992 16.608 8.94934C15.663 7.4568 14.4421 6.24053 13.7045 4.72533C13.7422 6.84907 14.7022 8.57813 16.316 10.0304C16.3243 10.0253 16.3327 10.0219 16.341 10.0184C16.36 10.0704 16.3778 10.1224 16.3971 10.1741C16.3991 10.1821 16.4009 10.1904 16.4032 10.1984C16.4043 10.2048 16.4057 10.2112 16.4069 10.2179C16.3997 10.2501 16.3931 10.2824 16.3853 10.3147C16.1752 11.2237 15.9612 12.1269 15.5295 12.9715C15.5226 12.9851 15.5151 12.9984 15.5082 13.0123C15.3894 12.2211 15.0904 11.4947 14.6219 10.7965C14.0602 9.95893 13.5972 9.06133 13.1362 8.17013C12.9003 7.71413 12.8585 7.1816 12.5665 6.6664C12.1774 8.8544 12.7584 11.4427 14.8153 13.5347C14.8282 13.5629 14.8435 13.5907 14.8616 13.6179C14.8893 13.6603 14.954 13.76 15.0228 13.8032C15.0245 13.8053 15.0257 13.8077 15.0274 13.8101C14.71 14.2763 14.3491 14.7187 13.9791 15.1469C13.706 15.4627 13.424 15.7717 13.1434 16.0816C13.1325 16.0939 13.121 16.1053 13.1097 16.1176C13.1348 15.4037 13.1874 14.6931 12.8948 13.9869C12.4479 12.9091 12.0859 11.8011 11.6819 10.7077C11.4557 10.0952 11.4759 9.43547 11.2465 8.81653C10.8376 10.1075 10.8065 11.4117 11.01 12.7253C11.2272 14.1293 11.8494 15.3741 12.725 16.5152C12.5912 16.6531 12.4611 16.7939 12.3472 16.9451C11.6897 17.3261 10.9867 17.6405 10.2555 17.8933C10.5383 17.028 10.6897 16.1523 10.486 15.2453C10.2868 14.3579 10.124 13.4629 9.89692 12.5821C9.6834 11.756 9.79246 10.9147 9.72052 10.0699C9.64685 10.0992 9.58844 10.1051 9.57837 10.1285C8.48574 12.684 8.41352 15.2181 9.78642 17.7141C9.84138 17.8139 9.91188 17.9083 9.94037 17.9981C9.61117 18.1032 9.27679 18.1957 8.93896 18.2781C8.743 18.3136 8.5479 18.3565 8.35798 18.3851C8.00375 18.4381 7.6475 18.4712 7.2901 18.4917C7.30219 18.4381 7.32809 18.3763 7.36032 18.3083C7.6757 17.6485 7.83627 16.9728 7.8357 16.2307C7.83339 14.7317 7.62131 13.2181 8.0518 11.7347C8.06101 11.7032 7.98849 11.6515 7.94245 11.5949C6.69358 13.4645 6.25129 15.4643 6.6084 17.6152C6.65847 17.9176 6.96724 18.2453 6.8789 18.5107C6.43575 18.5259 5.99202 18.5165 5.54916 18.5107C5.32874 18.5077 5.10917 18.4923 4.89048 18.4669C4.80098 18.4563 4.71149 18.4384 4.622 18.4195C4.56445 18.3803 4.49711 18.3512 4.42402 18.3296C4.45337 18.2613 4.5138 18.1757 4.60243 18.0704C4.90199 17.7147 5.0309 17.2691 5.14514 16.8227C5.32816 16.1069 5.45765 15.3771 5.75548 14.6869C5.83519 14.5021 6.08842 14.3424 5.88785 14.0427C4.96558 15.0368 4.29136 16.1019 4.11756 17.4029C4.04504 17.9453 4.01281 18.1683 3.80591 18.2531C3.71038 18.2475 3.61916 18.2411 3.53772 18.2291C3.09112 18.1627 2.65171 18.0392 2.22036 17.9165C1.83102 17.8061 1.4437 17.6893 1.05695 17.5723C0.721707 17.4707 0.336685 17.3669 0.0443218 17.18C0.0305093 17.1712 0.0187114 17.1883 0.0109419 17.2128C0.00950311 17.2123 0.00806421 17.2117 0.00662542 17.2112C0.00806421 17.212 0.00921523 17.2128 0.010654 17.2136C-0.000856345 17.2496 -0.00402164 17.3021 0.00604994 17.3165C0.176116 17.5507 0.542433 17.6368 0.8112 17.7389C1.20486 17.8883 1.61347 18.0155 2.01749 18.14C2.0218 18.1413 2.02612 18.1429 2.03015 18.144C2.04108 18.1472 2.05173 18.1507 2.06267 18.1541C2.40884 18.2605 2.75933 18.3576 3.11385 18.4376C3.14435 18.4691 3.17112 18.5024 3.19586 18.5371C3.20104 18.5445 3.20593 18.5525 3.21083 18.5603C3.23068 18.5909 3.24708 18.6235 3.26003 18.6576C3.26205 18.6627 3.2655 18.6667 3.26723 18.6717C4.18547 18.7605 5.09191 18.9624 5.9408 19.0544C6.3146 19.0949 6.68408 19.1101 7.04925 19.1029C7.05155 19.1029 7.05385 19.1027 7.05616 19.1027C7.2973 19.0877 7.53729 19.064 7.77757 19.0333C7.80462 19.0299 7.83195 19.0259 7.859 19.0221C8.09439 18.9904 8.32978 18.9531 8.56574 18.9069C8.57121 18.9171 8.57668 18.928 8.58214 18.9395C8.79883 18.8987 9.01465 18.8512 9.22989 18.7965C9.20975 18.7909 9.19133 18.7832 9.1709 18.7779C9.38384 18.7293 9.5988 18.6741 9.81318 18.6155C9.89202 18.5939 9.97001 18.5693 10.0483 18.5459C10.1783 18.5072 10.307 18.4653 10.435 18.4216C10.7075 18.3227 10.9763 18.2163 11.2405 18.1C11.3026 18.0704 11.3605 18.0355 11.4215 18.004C11.5461 17.9395 11.671 17.8749 11.7889 17.8019C11.8036 17.7928 11.8163 17.7816 11.8309 17.7723C12.9923 16.7331 14.1857 15.7131 15.253 14.5939C15.2567 14.5888 15.2605 14.5837 15.2642 14.5787C15.3005 14.5416 15.3336 14.5019 15.3661 14.4613C15.3928 14.4277 15.4193 14.3936 15.4458 14.3595C15.4564 14.3456 15.4676 14.3317 15.4783 14.3179C15.5071 14.2811 15.5373 14.2453 15.5687 14.2109C15.5741 14.2051 15.579 14.1987 15.5845 14.1928C15.621 14.1541 15.6602 14.1181 15.7039 14.0859C15.7048 14.0853 15.7051 14.0845 15.7059 14.084C15.8038 13.888 15.8973 13.6891 15.9873 13.4885Z" fill="#62D2A2"/>
<path opacity="0.4" d="M14.8418 23.2517C14.8645 23.2523 14.8876 23.2513 14.9103 23.2515C14.8893 23.2515 14.8686 23.2501 14.8476 23.2495C14.8455 23.2503 14.8435 23.2511 14.8418 23.2517Z" fill="#62D2A2"/>
<path d="M14.8486 23.2499C14.8696 23.2504 14.8904 23.2523 14.9114 23.2525C14.9396 23.2528 14.9681 23.2528 14.9965 23.2523C15.0852 23.2501 15.1741 23.2456 15.2647 23.2341C15.2003 23.2035 15.1373 23.1715 15.0745 23.1387C14.9994 23.1757 14.924 23.2128 14.8486 23.2499Z" fill="#62D2A2"/>
<path opacity="0.4" d="M14.8486 23.2499C14.8696 23.2504 14.8904 23.2523 14.9114 23.2525C14.9396 23.2528 14.9681 23.2528 14.9965 23.2523C15.0852 23.2501 15.1741 23.2456 15.2647 23.2341C15.2003 23.2035 15.1373 23.1715 15.0745 23.1387C14.9994 23.1757 14.924 23.2128 14.8486 23.2499Z" fill="#62D2A2"/>
</svg>
