<svg width="208" height="36" viewBox="0 0 208 36" fill="none" xmlns="http://www.w3.org/2000/svg">
<path d="M0.9375 19.875C0.979167 18.625 1.17188 17.3125 1.51562 15.9375C1.86979 14.5521 2.34896 13.2188 2.95312 11.9375C3.55729 10.6562 4.27083 9.45312 5.09375 8.32812C5.92708 7.20312 6.83854 6.22396 7.82812 5.39062C9.95312 3.59896 12.1823 2.70312 14.5156 2.70312C17.349 2.70312 19.1979 3.98958 20.0625 6.5625C20.375 7.46875 20.5104 8.58854 20.4688 9.92188C20.4375 11.2448 20.2344 12.5938 19.8594 13.9688C19.4948 15.3438 18.9948 16.6719 18.3594 17.9531C17.7344 19.2344 17 20.4375 16.1562 21.5625C15.3125 22.6771 14.3958 23.6458 13.4062 24.4688C11.2917 26.2604 9.17708 27.1562 7.0625 27.1562C5.16667 27.1562 3.66146 26.5365 2.54688 25.2969C1.41146 24.026 0.875 22.2188 0.9375 19.875ZM6.03125 13.875C5.5 15.0833 5.06771 16.3177 4.73438 17.5781C4.41146 18.8385 4.23438 19.9115 4.20312 20.7969C4.18229 21.6719 4.23438 22.3542 4.35938 22.8438C4.49479 23.3229 4.68229 23.7292 4.92188 24.0625C5.42188 24.7708 6.0625 25.125 6.84375 25.125C7.63542 25.125 8.42708 24.8698 9.21875 24.3594C10.0104 23.849 10.776 23.1667 11.5156 22.3125C12.2656 21.4583 12.974 20.474 13.6406 19.3594C14.3177 18.2448 14.9115 17.0833 15.4219 15.875C16.901 12.3646 17.4427 9.46875 17.0469 7.1875C16.776 5.60417 15.9115 4.8125 14.4531 4.8125C13.1198 4.8125 11.6354 5.71875 10 7.53125C8.45833 9.21875 7.13542 11.3333 6.03125 13.875ZM21.1562 26.625C20.9479 26.4688 20.7812 26.2969 20.6562 26.1094C20.5312 25.9115 20.4635 25.7448 20.4531 25.6094C20.4427 25.4635 20.4688 25.2917 20.5312 25.0938C20.6042 24.8854 20.6979 24.6354 20.8125 24.3438C22.9375 19.1146 24 15.6042 24 13.8125C23.9688 13.3125 23.7969 12.9583 23.4844 12.75L23.1719 12.5312C23.0781 12.4583 23.026 12.3333 23.0156 12.1562C23.0156 11.9688 23.0833 11.7917 23.2188 11.625C23.3542 11.4583 23.5312 11.3125 23.75 11.1875C24.1979 10.9479 24.6562 10.8281 25.125 10.8281C25.6042 10.8281 25.974 10.8802 26.2344 10.9844C26.5052 11.0885 26.7344 11.2292 26.9219 11.4062C27.3177 11.7812 27.5156 12.1771 27.5156 12.5938C27.526 13.0104 27.4792 13.4323 27.375 13.8594C27.2812 14.2865 27.1667 14.7083 27.0312 15.125C26.8958 15.5312 26.7604 15.9219 26.625 16.2969C26.4896 16.6615 26.401 16.9323 26.3594 17.1094C26.276 17.474 26.2448 17.7031 26.2656 17.7969C26.5156 17.5781 26.6667 17.3646 26.7188 17.1562L27.3281 16C28.6823 13.5625 30.0052 11.9479 31.2969 11.1562C31.6719 10.9375 32.1198 10.8281 32.6406 10.8281C33.1719 10.8281 33.599 11.0156 33.9219 11.3906C34.2448 11.7552 34.4115 12.1615 34.4219 12.6094C34.4427 13.0573 34.4115 13.4323 34.3281 13.7344C34.2552 14.026 34.1406 14.3021 33.9844 14.5625C33.6406 15.1458 33.224 15.4375 32.7344 15.4375C32.599 15.4375 32.474 15.3906 32.3594 15.2969L32.0156 15C31.6719 14.6979 31.3385 14.5469 31.0156 14.5469C30.7031 14.5469 30.3177 14.7552 29.8594 15.1719C29.4115 15.5885 28.9427 16.125 28.4531 16.7812C26.8073 18.9583 25.4635 21.3958 24.4219 24.0938L23.7344 25.9062C23.5573 26.3542 23.401 26.6771 23.2656 26.875C23.1302 27.0625 22.9271 27.1562 22.6562 27.1562C22.3958 27.1562 22.1302 27.1042 21.8594 27C21.599 26.9062 21.3646 26.7812 21.1562 26.625ZM43.3125 23.5938C41.7292 25.9688 39.974 27.1562 38.0469 27.1562C36.3073 27.1562 35.1354 26.2292 34.5312 24.375C34.3229 23.7396 34.2188 22.9583 34.2188 22.0312C34.2188 21.1042 34.349 20.1771 34.6094 19.25C34.8802 18.3125 35.2448 17.4271 35.7031 16.5938C36.1615 15.7604 36.6979 14.9948 37.3125 14.2969C37.9375 13.5885 38.6042 12.9792 39.3125 12.4688C40.7917 11.375 42.2604 10.8281 43.7188 10.8281C45.1771 10.8281 46.2188 11.5104 46.8438 12.875C46.9688 12.7396 47.0833 12.6042 47.1875 12.4688C47.2917 12.3229 47.4062 12.1875 47.5312 12.0625C47.8021 11.7917 48.0365 11.6562 48.2344 11.6562C48.4427 11.6562 48.6562 11.6927 48.875 11.7656C49.1042 11.8385 49.3229 11.9375 49.5312 12.0625C50.0417 12.3646 50.2344 12.6458 50.1094 12.9062C49.5365 14.1458 49.0573 15.3646 48.6719 16.5625L46.3594 23.9375C44.5365 29.5312 42.224 33.1458 39.4219 34.7812C38.6823 35.2188 38.0417 35.4688 37.5 35.5312C36.9583 35.6042 36.5677 35.6094 36.3281 35.5469C36.0885 35.4844 35.875 35.3958 35.6875 35.2812C35.2812 35.0208 35.0781 34.7865 35.0781 34.5781C35.0781 34.2135 35.3177 33.9896 35.7969 33.9062C36.2865 33.8229 36.7969 33.625 37.3281 33.3125C37.8594 33.0104 38.3646 32.6406 38.8438 32.2031C40.8125 30.3802 42.3021 27.5104 43.3125 23.5938ZM38.625 18.1719C38.3542 18.9219 38.1406 19.6927 37.9844 20.4844C37.8281 21.2656 37.75 21.9062 37.75 22.4062C37.75 22.9062 37.7656 23.2865 37.7969 23.5469C37.8281 23.8073 37.8906 24.0365 37.9844 24.2344C38.1927 24.6719 38.5 24.8906 38.9062 24.8906C39.3125 24.8906 39.7135 24.75 40.1094 24.4688C40.5052 24.1771 40.9219 23.7812 41.3594 23.2812C41.7969 22.7812 42.2344 22.1927 42.6719 21.5156C43.1094 20.8385 43.526 20.1094 43.9219 19.3281C44.7969 17.599 45.4115 15.9479 45.7656 14.375C45.7135 14.0833 45.5365 13.7865 45.2344 13.4844C44.6406 12.9115 44.1042 12.625 43.625 12.625C43.1458 12.625 42.6667 12.776 42.1875 13.0781C41.7083 13.3698 41.25 13.7708 40.8125 14.2812C40.3854 14.7812 39.9844 15.3698 39.6094 16.0469C39.2344 16.7135 38.9062 17.4219 38.625 18.1719ZM63.0938 22.8438C63.0938 23.8021 63.4323 24.2812 64.1094 24.2812C64.5781 24.2812 64.9635 24.2083 65.2656 24.0625C65.5781 23.9167 65.7865 23.8438 65.8906 23.8438C66.1094 23.8438 66.2188 23.9583 66.2188 24.1875C66.2188 25.0833 65.75 25.8542 64.8125 26.5C63.8229 27.1771 62.8125 27.3438 61.7812 27C61.1042 26.7604 60.6042 26.2448 60.2812 25.4531C60.125 25.0469 60.0469 24.6771 60.0469 24.3438C60.0469 23.8021 60.099 23.2292 60.2031 22.625C59.2344 24.6042 58.0312 25.9688 56.5938 26.7188C56.0208 27.0104 55.4115 27.1562 54.7656 27.1562C54.1198 27.1562 53.5573 27.026 53.0781 26.7656C52.6094 26.4948 52.2083 26.125 51.875 25.6562C51.1979 24.6771 50.8906 23.4479 50.9531 21.9688C51.0156 20.1146 51.5625 18.2969 52.5938 16.5156C53.5417 14.849 54.7396 13.4896 56.1875 12.4375C57.6354 11.3646 58.9896 10.8281 60.25 10.8281C61.5104 10.8281 62.526 11.4062 63.2969 12.5625C64.0156 11.4062 64.651 10.8281 65.2031 10.8281C65.7969 10.8281 66.2448 10.9375 66.5469 11.1562C67.1198 11.5729 67.3229 11.9375 67.1562 12.25C64.5417 17.6042 63.1979 20.9375 63.125 22.25C63.1042 22.4375 63.0938 22.6354 63.0938 22.8438ZM54.4219 22.9062C54.4219 24.1562 54.8229 24.7812 55.625 24.7812C56.2396 24.7812 56.9948 24.2604 57.8906 23.2188C59.2031 21.6875 60.3646 19.625 61.375 17.0312C61.6979 16.2188 61.9688 15.4062 62.1875 14.5938C62.1458 13.8854 61.849 13.3646 61.2969 13.0312C61.1094 12.9167 60.8281 12.8594 60.4531 12.8594C60.0885 12.8594 59.6562 12.9948 59.1562 13.2656C58.6667 13.5365 58.1875 13.9062 57.7188 14.375C57.2604 14.8438 56.8281 15.401 56.4219 16.0469C56.026 16.6823 55.6771 17.375 55.375 18.125C54.7396 19.7292 54.4219 21.3229 54.4219 22.9062ZM79.6406 13.7812C79.3177 13.7812 78.8594 14.0938 78.2656 14.7188C77.6719 15.3333 77.1562 15.8958 76.7188 16.4062L75.3906 18L72.8281 21.2656C72.224 22.4115 71.75 23.3646 71.4062 24.125L70.5625 25.9375C70.3438 26.3854 70.151 26.7031 69.9844 26.8906C69.8281 27.0677 69.6094 27.1562 69.3281 27.1562C69.0573 27.1562 68.7917 27.1042 68.5312 27C68.2812 26.9062 68.0625 26.7812 67.875 26.625C67.4792 26.2917 67.2812 25.9271 67.2812 25.5312C67.2812 25.375 67.3958 25.0677 67.625 24.6094L68.2188 23.3438C68.4062 22.9688 68.625 22.4896 68.875 21.9062L69.75 19.7656C70.9792 16.6927 71.5938 14.7083 71.5938 13.8125C71.5938 13.3333 71.4375 12.9792 71.125 12.75L70.8125 12.5312C70.7083 12.4583 70.6562 12.3333 70.6562 12.1562C70.6562 11.9688 70.724 11.7917 70.8594 11.625C71.0052 11.4583 71.1927 11.3125 71.4219 11.1875C71.8906 10.9479 72.3594 10.8281 72.8281 10.8281C73.3073 10.8281 73.6771 10.8802 73.9375 10.9844C74.1979 11.0885 74.4167 11.2292 74.5938 11.4062C74.9792 11.7708 75.1719 12.151 75.1719 12.5469C75.1719 12.9427 75.1198 13.3438 75.0156 13.75C74.9219 14.1458 74.7969 14.5521 74.6406 14.9688C74.4948 15.375 74.3385 15.776 74.1719 16.1719C74.0052 16.5677 73.8542 16.9115 73.7188 17.2031L73.4062 17.875C73.3229 18.0417 73.3021 18.0938 73.3438 18.0312C74.5 16.4271 75.2604 15.3958 75.625 14.9375L76.7188 13.625C77.5208 12.6875 78.151 12.0677 78.6094 11.7656C79.5365 11.1406 80.2656 10.8281 80.7969 10.8281C81.3281 10.8281 81.776 10.8958 82.1406 11.0312C82.5052 11.1667 82.8229 11.3594 83.0938 11.6094C83.6667 12.1406 83.9531 12.8177 83.9531 13.6406C83.9531 14.4635 83.7656 15.3229 83.3906 16.2188C83.0156 17.1146 82.6875 17.8438 82.4062 18.4062C82.1354 18.9583 81.875 19.5208 81.625 20.0938C80.8438 21.8333 80.4531 23.099 80.4531 23.8906C80.4531 24.2448 80.7344 24.4219 81.2969 24.4219C81.7344 24.4219 82.1302 24.3281 82.4844 24.1406C82.849 23.9531 83.0833 23.8594 83.1875 23.8594C83.4062 23.8594 83.5156 23.9688 83.5156 24.1875C83.5156 25.1146 83.0417 25.8906 82.0938 26.5156C81.4583 26.9427 80.875 27.1562 80.3438 27.1562C79.8125 27.1562 79.3698 27.099 79.0156 26.9844C78.6719 26.8698 78.3646 26.6875 78.0938 26.4375C77.4792 25.8854 77.1719 25.1146 77.1719 24.125C77.1719 22.9167 77.5521 21.4062 78.3125 19.5938C78.8646 18.3542 79.2552 17.5052 79.4844 17.0469L80.0156 15.9375C80.3385 15.2708 80.5 14.7448 80.5 14.3594C80.5 13.974 80.2135 13.7812 79.6406 13.7812ZM94.7812 7.17188C94.5521 7.41146 94.2917 7.60938 94 7.76562C93.7083 7.91146 93.401 8.00521 93.0781 8.04688C92.7552 8.07812 92.4479 8.02604 92.1562 7.89062C91.875 7.75521 91.6302 7.5625 91.4219 7.3125C90.974 6.79167 90.75 6.26562 90.75 5.73438C90.75 5.20312 90.8333 4.80729 91 4.54688C91.1771 4.27604 91.3958 4.05729 91.6562 3.89062C92.1562 3.56771 92.625 3.40625 93.0625 3.40625C93.5104 3.40625 93.8542 3.4375 94.0938 3.5C94.3438 3.5625 94.5729 3.66667 94.7812 3.8125C95.2917 4.15625 95.5469 4.57812 95.5469 5.07812C95.5469 5.56771 95.474 5.97917 95.3281 6.3125C95.1927 6.63542 95.0104 6.92188 94.7812 7.17188ZM91.5781 24.0781C91.849 24.0781 91.9844 24.2552 91.9844 24.6094C91.9844 25.0781 91.7708 25.5625 91.3438 26.0625C90.7188 26.7917 89.8802 27.1562 88.8281 27.1562C87.6198 27.1562 86.7917 26.6667 86.3438 25.6875C86.1771 25.3438 86.0938 24.9271 86.0938 24.4375C86.0938 23.9479 86.1771 23.4062 86.3438 22.8125C86.5208 22.2083 86.7344 21.5781 86.9844 20.9219C87.2448 20.2552 87.526 19.5833 87.8281 18.9062L88.6562 16.9375C89.2604 15.4688 89.5625 14.5 89.5625 14.0312C89.5625 13.5625 89.5104 13.2552 89.4062 13.1094C89.3125 12.9531 89.2083 12.8333 89.0938 12.75L88.7812 12.5312C88.6771 12.4583 88.625 12.3333 88.625 12.1562C88.625 11.9688 88.6927 11.7917 88.8281 11.625C88.974 11.4583 89.1615 11.3125 89.3906 11.1875C89.8594 10.9479 90.4062 10.8281 91.0312 10.8281C92.5625 10.8281 93.3281 11.2292 93.3281 12.0312C93.3281 12.9688 93.0833 14.0417 92.5938 15.25C92.1042 16.4479 91.6875 17.4167 91.3438 18.1562L90.4062 20.3125C89.7188 21.8958 89.375 23.0365 89.375 23.7344C89.375 24.1927 89.6042 24.4219 90.0625 24.4219C90.5104 24.4219 90.849 24.3646 91.0781 24.25C91.3073 24.1354 91.474 24.0781 91.5781 24.0781ZM95.4375 21.6094C95.4583 20.7031 95.599 19.8021 95.8594 18.9062C96.1302 18 96.4844 17.1458 96.9219 16.3438C97.3698 15.5417 97.8958 14.8021 98.5 14.125C99.1146 13.4479 99.7812 12.8646 100.5 12.375C102 11.3438 103.578 10.8281 105.234 10.8281C106.943 10.8281 108.104 11.5104 108.719 12.875C108.938 13.3646 109.036 13.9219 109.016 14.5469C109.005 15.1615 108.906 15.7292 108.719 16.25C108.531 16.7604 108.297 17.2188 108.016 17.625C107.38 18.5417 106.74 19 106.094 19C105.375 19 104.844 18.8021 104.5 18.4062C104.198 18.0625 104.104 17.6615 104.219 17.2031C104.25 17.0677 104.344 16.9479 104.5 16.8438C104.656 16.7292 104.854 16.5521 105.094 16.3125C105.771 15.6042 106.125 14.776 106.156 13.8281C106.177 13.1823 105.781 12.8594 104.969 12.8594C104.094 12.8594 103.177 13.349 102.219 14.3281C100.823 15.7552 99.8385 17.5833 99.2656 19.8125C98.7656 21.75 98.8594 23.1667 99.5469 24.0625C99.9531 24.5833 100.505 24.8438 101.203 24.8438C102.38 24.8438 103.516 24.4271 104.609 23.5938C104.943 23.3333 105.214 23.0677 105.422 22.7969C105.63 22.526 105.823 22.3906 106 22.3906C106.177 22.3906 106.323 22.4792 106.438 22.6562C106.562 22.8229 106.625 23.0417 106.625 23.3125C106.625 23.9271 106.349 24.5312 105.797 25.125C104.38 26.4792 102.677 27.1562 100.688 27.1562C98.9896 27.1562 97.6771 26.6719 96.75 25.7031C95.8333 24.7448 95.3958 23.3802 95.4375 21.6094ZM120.656 20.4375L120.672 19.9844C120.786 16.8698 121.573 13.9271 123.031 11.1562C124.375 8.625 126.068 6.57812 128.109 5.01562C130.13 3.47396 132.099 2.70312 134.016 2.70312C135.474 2.70312 136.625 3.20833 137.469 4.21875C138.188 5.09375 138.547 6.16667 138.547 7.4375C138.547 8.95833 137.99 10.4583 136.875 11.9375C136.229 12.7917 135.542 13.4062 134.812 13.7812C134.469 13.9688 134.146 14.0625 133.844 14.0625C133.552 14.0625 133.281 14 133.031 13.875C132.781 13.75 132.562 13.5938 132.375 13.4062C131.99 13 131.797 12.6354 131.797 12.3125C131.797 11.9896 131.88 11.7656 132.047 11.6406C133.755 10.4115 134.917 9.14583 135.531 7.84375C135.771 7.34375 135.891 6.85417 135.891 6.375C135.891 5.36458 135.411 4.85938 134.453 4.85938C132.953 4.85938 131.406 5.67708 129.812 7.3125C128.323 8.82292 127.073 10.7188 126.062 13C125.01 15.3438 124.453 17.4948 124.391 19.4531L124.375 20.0469C124.375 22.3906 124.87 23.9271 125.859 24.6562C126.214 24.9167 126.635 25.0469 127.125 25.0469C127.625 25.0469 128.094 24.9844 128.531 24.8594C128.969 24.7344 129.406 24.5625 129.844 24.3438C130.552 23.9792 131.458 23.349 132.562 22.4531C132.896 22.1927 133.172 22.2292 133.391 22.5625C133.578 22.8333 133.672 23.1458 133.672 23.5C133.672 24.0938 133.589 24.5 133.422 24.7188C133.266 24.9271 132.99 25.1771 132.594 25.4688C132.208 25.7604 131.734 26.0312 131.172 26.2812C129.859 26.8646 128.573 27.1562 127.312 27.1562C126.052 27.1562 125.036 27.0052 124.266 26.7031C123.495 26.3906 122.844 25.9479 122.312 25.375C121.208 24.1667 120.656 22.5208 120.656 20.4375ZM138.797 25.9375C138.359 25.5208 138.016 24.9948 137.766 24.3594C137.516 23.7135 137.385 22.9531 137.375 22.0781C137.365 21.2031 137.469 20.3177 137.688 19.4219C137.917 18.526 138.234 17.6615 138.641 16.8281C139.057 15.9948 139.552 15.2135 140.125 14.4844C140.708 13.7552 141.349 13.1198 142.047 12.5781C143.568 11.4115 145.146 10.8281 146.781 10.8281C148.927 10.8281 150.38 11.7708 151.141 13.6562C151.682 15.0208 151.714 16.6719 151.234 18.6094C150.797 20.3906 149.995 22.026 148.828 23.5156C147.672 25.0052 146.307 26.0625 144.734 26.6875C143.943 27 143.161 27.1562 142.391 27.1562C141.63 27.1562 140.948 27.0573 140.344 26.8594C139.75 26.6615 139.234 26.3542 138.797 25.9375ZM141.781 18.3594C141.469 19.1302 141.219 19.9219 141.031 20.7344C140.854 21.5469 140.771 22.3177 140.781 23.0469C140.792 23.7656 140.901 24.3333 141.109 24.75C141.328 25.1562 141.677 25.3594 142.156 25.3594C142.635 25.3594 143.104 25.1979 143.562 24.875C144.031 24.5417 144.484 24.1042 144.922 23.5625C145.359 23.0208 145.771 22.3958 146.156 21.6875C146.542 20.9792 146.88 20.2396 147.172 19.4688C147.807 17.7917 148.115 16.3021 148.094 15C148.094 13.8542 147.859 13.125 147.391 12.8125C147.203 12.6875 146.938 12.625 146.594 12.625C146.26 12.625 145.875 12.7812 145.438 13.0938C145 13.3958 144.562 13.8073 144.125 14.3281C143.688 14.849 143.266 15.4583 142.859 16.1562C142.453 16.8542 142.094 17.5885 141.781 18.3594ZM152.047 30.4375C152.047 30.2188 152.214 29.7812 152.547 29.125C152.87 28.4792 153.224 27.651 153.609 26.6406C154.005 25.6302 154.38 24.5781 154.734 23.4844C155.089 22.3906 155.448 21.2188 155.812 19.9688L157.031 15.8438L155.406 16.2812C155 16.2812 154.667 16.0677 154.406 15.6406C154.344 15.526 154.312 15.3906 154.312 15.2344C154.312 15.0781 154.438 14.8958 154.688 14.6875C154.938 14.4688 155.245 14.2656 155.609 14.0781C156.339 13.7031 157.089 13.4167 157.859 13.2188L158 12.7812C158.281 11.9062 158.547 11 158.797 10.0625C159.057 9.11458 159.328 8.19271 159.609 7.29688C159.901 6.40104 160.229 5.55208 160.594 4.75C160.958 3.9375 161.385 3.22917 161.875 2.625C162.958 1.3125 164.318 0.65625 165.953 0.65625C167.161 0.65625 168.12 0.979167 168.828 1.625C169.536 2.27083 169.891 3.14583 169.891 4.25C169.891 5.39583 169.562 6.39062 168.906 7.23438C168.354 7.93229 167.74 8.28125 167.062 8.28125C166.219 8.28125 165.646 7.89583 165.344 7.125C165.26 6.92708 165.219 6.76042 165.219 6.625C165.219 6.39583 165.375 6.1875 165.688 6C166.26 5.5625 166.661 4.97917 166.891 4.25C166.964 4.02083 167 3.79688 167 3.57812C167 2.72396 166.667 2.29688 166 2.29688C165.083 2.29688 164.24 3.33333 163.469 5.40625C163.24 6.04167 163.01 6.73958 162.781 7.5L161.312 12.4844C162.26 12.3385 162.948 12.2656 163.375 12.2656C163.812 12.2656 164.198 12.3177 164.531 12.4219C164.865 12.5156 165.167 12.651 165.438 12.8281C166.052 13.2344 166.359 13.7344 166.359 14.3281C166.359 14.9219 166.068 15.2188 165.484 15.2188L163.5 15.1406C162.417 15.1406 161.417 15.1875 160.5 15.2812L159.219 19.8125C158.375 22.8854 157.688 25.1198 157.156 26.5156C156.635 27.9115 156.125 29.0938 155.625 30.0625C155.156 30.9479 154.443 31.3906 153.484 31.3906C152.526 31.3906 152.047 31.0729 152.047 30.4375ZM164.641 30.4375C164.641 30.2188 164.807 29.7812 165.141 29.125C165.464 28.4792 165.818 27.651 166.203 26.6406C166.599 25.6302 166.974 24.5781 167.328 23.4844C167.682 22.3906 168.042 21.2188 168.406 19.9688L169.625 15.8438L168 16.2812C167.594 16.2812 167.26 16.0677 167 15.6406C166.938 15.526 166.906 15.3906 166.906 15.2344C166.906 15.0781 167.031 14.8958 167.281 14.6875C167.531 14.4688 167.839 14.2656 168.203 14.0781C168.932 13.7031 169.682 13.4167 170.453 13.2188L170.594 12.7812C170.875 11.9062 171.141 11 171.391 10.0625C171.651 9.11458 171.922 8.19271 172.203 7.29688C172.495 6.40104 172.823 5.55208 173.188 4.75C173.552 3.9375 173.979 3.22917 174.469 2.625C175.552 1.3125 176.911 0.65625 178.547 0.65625C179.755 0.65625 180.714 0.979167 181.422 1.625C182.13 2.27083 182.484 3.14583 182.484 4.25C182.484 5.39583 182.156 6.39062 181.5 7.23438C180.948 7.93229 180.333 8.28125 179.656 8.28125C178.812 8.28125 178.24 7.89583 177.938 7.125C177.854 6.92708 177.812 6.76042 177.812 6.625C177.812 6.39583 177.969 6.1875 178.281 6C178.854 5.5625 179.255 4.97917 179.484 4.25C179.557 4.02083 179.594 3.79688 179.594 3.57812C179.594 2.72396 179.26 2.29688 178.594 2.29688C177.677 2.29688 176.833 3.33333 176.062 5.40625C175.833 6.04167 175.604 6.73958 175.375 7.5L173.906 12.4844C174.854 12.3385 175.542 12.2656 175.969 12.2656C176.406 12.2656 176.792 12.3177 177.125 12.4219C177.458 12.5156 177.76 12.651 178.031 12.8281C178.646 13.2344 178.953 13.7344 178.953 14.3281C178.953 14.9219 178.661 15.2188 178.078 15.2188L176.094 15.1406C175.01 15.1406 174.01 15.1875 173.094 15.2812L171.812 19.8125C170.969 22.8854 170.281 25.1198 169.75 26.5156C169.229 27.9115 168.719 29.0938 168.219 30.0625C167.75 30.9479 167.036 31.3906 166.078 31.3906C165.12 31.3906 164.641 31.0729 164.641 30.4375ZM179.156 21.5312C179.198 20.625 179.349 19.7604 179.609 18.9375C179.87 18.1042 180.219 17.3021 180.656 16.5312C181.094 15.75 181.604 15.0156 182.188 14.3281C182.781 13.6302 183.422 13.0208 184.109 12.5C185.599 11.3854 187.104 10.8281 188.625 10.8281C190.406 10.8281 191.594 11.5625 192.188 13.0312C192.396 13.5312 192.495 14.125 192.484 14.8125C192.474 15.4896 192.344 16.1198 192.094 16.7031C191.844 17.276 191.495 17.8021 191.047 18.2812C190.609 18.75 190.083 19.1719 189.469 19.5469C188.865 19.9219 188.203 20.2396 187.484 20.5C186.005 21.0208 184.422 21.2917 182.734 21.3125C182.693 21.4583 182.667 21.6771 182.656 21.9688C182.646 22.2604 182.677 22.5885 182.75 22.9531C182.823 23.3073 182.948 23.625 183.125 23.9062C183.5 24.5312 184.042 24.8438 184.75 24.8438C185.958 24.8438 187.135 24.4896 188.281 23.7812C188.688 23.5417 189.016 23.2969 189.266 23.0469C189.526 22.7865 189.75 22.6562 189.938 22.6562C190.125 22.6562 190.286 22.7708 190.422 23C190.568 23.2188 190.641 23.4688 190.641 23.75C190.641 24.3021 190.484 24.7812 190.172 25.1875C188.859 26.5 186.906 27.1562 184.312 27.1562C182.781 27.1562 181.552 26.6979 180.625 25.7812C179.583 24.7396 179.094 23.3229 179.156 21.5312ZM188.281 12.9062C187.188 12.9062 186.135 13.6562 185.125 15.1562C184.271 16.4479 183.583 17.9792 183.062 19.75C184.802 19.5729 186.312 18.8854 187.594 17.6875C188.771 16.5625 189.359 15.4844 189.359 14.4531C189.359 13.4219 189 12.9062 188.281 12.9062ZM194.25 21.5312C194.292 20.625 194.443 19.7604 194.703 18.9375C194.964 18.1042 195.312 17.3021 195.75 16.5312C196.188 15.75 196.698 15.0156 197.281 14.3281C197.875 13.6302 198.516 13.0208 199.203 12.5C200.693 11.3854 202.198 10.8281 203.719 10.8281C205.5 10.8281 206.688 11.5625 207.281 13.0312C207.49 13.5312 207.589 14.125 207.578 14.8125C207.568 15.4896 207.438 16.1198 207.188 16.7031C206.938 17.276 206.589 17.8021 206.141 18.2812C205.703 18.75 205.177 19.1719 204.562 19.5469C203.958 19.9219 203.297 20.2396 202.578 20.5C201.099 21.0208 199.516 21.2917 197.828 21.3125C197.786 21.4583 197.76 21.6771 197.75 21.9688C197.74 22.2604 197.771 22.5885 197.844 22.9531C197.917 23.3073 198.042 23.625 198.219 23.9062C198.594 24.5312 199.135 24.8438 199.844 24.8438C201.052 24.8438 202.229 24.4896 203.375 23.7812C203.781 23.5417 204.109 23.2969 204.359 23.0469C204.62 22.7865 204.844 22.6562 205.031 22.6562C205.219 22.6562 205.38 22.7708 205.516 23C205.661 23.2188 205.734 23.4688 205.734 23.75C205.734 24.3021 205.578 24.7812 205.266 25.1875C203.953 26.5 202 27.1562 199.406 27.1562C197.875 27.1562 196.646 26.6979 195.719 25.7812C194.677 24.7396 194.188 23.3229 194.25 21.5312ZM203.375 12.9062C202.281 12.9062 201.229 13.6562 200.219 15.1562C199.365 16.4479 198.677 17.9792 198.156 19.75C199.896 19.5729 201.406 18.8854 202.688 17.6875C203.865 16.5625 204.453 15.4844 204.453 14.4531C204.453 13.4219 204.094 12.9062 203.375 12.9062Z" fill="#62D2A2"/>
</svg>
