<svg width="125" height="28" viewBox="0 0 125 28" fill="none" xmlns="http://www.w3.org/2000/svg">
<path d="M6.17188 23.2031C5.40104 24.3594 4.64062 25.3021 3.89062 26.0312C3.15104 26.75 2.43229 27.1094 1.73438 27.1094C1.38021 27.1094 1.11458 27.026 0.9375 26.8594C0.635417 26.5885 0.484375 26.3333 0.484375 26.0938C0.484375 25.8542 0.5625 25.6771 0.71875 25.5625C2.29167 24.4271 4.03646 21.0938 5.95312 15.5625L6.875 12.9375C7.9375 9.9375 8.83854 8.07812 9.57812 7.35938C9.83854 7.16146 10.1094 7.0625 10.3906 7.0625C10.6719 7.0625 10.9167 7.10938 11.125 7.20312C11.3333 7.28646 11.5156 7.39583 11.6719 7.53125C12.026 7.84375 12.2031 8.20833 12.2031 8.625C12.2031 8.78125 12.1302 9.00521 11.9844 9.29688C11.8385 9.58854 11.6719 9.96875 11.4844 10.4375L9.5 15.9531C12.0312 15.4948 14.1198 14.4479 15.7656 12.8125C17.3073 11.2812 18.0781 9.70833 18.0781 8.09375C18.0781 6.5625 17.3906 5.55729 16.0156 5.07812C15.5469 4.91146 15 4.82812 14.375 4.82812C13.7604 4.82812 13.1302 4.90625 12.4844 5.0625C11.8385 5.21875 11.2031 5.42188 10.5781 5.67188C9.31771 6.18229 8.28646 6.78125 7.48438 7.46875C7.27604 7.66667 7.04688 7.76562 6.79688 7.76562C6.54688 7.76562 6.3125 7.71354 6.09375 7.60938C5.875 7.50521 5.68229 7.36979 5.51562 7.20312C5.13021 6.83854 4.9375 6.46875 4.9375 6.09375C4.9375 5.70833 5.07292 5.36458 5.34375 5.0625C5.61458 4.76042 5.97396 4.48958 6.42188 4.25C6.86979 4 7.38542 3.78125 7.96875 3.59375C8.55208 3.39583 9.15104 3.22917 9.76562 3.09375C11.0156 2.83333 12.2552 2.70312 13.4844 2.70312C14.724 2.70312 15.8542 2.85938 16.875 3.17188C17.9062 3.47396 18.7552 3.88542 19.4219 4.40625C20.7656 5.44792 21.4375 6.77083 21.4375 8.375V8.625C21.3438 10.5938 20.599 12.3281 19.2031 13.8281C17.9844 15.1302 16.4115 16.1562 14.4844 16.9062C12.7448 17.5938 11.099 17.9375 9.54688 17.9375H9.14062C9.00521 17.9375 8.875 17.9271 8.75 17.9062C7.8125 20.2708 6.95312 22.0365 6.17188 23.2031ZM20.5156 26.625C20.3073 26.4688 20.1406 26.2969 20.0156 26.1094C19.8906 25.9115 19.8229 25.7448 19.8125 25.6094C19.8021 25.4635 19.8281 25.2917 19.8906 25.0938C19.9635 24.8854 20.0573 24.6354 20.1719 24.3438C22.2969 19.1146 23.3594 15.6042 23.3594 13.8125C23.3281 13.3125 23.1562 12.9583 22.8438 12.75L22.5312 12.5312C22.4375 12.4583 22.3854 12.3333 22.375 12.1562C22.375 11.9688 22.4427 11.7917 22.5781 11.625C22.7135 11.4583 22.8906 11.3125 23.1094 11.1875C23.5573 10.9479 24.0156 10.8281 24.4844 10.8281C24.9635 10.8281 25.3333 10.8802 25.5938 10.9844C25.8646 11.0885 26.0938 11.2292 26.2812 11.4062C26.6771 11.7812 26.875 12.1771 26.875 12.5938C26.8854 13.0104 26.8385 13.4323 26.7344 13.8594C26.6406 14.2865 26.526 14.7083 26.3906 15.125C26.2552 15.5312 26.1198 15.9219 25.9844 16.2969C25.849 16.6615 25.7604 16.9323 25.7188 17.1094C25.6354 17.474 25.6042 17.7031 25.625 17.7969C25.875 17.5781 26.026 17.3646 26.0781 17.1562L26.6875 16C28.0417 13.5625 29.3646 11.9479 30.6562 11.1562C31.0312 10.9375 31.4792 10.8281 32 10.8281C32.5312 10.8281 32.9583 11.0156 33.2812 11.3906C33.6042 11.7552 33.7708 12.1615 33.7812 12.6094C33.8021 13.0573 33.7708 13.4323 33.6875 13.7344C33.6146 14.026 33.5 14.3021 33.3438 14.5625C33 15.1458 32.5833 15.4375 32.0938 15.4375C31.9583 15.4375 31.8333 15.3906 31.7188 15.2969L31.375 15C31.0312 14.6979 30.6979 14.5469 30.375 14.5469C30.0625 14.5469 29.6771 14.7552 29.2188 15.1719C28.7708 15.5885 28.3021 16.125 27.8125 16.7812C26.1667 18.9583 24.8229 21.3958 23.7812 24.0938L23.0938 25.9062C22.9167 26.3542 22.7604 26.6771 22.625 26.875C22.4896 27.0625 22.2865 27.1562 22.0156 27.1562C21.7552 27.1562 21.4896 27.1042 21.2188 27C20.9583 26.9062 20.724 26.7812 20.5156 26.625ZM34.9688 25.9375C34.5312 25.5208 34.1875 24.9948 33.9375 24.3594C33.6875 23.7135 33.5573 22.9531 33.5469 22.0781C33.5365 21.2031 33.6406 20.3177 33.8594 19.4219C34.0885 18.526 34.4062 17.6615 34.8125 16.8281C35.2292 15.9948 35.724 15.2135 36.2969 14.4844C36.8802 13.7552 37.5208 13.1198 38.2188 12.5781C39.7396 11.4115 41.3177 10.8281 42.9531 10.8281C45.099 10.8281 46.5521 11.7708 47.3125 13.6562C47.8542 15.0208 47.8854 16.6719 47.4062 18.6094C46.9688 20.3906 46.1667 22.026 45 23.5156C43.8438 25.0052 42.4792 26.0625 40.9062 26.6875C40.1146 27 39.3333 27.1562 38.5625 27.1562C37.8021 27.1562 37.1198 27.0573 36.5156 26.8594C35.9219 26.6615 35.4062 26.3542 34.9688 25.9375ZM37.9531 18.3594C37.6406 19.1302 37.3906 19.9219 37.2031 20.7344C37.026 21.5469 36.9427 22.3177 36.9531 23.0469C36.9635 23.7656 37.0729 24.3333 37.2812 24.75C37.5 25.1562 37.849 25.3594 38.3281 25.3594C38.8073 25.3594 39.276 25.1979 39.7344 24.875C40.2031 24.5417 40.6562 24.1042 41.0938 23.5625C41.5312 23.0208 41.9427 22.3958 42.3281 21.6875C42.7135 20.9792 43.0521 20.2396 43.3438 19.4688C43.9792 17.7917 44.2865 16.3021 44.2656 15C44.2656 13.8542 44.0312 13.125 43.5625 12.8125C43.375 12.6875 43.1094 12.625 42.7656 12.625C42.4323 12.625 42.0469 12.7812 41.6094 13.0938C41.1719 13.3958 40.7344 13.8073 40.2969 14.3281C39.8594 14.849 39.4375 15.4583 39.0312 16.1562C38.625 16.8542 38.2656 17.5885 37.9531 18.3594ZM65.5938 23.8438C65.8125 23.8438 65.9219 23.9583 65.9219 24.1875C65.9219 25.0833 65.4583 25.8542 64.5312 26.5C63.9167 26.9375 63.3333 27.1562 62.7812 27.1562C62.2396 27.1562 61.8073 27.0938 61.4844 26.9688C61.1615 26.8438 60.8698 26.6458 60.6094 26.375C60.026 25.75 59.7344 24.8906 59.7344 23.7969C59.7344 23.5781 59.776 23.2292 59.8594 22.75C59.0156 24.0521 58.2917 24.9688 57.6875 25.5C56.4688 26.6042 55.276 27.1562 54.1094 27.1562C52.2656 27.1562 51.0573 26.3229 50.4844 24.6562C50.276 24.0417 50.1719 23.2708 50.1719 22.3438C50.1719 21.4167 50.3125 20.4792 50.5938 19.5312C50.875 18.5833 51.2552 17.6823 51.7344 16.8281C52.224 15.974 52.7865 15.1823 53.4219 14.4531C54.0677 13.7135 54.7448 13.0729 55.4531 12.5312C56.974 11.3958 58.349 10.8281 59.5781 10.8281C60.8073 10.8281 61.7917 11.3281 62.5312 12.3281C64.3438 6.11979 65.7083 2.45833 66.625 1.34375C67.0104 0.885417 67.4167 0.65625 67.8438 0.65625C68.5521 0.65625 69.0885 0.859375 69.4531 1.26562C69.5677 1.40104 69.625 1.53646 69.625 1.67188C69.625 1.80729 69.5417 2.05729 69.375 2.42188C69.2083 2.78646 68.9635 3.375 68.6406 4.1875C67.7135 6.63542 67.0625 8.42708 66.6875 9.5625C65.7292 12.4688 65.0833 14.4688 64.75 15.5625L63.8906 18.4531C63.151 21.026 62.7812 22.6615 62.7812 23.3594C62.7812 24.0573 63.0365 24.4062 63.5469 24.4062C64.0156 24.4062 64.3906 24.3438 64.6719 24.2188L65.2656 23.9375C65.3802 23.875 65.4896 23.8438 65.5938 23.8438ZM54.8594 24.8125C55.9323 24.8125 57.1615 23.7656 58.5469 21.6719C59.9948 19.5052 61.0052 17.1458 61.5781 14.5938C61.5365 13.8854 61.2396 13.3646 60.6875 13.0312C60.5 12.9167 60.2135 12.8594 59.8281 12.8594C59.4531 12.8594 59.0104 13 58.5 13.2812C58 13.5521 57.5104 13.9219 57.0312 14.3906C56.5625 14.8594 56.1198 15.4115 55.7031 16.0469C55.2969 16.6719 54.9427 17.3385 54.6406 18.0469C53.9844 19.5885 53.6562 21.1042 53.6562 22.5938C53.6562 24.0729 54.0573 24.8125 54.8594 24.8125ZM82.4062 23.9219C82.6458 23.9219 82.7656 24.0417 82.7656 24.2812C82.7656 25.1875 82.3177 25.9479 81.4219 26.5625C80.8177 26.9583 80.1094 27.1562 79.2969 27.1562C78.6302 27.1562 78.1198 27 77.7656 26.6875C77.1302 26.125 76.8125 25.4375 76.8125 24.625C76.8125 23.5938 77.2448 22.0156 78.1094 19.8906C76.5052 22.0573 75.3802 23.5 74.7344 24.2188C74.0885 24.9271 73.526 25.4792 73.0469 25.875C72.0052 26.7292 71.0625 27.1562 70.2188 27.1562C68.9271 27.1562 68.0677 26.599 67.6406 25.4844C67.5156 25.1406 67.4531 24.75 67.4531 24.3125C67.4531 23.8646 67.526 23.3698 67.6719 22.8281C67.8281 22.276 68.026 21.7031 68.2656 21.1094C68.5052 20.5156 68.7656 19.9062 69.0469 19.2812L69.8906 17.4062C70.974 15 71.375 13.5729 71.0938 13.125C70.9688 12.9271 70.7344 12.7292 70.3906 12.5312C70.2656 12.4583 70.2031 12.3333 70.2031 12.1562C70.2031 11.9688 70.276 11.7917 70.4219 11.625C70.5781 11.4583 70.776 11.3125 71.0156 11.1875C71.526 10.9479 72.0365 10.8281 72.5469 10.8281C73.0573 10.8281 73.4427 10.8854 73.7031 11C73.974 11.1042 74.1927 11.2396 74.3594 11.4062C74.7031 11.75 74.875 12.1302 74.875 12.5469C74.875 12.9635 74.8073 13.4323 74.6719 13.9531C74.5365 14.4635 74.3594 15.0208 74.1406 15.625C73.9219 16.2292 73.6823 16.8542 73.4219 17.5C72.7031 19.1875 72.2188 20.3021 71.9688 20.8438L71.3906 22.0469C71.0677 22.7656 70.9062 23.2708 70.9062 23.5625C70.9062 23.8542 70.9531 24.0625 71.0469 24.1875C71.1406 24.3021 71.3073 24.3594 71.5469 24.3594C71.7969 24.3594 72.0833 24.2448 72.4062 24.0156C72.7292 23.7865 73.0833 23.4792 73.4688 23.0938C73.8542 22.7083 74.2552 22.2656 74.6719 21.7656C75.0885 21.2552 75.4948 20.7292 75.8906 20.1875C76.6719 19.125 77.2448 18.2708 77.6094 17.625C79.8177 13.7188 80.9948 11.6771 81.1406 11.5C81.474 11.0521 81.8125 10.8281 82.1562 10.8281C82.5104 10.8281 82.8177 10.8698 83.0781 10.9531C83.3385 11.026 83.5625 11.1354 83.75 11.2812C84.1875 11.6042 84.3281 11.9271 84.1719 12.25C81.6302 17.5521 80.2604 20.8854 80.0625 22.25C80.0104 22.7188 79.9844 23.0417 79.9844 23.2188C79.9844 24.0104 80.224 24.4062 80.7031 24.4062C81.151 24.4062 81.5208 24.3281 81.8125 24.1719C82.1042 24.0052 82.3021 23.9219 82.4062 23.9219ZM85.4844 21.6094C85.5052 20.7031 85.6458 19.8021 85.9062 18.9062C86.1771 18 86.5312 17.1458 86.9688 16.3438C87.4167 15.5417 87.9427 14.8021 88.5469 14.125C89.1615 13.4479 89.8281 12.8646 90.5469 12.375C92.0469 11.3438 93.625 10.8281 95.2812 10.8281C96.9896 10.8281 98.151 11.5104 98.7656 12.875C98.9844 13.3646 99.0833 13.9219 99.0625 14.5469C99.0521 15.1615 98.9531 15.7292 98.7656 16.25C98.5781 16.7604 98.3438 17.2188 98.0625 17.625C97.4271 18.5417 96.7865 19 96.1406 19C95.4219 19 94.8906 18.8021 94.5469 18.4062C94.2448 18.0625 94.151 17.6615 94.2656 17.2031C94.2969 17.0677 94.3906 16.9479 94.5469 16.8438C94.7031 16.7292 94.901 16.5521 95.1406 16.3125C95.8177 15.6042 96.1719 14.776 96.2031 13.8281C96.224 13.1823 95.8281 12.8594 95.0156 12.8594C94.1406 12.8594 93.224 13.349 92.2656 14.3281C90.8698 15.7552 89.8854 17.5833 89.3125 19.8125C88.8125 21.75 88.9062 23.1667 89.5938 24.0625C90 24.5833 90.5521 24.8438 91.25 24.8438C92.4271 24.8438 93.5625 24.4271 94.6562 23.5938C94.9896 23.3333 95.2604 23.0677 95.4688 22.7969C95.6771 22.526 95.8698 22.3906 96.0469 22.3906C96.224 22.3906 96.3698 22.4792 96.4844 22.6562C96.6094 22.8229 96.6719 23.0417 96.6719 23.3125C96.6719 23.9271 96.3958 24.5312 95.8438 25.125C94.4271 26.4792 92.724 27.1562 90.7344 27.1562C89.0365 27.1562 87.724 26.6719 86.7969 25.7031C85.8802 24.7448 85.4427 23.3802 85.4844 21.6094ZM109.547 22.9062C109.849 22.9062 110 23.1094 110 23.5156C110 23.8594 109.896 24.1927 109.688 24.5156C109.406 25.1198 108.844 25.6927 108 26.2344C107.042 26.849 106.078 27.1562 105.109 27.1562C103.432 27.1562 102.37 26.4062 101.922 24.9062C101.391 23.125 102.188 19.349 104.312 13.5781C103.115 13.474 102.464 13.2656 102.359 12.9531C102.328 12.8594 102.312 12.7604 102.312 12.6562C102.312 12.5417 102.359 12.4115 102.453 12.2656C102.557 12.1198 102.688 11.9792 102.844 11.8438C103.208 11.5417 103.578 11.3906 103.953 11.3906H105.188C106.312 8.75521 107.115 7.25521 107.594 6.89062C107.823 6.72396 108.078 6.64062 108.359 6.64062C108.641 6.64062 108.875 6.67708 109.062 6.75C109.25 6.82292 109.417 6.92708 109.562 7.0625C109.896 7.375 110.062 7.72396 110.062 8.10938C110.062 8.31771 110 8.55729 109.875 8.82812L108.719 11.3438H109.094C109.74 11.3438 110.26 11.3385 110.656 11.3281C110.656 11.3281 110.953 11.3229 111.547 11.3125C111.745 11.3021 111.99 11.2969 112.281 11.2969C112.583 11.2969 112.734 11.4062 112.734 11.625C112.734 13 111.109 13.6875 107.859 13.6875H107.734L106.672 16.4375C105.474 19.6875 104.875 21.9635 104.875 23.2656C104.875 23.6302 104.958 23.9167 105.125 24.125C105.292 24.3229 105.604 24.4219 106.062 24.4219C106.521 24.4219 106.938 24.3438 107.312 24.1875C107.688 24.0312 108.016 23.8594 108.297 23.6719C108.578 23.474 108.818 23.2969 109.016 23.1406C109.224 22.9844 109.401 22.9062 109.547 22.9062ZM111.203 24.25C111.203 23.9271 111.271 23.6302 111.406 23.3594C111.552 23.0781 111.729 22.8438 111.938 22.6562C112.375 22.25 112.833 22.0469 113.312 22.0469C113.729 22.0469 113.938 22.2604 113.938 22.6875C113.938 23.7708 114.297 24.526 115.016 24.9531C115.276 25.1094 115.547 25.1875 115.828 25.1875C116.109 25.1875 116.349 25.1562 116.547 25.0938C116.745 25.0312 116.927 24.9323 117.094 24.7969C117.469 24.4948 117.656 24.1354 117.656 23.7188C117.656 23.3021 117.562 22.9219 117.375 22.5781C117.188 22.224 116.953 21.8542 116.672 21.4688L115.781 20.2188C114.531 18.5521 113.906 17.0156 113.906 15.6094C113.906 14.4427 114.401 13.3854 115.391 12.4375C116.516 11.3646 117.958 10.8281 119.719 10.8281C121.26 10.8281 122.464 11.2083 123.328 11.9688C124.036 12.5833 124.391 13.2865 124.391 14.0781C124.391 14.901 124.078 15.5573 123.453 16.0469C122.891 16.4844 122.328 16.6458 121.766 16.5312C121.516 16.4792 121.323 16.3542 121.188 16.1562C121.052 15.9479 121.026 15.7135 121.109 15.4531C121.193 15.1927 121.234 14.9219 121.234 14.6406C121.234 14.3594 121.182 14.099 121.078 13.8594C120.974 13.6198 120.833 13.4167 120.656 13.25C120.292 12.9062 119.906 12.7344 119.5 12.7344C119.104 12.7344 118.776 12.7812 118.516 12.875C118.255 12.9583 118.026 13.0833 117.828 13.25C117.422 13.625 117.219 14.0885 117.219 14.6406C117.219 15.1823 117.312 15.651 117.5 16.0469C117.688 16.4427 117.917 16.8385 118.188 17.2344C118.469 17.6302 118.771 18.0312 119.094 18.4375C119.417 18.8438 119.714 19.2708 119.984 19.7188C120.641 20.7708 120.969 21.6979 120.969 22.5C120.969 23.2917 120.802 23.9583 120.469 24.5C120.135 25.0312 119.703 25.4896 119.172 25.875C118.036 26.7188 116.766 27.1406 115.359 27.1406C114.016 27.1406 112.953 26.8177 112.172 26.1719C111.526 25.6302 111.203 24.9896 111.203 24.25Z" fill="#62D2A2"/>
</svg>
