<svg width="113" height="26" viewBox="0 0 113 26" fill="none" xmlns="http://www.w3.org/2000/svg">
<path d="M3.73438 18.9219L3.59375 20.125C3.59375 21.3854 4.01562 22.2448 4.85938 22.7031C5.15104 22.8594 5.5 22.9375 5.90625 22.9375C6.3125 22.9375 6.67708 22.8698 7 22.7344C7.32292 22.5885 7.58854 22.401 7.79688 22.1719C8.23438 21.7031 8.45312 21.1615 8.45312 20.5469C8.45312 19.9323 8.32812 19.375 8.07812 18.875C7.82812 18.375 7.51562 17.875 7.14062 17.375L5.89062 15.8438C4.88021 14.6354 4.20312 13.5365 3.85938 12.5469C3.51562 11.5469 3.34375 10.6302 3.34375 9.79688C3.34375 8.96354 3.44271 8.17708 3.64062 7.4375C3.84896 6.6875 4.13542 5.97917 4.5 5.3125C4.86458 4.63542 5.30208 4.01562 5.8125 3.45312C6.32292 2.89062 6.89062 2.40625 7.51562 2C8.81771 1.125 10.1094 0.6875 11.3906 0.6875C12.6719 0.6875 13.6719 0.864583 14.3906 1.21875C15.1094 1.57292 15.6875 2.02083 16.125 2.5625C16.9375 3.58333 17.3438 4.81771 17.3438 6.26562C17.3438 7.60938 16.9635 8.875 16.2031 10.0625C15.5052 11.1458 14.724 11.8333 13.8594 12.125C13.6719 12.2188 13.4115 12.2656 13.0781 12.2656C12.7552 12.2656 12.4792 12.2188 12.25 12.125C12.0312 12.0208 11.8385 11.8854 11.6719 11.7188C11.3073 11.3542 11.125 10.9583 11.125 10.5312C11.125 10.2396 11.2135 10.0469 11.3906 9.95312C12.1823 9.52604 12.8698 8.90625 13.4531 8.09375C14.0885 7.20833 14.4219 6.32812 14.4531 5.45312C14.4844 4.56771 14.2708 3.91667 13.8125 3.5C13.3646 3.07292 12.7656 2.85938 12.0156 2.85938C11.2656 2.85938 10.5885 3.03125 9.98438 3.375C9.38021 3.70833 8.85938 4.16146 8.42188 4.73438C7.48438 5.96354 7.01562 7.41667 7.01562 9.09375C7.01562 10.2083 7.40104 11.3854 8.17188 12.625C8.49479 13.1562 8.84375 13.6823 9.21875 14.2031C9.60417 14.7135 9.96354 15.2396 10.2969 15.7812C11.0573 17.0417 11.4375 18.1719 11.4375 19.1719C11.4375 20.1719 11.2552 21.0156 10.8906 21.7031C10.5365 22.3906 10.0625 22.9896 9.46875 23.5C8.1875 24.6042 6.72917 25.1562 5.09375 25.1562C3.55208 25.1562 2.36458 24.6979 1.53125 23.7812C0.864583 23.0417 0.53125 22.2396 0.53125 21.375C0.53125 20.4375 0.796875 19.6458 1.32812 19C1.73438 18.5104 2.125 18.2188 2.5 18.125C3.32292 17.9062 3.73438 18.1719 3.73438 18.9219ZM16.2656 19.5312C16.3073 18.625 16.4583 17.7604 16.7188 16.9375C16.9792 16.1042 17.3281 15.3021 17.7656 14.5312C18.2031 13.75 18.7135 13.0156 19.2969 12.3281C19.8906 11.6302 20.5312 11.0208 21.2188 10.5C22.7083 9.38542 24.2135 8.82812 25.7344 8.82812C27.5156 8.82812 28.7031 9.5625 29.2969 11.0312C29.5052 11.5312 29.6042 12.125 29.5938 12.8125C29.5833 13.4896 29.4531 14.1198 29.2031 14.7031C28.9531 15.276 28.6042 15.8021 28.1562 16.2812C27.7188 16.75 27.1927 17.1719 26.5781 17.5469C25.974 17.9219 25.3125 18.2396 24.5938 18.5C23.1146 19.0208 21.5312 19.2917 19.8438 19.3125C19.8021 19.4583 19.776 19.6771 19.7656 19.9688C19.7552 20.2604 19.7865 20.5885 19.8594 20.9531C19.9323 21.3073 20.0573 21.625 20.2344 21.9062C20.6094 22.5312 21.151 22.8438 21.8594 22.8438C23.0677 22.8438 24.2448 22.4896 25.3906 21.7812C25.7969 21.5417 26.125 21.2969 26.375 21.0469C26.6354 20.7865 26.8594 20.6562 27.0469 20.6562C27.2344 20.6562 27.3958 20.7708 27.5312 21C27.6771 21.2188 27.75 21.4688 27.75 21.75C27.75 22.3021 27.5938 22.7812 27.2812 23.1875C25.9688 24.5 24.0156 25.1562 21.4219 25.1562C19.8906 25.1562 18.6615 24.6979 17.7344 23.7812C16.6927 22.7396 16.2031 21.3229 16.2656 19.5312ZM25.3906 10.9062C24.2969 10.9062 23.2448 11.6562 22.2344 13.1562C21.3802 14.4479 20.6927 15.9792 20.1719 17.75C21.9115 17.5729 23.4219 16.8854 24.7031 15.6875C25.8802 14.5625 26.4688 13.4844 26.4688 12.4531C26.4688 11.4219 26.1094 10.9062 25.3906 10.9062ZM31.2656 24.625C31.0573 24.4688 30.8906 24.2969 30.7656 24.1094C30.6406 23.9115 30.5729 23.7448 30.5625 23.6094C30.5521 23.4635 30.5781 23.2917 30.6406 23.0938C30.7135 22.8854 30.8073 22.6354 30.9219 22.3438C33.0469 17.1146 34.1094 13.6042 34.1094 11.8125C34.0781 11.3125 33.9062 10.9583 33.5938 10.75L33.2812 10.5312C33.1875 10.4583 33.1354 10.3333 33.125 10.1562C33.125 9.96875 33.1927 9.79167 33.3281 9.625C33.4635 9.45833 33.6406 9.3125 33.8594 9.1875C34.3073 8.94792 34.7656 8.82812 35.2344 8.82812C35.7135 8.82812 36.0833 8.88021 36.3438 8.98438C36.6146 9.08854 36.8438 9.22917 37.0312 9.40625C37.4271 9.78125 37.625 10.1771 37.625 10.5938C37.6354 11.0104 37.5885 11.4323 37.4844 11.8594C37.3906 12.2865 37.276 12.7083 37.1406 13.125C37.0052 13.5312 36.8698 13.9219 36.7344 14.2969C36.599 14.6615 36.5104 14.9323 36.4688 15.1094C36.3854 15.474 36.3542 15.7031 36.375 15.7969C36.625 15.5781 36.776 15.3646 36.8281 15.1562L37.4375 14C38.7917 11.5625 40.1146 9.94792 41.4062 9.15625C41.7812 8.9375 42.2292 8.82812 42.75 8.82812C43.2812 8.82812 43.7083 9.01562 44.0312 9.39062C44.3542 9.75521 44.5208 10.1615 44.5312 10.6094C44.5521 11.0573 44.5208 11.4323 44.4375 11.7344C44.3646 12.026 44.25 12.3021 44.0938 12.5625C43.75 13.1458 43.3333 13.4375 42.8438 13.4375C42.7083 13.4375 42.5833 13.3906 42.4688 13.2969L42.125 13C41.7812 12.6979 41.4479 12.5469 41.125 12.5469C40.8125 12.5469 40.4271 12.7552 39.9688 13.1719C39.5208 13.5885 39.0521 14.125 38.5625 14.7812C36.9167 16.9583 35.5729 19.3958 34.5312 22.0938L33.8438 23.9062C33.6667 24.3542 33.5104 24.6771 33.375 24.875C33.2396 25.0625 33.0365 25.1562 32.7656 25.1562C32.5052 25.1562 32.2396 25.1042 31.9688 25C31.7083 24.9062 31.474 24.7812 31.2656 24.625ZM44.3281 23.4844C44.1719 23.1406 44.0938 22.7344 44.0938 22.2656C44.0938 21.7969 44.1667 21.2812 44.3125 20.7188C44.4583 20.1458 44.6458 19.5625 44.875 18.9688C45.1042 18.375 45.3594 17.7708 45.6406 17.1562L46.4375 15.3438C47.4688 12.9583 47.849 11.5521 47.5781 11.125C47.4531 10.9271 47.2135 10.7292 46.8594 10.5312C46.7448 10.4583 46.6875 10.3333 46.6875 10.1562C46.6875 9.96875 46.7604 9.79167 46.9062 9.625C47.0625 9.45833 47.2656 9.3125 47.5156 9.1875C48.0156 8.94792 48.5208 8.82812 49.0312 8.82812C49.5417 8.82812 49.9271 8.88542 50.1875 9C50.4583 9.10417 50.6823 9.23958 50.8594 9.40625C51.1927 9.75 51.3594 10.1667 51.3594 10.6562C51.3594 11.1458 51.2656 11.6979 51.0781 12.3125C50.8906 12.9271 50.6562 13.5729 50.375 14.25C50.0938 14.9271 49.7865 15.6198 49.4531 16.3281L48.5312 18.375C47.875 19.8854 47.5469 20.8854 47.5469 21.375C47.5469 22.3333 47.8854 22.8125 48.5625 22.8125C50.3021 22.8125 51.9323 21.7812 53.4531 19.7188C54.3385 18.5208 54.974 17.2188 55.3594 15.8125C55.5365 15.1458 55.625 14.5417 55.625 14C55.625 13.4479 55.6042 12.9896 55.5625 12.625C55.5312 12.2604 55.474 11.9375 55.3906 11.6562C55.2552 11.1562 55.026 10.724 54.7031 10.3594C54.4844 10.0885 54.5833 9.77083 55 9.40625C55.4583 9.02083 56.1094 8.82812 56.9531 8.82812C57.474 8.82812 57.9323 9.07292 58.3281 9.5625C58.8281 10.1458 59.0781 10.9844 59.0781 12.0781C59.0781 13.1615 58.9167 14.2292 58.5938 15.2812C58.2708 16.3229 57.8281 17.3281 57.2656 18.2969C56.7031 19.2552 56.0365 20.151 55.2656 20.9844C54.5052 21.8177 53.6823 22.5417 52.7969 23.1562C50.901 24.4896 49.0052 25.1562 47.1094 25.1562C45.7448 25.1562 44.8177 24.599 44.3281 23.4844ZM69.0469 5.17188C68.8177 5.41146 68.5573 5.60938 68.2656 5.76562C67.974 5.91146 67.6667 6.00521 67.3438 6.04688C67.0208 6.07812 66.7135 6.02604 66.4219 5.89062C66.1406 5.75521 65.8958 5.5625 65.6875 5.3125C65.2396 4.79167 65.0156 4.26562 65.0156 3.73438C65.0156 3.20312 65.099 2.80729 65.2656 2.54688C65.4427 2.27604 65.6615 2.05729 65.9219 1.89062C66.4219 1.56771 66.8906 1.40625 67.3281 1.40625C67.776 1.40625 68.1198 1.4375 68.3594 1.5C68.6094 1.5625 68.8385 1.66667 69.0469 1.8125C69.5573 2.15625 69.8125 2.57812 69.8125 3.07812C69.8125 3.56771 69.7396 3.97917 69.5938 4.3125C69.4583 4.63542 69.276 4.92188 69.0469 5.17188ZM65.8438 22.0781C66.1146 22.0781 66.25 22.2552 66.25 22.6094C66.25 23.0781 66.0365 23.5625 65.6094 24.0625C64.9844 24.7917 64.1458 25.1562 63.0938 25.1562C61.8854 25.1562 61.0573 24.6667 60.6094 23.6875C60.4427 23.3438 60.3594 22.9271 60.3594 22.4375C60.3594 21.9479 60.4427 21.4062 60.6094 20.8125C60.7865 20.2083 61 19.5781 61.25 18.9219C61.5104 18.2552 61.7917 17.5833 62.0938 16.9062L62.9219 14.9375C63.526 13.4688 63.8281 12.5 63.8281 12.0312C63.8281 11.5625 63.776 11.2552 63.6719 11.1094C63.5781 10.9531 63.474 10.8333 63.3594 10.75L63.0469 10.5312C62.9427 10.4583 62.8906 10.3333 62.8906 10.1562C62.8906 9.96875 62.9583 9.79167 63.0938 9.625C63.2396 9.45833 63.4271 9.3125 63.6562 9.1875C64.125 8.94792 64.6719 8.82812 65.2969 8.82812C66.8281 8.82812 67.5938 9.22917 67.5938 10.0312C67.5938 10.9688 67.349 12.0417 66.8594 13.25C66.3698 14.4479 65.9531 15.4167 65.6094 16.1562L64.6719 18.3125C63.9844 19.8958 63.6406 21.0365 63.6406 21.7344C63.6406 22.1927 63.8698 22.4219 64.3281 22.4219C64.776 22.4219 65.1146 22.3646 65.3438 22.25C65.5729 22.1354 65.7396 22.0781 65.8438 22.0781ZM69.7031 19.6094C69.724 18.7031 69.8646 17.8021 70.125 16.9062C70.3958 16 70.75 15.1458 71.1875 14.3438C71.6354 13.5417 72.1615 12.8021 72.7656 12.125C73.3802 11.4479 74.0469 10.8646 74.7656 10.375C76.2656 9.34375 77.8438 8.82812 79.5 8.82812C81.2083 8.82812 82.3698 9.51042 82.9844 10.875C83.2031 11.3646 83.3021 11.9219 83.2812 12.5469C83.2708 13.1615 83.1719 13.7292 82.9844 14.25C82.7969 14.7604 82.5625 15.2188 82.2812 15.625C81.6458 16.5417 81.0052 17 80.3594 17C79.6406 17 79.1094 16.8021 78.7656 16.4062C78.4635 16.0625 78.3698 15.6615 78.4844 15.2031C78.5156 15.0677 78.6094 14.9479 78.7656 14.8438C78.9219 14.7292 79.1198 14.5521 79.3594 14.3125C80.0365 13.6042 80.3906 12.776 80.4219 11.8281C80.4427 11.1823 80.0469 10.8594 79.2344 10.8594C78.3594 10.8594 77.4427 11.349 76.4844 12.3281C75.0885 13.7552 74.1042 15.5833 73.5312 17.8125C73.0312 19.75 73.125 21.1667 73.8125 22.0625C74.2188 22.5833 74.7708 22.8438 75.4688 22.8438C76.6458 22.8438 77.7812 22.4271 78.875 21.5938C79.2083 21.3333 79.4792 21.0677 79.6875 20.7969C79.8958 20.526 80.0885 20.3906 80.2656 20.3906C80.4427 20.3906 80.5885 20.4792 80.7031 20.6562C80.8281 20.8229 80.8906 21.0417 80.8906 21.3125C80.8906 21.9271 80.6146 22.5312 80.0625 23.125C78.6458 24.4792 76.9427 25.1562 74.9531 25.1562C73.2552 25.1562 71.9427 24.6719 71.0156 23.7031C70.099 22.7448 69.6615 21.3802 69.7031 19.6094ZM84.8281 19.5312C84.8698 18.625 85.0208 17.7604 85.2812 16.9375C85.5417 16.1042 85.8906 15.3021 86.3281 14.5312C86.7656 13.75 87.276 13.0156 87.8594 12.3281C88.4531 11.6302 89.0938 11.0208 89.7812 10.5C91.2708 9.38542 92.776 8.82812 94.2969 8.82812C96.0781 8.82812 97.2656 9.5625 97.8594 11.0312C98.0677 11.5312 98.1667 12.125 98.1562 12.8125C98.1458 13.4896 98.0156 14.1198 97.7656 14.7031C97.5156 15.276 97.1667 15.8021 96.7188 16.2812C96.2812 16.75 95.7552 17.1719 95.1406 17.5469C94.5365 17.9219 93.875 18.2396 93.1562 18.5C91.6771 19.0208 90.0938 19.2917 88.4062 19.3125C88.3646 19.4583 88.3385 19.6771 88.3281 19.9688C88.3177 20.2604 88.349 20.5885 88.4219 20.9531C88.4948 21.3073 88.6198 21.625 88.7969 21.9062C89.1719 22.5312 89.7135 22.8438 90.4219 22.8438C91.6302 22.8438 92.8073 22.4896 93.9531 21.7812C94.3594 21.5417 94.6875 21.2969 94.9375 21.0469C95.1979 20.7865 95.4219 20.6562 95.6094 20.6562C95.7969 20.6562 95.9583 20.7708 96.0938 21C96.2396 21.2188 96.3125 21.4688 96.3125 21.75C96.3125 22.3021 96.1562 22.7812 95.8438 23.1875C94.5312 24.5 92.5781 25.1562 89.9844 25.1562C88.4531 25.1562 87.224 24.6979 86.2969 23.7812C85.2552 22.7396 84.7656 21.3229 84.8281 19.5312ZM93.9531 10.9062C92.8594 10.9062 91.8073 11.6562 90.7969 13.1562C89.9427 14.4479 89.2552 15.9792 88.7344 17.75C90.474 17.5729 91.9844 16.8854 93.2656 15.6875C94.4427 14.5625 95.0312 13.4844 95.0312 12.4531C95.0312 11.4219 94.6719 10.9062 93.9531 10.9062ZM99.0156 22.25C99.0156 21.9271 99.0833 21.6302 99.2188 21.3594C99.3646 21.0781 99.5417 20.8438 99.75 20.6562C100.188 20.25 100.646 20.0469 101.125 20.0469C101.542 20.0469 101.75 20.2604 101.75 20.6875C101.75 21.7708 102.109 22.526 102.828 22.9531C103.089 23.1094 103.359 23.1875 103.641 23.1875C103.922 23.1875 104.161 23.1562 104.359 23.0938C104.557 23.0312 104.74 22.9323 104.906 22.7969C105.281 22.4948 105.469 22.1354 105.469 21.7188C105.469 21.3021 105.375 20.9219 105.188 20.5781C105 20.224 104.766 19.8542 104.484 19.4688L103.594 18.2188C102.344 16.5521 101.719 15.0156 101.719 13.6094C101.719 12.4427 102.214 11.3854 103.203 10.4375C104.328 9.36458 105.771 8.82812 107.531 8.82812C109.073 8.82812 110.276 9.20833 111.141 9.96875C111.849 10.5833 112.203 11.2865 112.203 12.0781C112.203 12.901 111.891 13.5573 111.266 14.0469C110.703 14.4844 110.141 14.6458 109.578 14.5312C109.328 14.4792 109.135 14.3542 109 14.1562C108.865 13.9479 108.839 13.7135 108.922 13.4531C109.005 13.1927 109.047 12.9219 109.047 12.6406C109.047 12.3594 108.995 12.099 108.891 11.8594C108.786 11.6198 108.646 11.4167 108.469 11.25C108.104 10.9062 107.719 10.7344 107.312 10.7344C106.917 10.7344 106.589 10.7812 106.328 10.875C106.068 10.9583 105.839 11.0833 105.641 11.25C105.234 11.625 105.031 12.0885 105.031 12.6406C105.031 13.1823 105.125 13.651 105.312 14.0469C105.5 14.4427 105.729 14.8385 106 15.2344C106.281 15.6302 106.583 16.0312 106.906 16.4375C107.229 16.8438 107.526 17.2708 107.797 17.7188C108.453 18.7708 108.781 19.6979 108.781 20.5C108.781 21.2917 108.615 21.9583 108.281 22.5C107.948 23.0312 107.516 23.4896 106.984 23.875C105.849 24.7188 104.578 25.1406 103.172 25.1406C101.828 25.1406 100.766 24.8177 99.9844 24.1719C99.3385 23.6302 99.0156 22.9896 99.0156 22.25Z" fill="#62D2A2"/>
</svg>
